M48
; DRILL file {KiCad (6.0.4)} date Mon Aug  1 12:39:35 2022
; FORMAT={-:-/ absolute / inch / decimal}
; #@! TF.CreationDate,2022-08-01T12:39:35+02:00
; #@! TF.GenerationSoftware,Kicad,Pcbnew,(6.0.4)
; #@! TF.FileFunction,Plated,1,2,PTH
FMAT,2
INCH
; #@! TA.AperFunction,Plated,PTH,ViaDrill
T1C0.0157
; #@! TA.AperFunction,Plated,PTH,ComponentDrill
T2C0.0374
; #@! TA.AperFunction,Plated,PTH,ComponentDrill
T3C0.0472
%
G90
G05
T1
X2.8937Y-5.4094
X4.4094Y-5.4134
X5.9252Y-5.8661
X5.9547Y-4.2559
X6.3189Y-5.7087
X7.0472Y-5.6102
T2
X5.9252Y-6.1417
X6.0236Y-6.1417
X6.122Y-6.1417
X6.2205Y-6.1417
X6.3189Y-6.1417
X6.4173Y-6.1417
T3
X8.0315Y-4.6713
X8.0315Y-5.1713
X8.0315Y-5.3602
X8.0315Y-5.8602
X8.2874Y-4.6713
X8.2874Y-5.1713
X8.2874Y-5.3602
X8.2874Y-5.8602
T0
M30
