%TF.GenerationSoftware,KiCad,Pcbnew,(6.0.4)*%
%TF.CreationDate,2022-07-25T16:23:06+02:00*%
%TF.ProjectId,MHS_Mobile_Hardware_Sampler_V3,4d48535f-4d6f-4626-996c-655f48617264,rev?*%
%TF.SameCoordinates,Original*%
%TF.FileFunction,Legend,Top*%
%TF.FilePolarity,Positive*%
%FSLAX46Y46*%
G04 Gerber Fmt 4.6, Leading zero omitted, Abs format (unit mm)*
G04 Created by KiCad (PCBNEW (6.0.4)) date 2022-07-25 16:23:06*
%MOMM*%
%LPD*%
G01*
G04 APERTURE LIST*
%ADD10C,0.150000*%
%ADD11C,0.254000*%
%ADD12C,0.100000*%
%ADD13C,0.120000*%
%ADD14C,0.200000*%
G04 APERTURE END LIST*
D10*
%TO.C,H13*%
X149761904Y-112242380D02*
X149761904Y-111242380D01*
X149761904Y-111718571D02*
X150333333Y-111718571D01*
X150333333Y-112242380D02*
X150333333Y-111242380D01*
X151333333Y-112242380D02*
X150761904Y-112242380D01*
X151047619Y-112242380D02*
X151047619Y-111242380D01*
X150952380Y-111385238D01*
X150857142Y-111480476D01*
X150761904Y-111528095D01*
X151666666Y-111242380D02*
X152285714Y-111242380D01*
X151952380Y-111623333D01*
X152095238Y-111623333D01*
X152190476Y-111670952D01*
X152238095Y-111718571D01*
X152285714Y-111813809D01*
X152285714Y-112051904D01*
X152238095Y-112147142D01*
X152190476Y-112194761D01*
X152095238Y-112242380D01*
X151809523Y-112242380D01*
X151714285Y-112194761D01*
X151666666Y-112147142D01*
%TO.C,H14*%
X188761904Y-111742380D02*
X188761904Y-110742380D01*
X188761904Y-111218571D02*
X189333333Y-111218571D01*
X189333333Y-111742380D02*
X189333333Y-110742380D01*
X190333333Y-111742380D02*
X189761904Y-111742380D01*
X190047619Y-111742380D02*
X190047619Y-110742380D01*
X189952380Y-110885238D01*
X189857142Y-110980476D01*
X189761904Y-111028095D01*
X191190476Y-111075714D02*
X191190476Y-111742380D01*
X190952380Y-110694761D02*
X190714285Y-111409047D01*
X191333333Y-111409047D01*
%TO.C,U7*%
X34748095Y-78232380D02*
X34748095Y-79041904D01*
X34795714Y-79137142D01*
X34843333Y-79184761D01*
X34938571Y-79232380D01*
X35129047Y-79232380D01*
X35224285Y-79184761D01*
X35271904Y-79137142D01*
X35319523Y-79041904D01*
X35319523Y-78232380D01*
X35700476Y-78232380D02*
X36367142Y-78232380D01*
X35938571Y-79232380D01*
X35572666Y-71703333D02*
X34872666Y-71703333D01*
X35372666Y-71470000D01*
X34872666Y-71236666D01*
X35572666Y-71236666D01*
X35572666Y-70903333D02*
X34872666Y-70903333D01*
X35572666Y-70570000D02*
X34872666Y-70570000D01*
X35372666Y-70336666D01*
X34872666Y-70103333D01*
X35572666Y-70103333D01*
X34872666Y-69836666D02*
X35572666Y-69370000D01*
X34872666Y-69370000D02*
X35572666Y-69836666D01*
X35572666Y-68703333D02*
X35239333Y-68936666D01*
X35572666Y-69103333D02*
X34872666Y-69103333D01*
X34872666Y-68836666D01*
X34906000Y-68770000D01*
X34939333Y-68736666D01*
X35006000Y-68703333D01*
X35106000Y-68703333D01*
X35172666Y-68736666D01*
X35206000Y-68770000D01*
X35239333Y-68836666D01*
X35239333Y-69103333D01*
X34872666Y-68503333D02*
X34872666Y-68103333D01*
X35572666Y-68303333D02*
X34872666Y-68303333D01*
X35572666Y-67503333D02*
X35572666Y-67903333D01*
X35572666Y-67703333D02*
X34872666Y-67703333D01*
X34972666Y-67770000D01*
X35039333Y-67836666D01*
X35072666Y-67903333D01*
X34872666Y-67070000D02*
X34872666Y-67003333D01*
X34906000Y-66936666D01*
X34939333Y-66903333D01*
X35006000Y-66870000D01*
X35139333Y-66836666D01*
X35306000Y-66836666D01*
X35439333Y-66870000D01*
X35506000Y-66903333D01*
X35539333Y-66936666D01*
X35572666Y-67003333D01*
X35572666Y-67070000D01*
X35539333Y-67136666D01*
X35506000Y-67170000D01*
X35439333Y-67203333D01*
X35306000Y-67236666D01*
X35139333Y-67236666D01*
X35006000Y-67203333D01*
X34939333Y-67170000D01*
X34906000Y-67136666D01*
X34872666Y-67070000D01*
X34872666Y-66236666D02*
X34872666Y-66370000D01*
X34906000Y-66436666D01*
X34939333Y-66470000D01*
X35039333Y-66536666D01*
X35172666Y-66570000D01*
X35439333Y-66570000D01*
X35506000Y-66536666D01*
X35539333Y-66503333D01*
X35572666Y-66436666D01*
X35572666Y-66303333D01*
X35539333Y-66236666D01*
X35506000Y-66203333D01*
X35439333Y-66170000D01*
X35272666Y-66170000D01*
X35206000Y-66203333D01*
X35172666Y-66236666D01*
X35139333Y-66303333D01*
X35139333Y-66436666D01*
X35172666Y-66503333D01*
X35206000Y-66536666D01*
X35272666Y-66570000D01*
X34939333Y-65903333D02*
X34906000Y-65870000D01*
X34872666Y-65803333D01*
X34872666Y-65636666D01*
X34906000Y-65570000D01*
X34939333Y-65536666D01*
X35006000Y-65503333D01*
X35072666Y-65503333D01*
X35172666Y-65536666D01*
X35572666Y-65936666D01*
X35572666Y-65503333D01*
X34048666Y-70020000D02*
X33348666Y-70020000D01*
X33348666Y-69853333D01*
X33382000Y-69753333D01*
X33448666Y-69686666D01*
X33515333Y-69653333D01*
X33648666Y-69620000D01*
X33748666Y-69620000D01*
X33882000Y-69653333D01*
X33948666Y-69686666D01*
X34015333Y-69753333D01*
X34048666Y-69853333D01*
X34048666Y-70020000D01*
X33348666Y-69420000D02*
X34048666Y-69186666D01*
X33348666Y-68953333D01*
X34048666Y-68386666D02*
X34048666Y-68720000D01*
X33348666Y-68720000D01*
X33348666Y-67853333D02*
X33348666Y-67986666D01*
X33382000Y-68053333D01*
X33415333Y-68086666D01*
X33515333Y-68153333D01*
X33648666Y-68186666D01*
X33915333Y-68186666D01*
X33982000Y-68153333D01*
X34015333Y-68120000D01*
X34048666Y-68053333D01*
X34048666Y-67920000D01*
X34015333Y-67853333D01*
X33982000Y-67820000D01*
X33915333Y-67786666D01*
X33748666Y-67786666D01*
X33682000Y-67820000D01*
X33648666Y-67853333D01*
X33615333Y-67920000D01*
X33615333Y-68053333D01*
X33648666Y-68120000D01*
X33682000Y-68153333D01*
X33748666Y-68186666D01*
X33848666Y-67520000D02*
X33848666Y-67186666D01*
X34048666Y-67586666D02*
X33348666Y-67353333D01*
X34048666Y-67120000D01*
%TO.C,H5V1*%
X51833333Y-112142380D02*
X51833333Y-111142380D01*
X51833333Y-111618571D02*
X52404761Y-111618571D01*
X52404761Y-112142380D02*
X52404761Y-111142380D01*
X53357142Y-111142380D02*
X52880952Y-111142380D01*
X52833333Y-111618571D01*
X52880952Y-111570952D01*
X52976190Y-111523333D01*
X53214285Y-111523333D01*
X53309523Y-111570952D01*
X53357142Y-111618571D01*
X53404761Y-111713809D01*
X53404761Y-111951904D01*
X53357142Y-112047142D01*
X53309523Y-112094761D01*
X53214285Y-112142380D01*
X52976190Y-112142380D01*
X52880952Y-112094761D01*
X52833333Y-112047142D01*
X53690476Y-111142380D02*
X54023809Y-112142380D01*
X54357142Y-111142380D01*
X55214285Y-112142380D02*
X54642857Y-112142380D01*
X54928571Y-112142380D02*
X54928571Y-111142380D01*
X54833333Y-111285238D01*
X54738095Y-111380476D01*
X54642857Y-111428095D01*
%TO.C,J6_TeensyPinsUnten1*%
X23697380Y-32404761D02*
X24411666Y-32404761D01*
X24554523Y-32452380D01*
X24649761Y-32547619D01*
X24697380Y-32690476D01*
X24697380Y-32785714D01*
X23697380Y-31500000D02*
X23697380Y-31690476D01*
X23745000Y-31785714D01*
X23792619Y-31833333D01*
X23935476Y-31928571D01*
X24125952Y-31976190D01*
X24506904Y-31976190D01*
X24602142Y-31928571D01*
X24649761Y-31880952D01*
X24697380Y-31785714D01*
X24697380Y-31595238D01*
X24649761Y-31500000D01*
X24602142Y-31452380D01*
X24506904Y-31404761D01*
X24268809Y-31404761D01*
X24173571Y-31452380D01*
X24125952Y-31500000D01*
X24078333Y-31595238D01*
X24078333Y-31785714D01*
X24125952Y-31880952D01*
X24173571Y-31928571D01*
X24268809Y-31976190D01*
X24792619Y-31214285D02*
X24792619Y-30452380D01*
X23697380Y-30357142D02*
X23697380Y-29785714D01*
X24697380Y-30071428D02*
X23697380Y-30071428D01*
X24649761Y-29071428D02*
X24697380Y-29166666D01*
X24697380Y-29357142D01*
X24649761Y-29452380D01*
X24554523Y-29500000D01*
X24173571Y-29500000D01*
X24078333Y-29452380D01*
X24030714Y-29357142D01*
X24030714Y-29166666D01*
X24078333Y-29071428D01*
X24173571Y-29023809D01*
X24268809Y-29023809D01*
X24364047Y-29500000D01*
X24649761Y-28214285D02*
X24697380Y-28309523D01*
X24697380Y-28500000D01*
X24649761Y-28595238D01*
X24554523Y-28642857D01*
X24173571Y-28642857D01*
X24078333Y-28595238D01*
X24030714Y-28500000D01*
X24030714Y-28309523D01*
X24078333Y-28214285D01*
X24173571Y-28166666D01*
X24268809Y-28166666D01*
X24364047Y-28642857D01*
X24030714Y-27738095D02*
X24697380Y-27738095D01*
X24125952Y-27738095D02*
X24078333Y-27690476D01*
X24030714Y-27595238D01*
X24030714Y-27452380D01*
X24078333Y-27357142D01*
X24173571Y-27309523D01*
X24697380Y-27309523D01*
X24649761Y-26880952D02*
X24697380Y-26785714D01*
X24697380Y-26595238D01*
X24649761Y-26500000D01*
X24554523Y-26452380D01*
X24506904Y-26452380D01*
X24411666Y-26500000D01*
X24364047Y-26595238D01*
X24364047Y-26738095D01*
X24316428Y-26833333D01*
X24221190Y-26880952D01*
X24173571Y-26880952D01*
X24078333Y-26833333D01*
X24030714Y-26738095D01*
X24030714Y-26595238D01*
X24078333Y-26500000D01*
X24030714Y-26119047D02*
X24697380Y-25880952D01*
X24030714Y-25642857D02*
X24697380Y-25880952D01*
X24935476Y-25976190D01*
X24983095Y-26023809D01*
X25030714Y-26119047D01*
X24697380Y-25261904D02*
X23697380Y-25261904D01*
X23697380Y-24880952D01*
X23745000Y-24785714D01*
X23792619Y-24738095D01*
X23887857Y-24690476D01*
X24030714Y-24690476D01*
X24125952Y-24738095D01*
X24173571Y-24785714D01*
X24221190Y-24880952D01*
X24221190Y-25261904D01*
X24697380Y-24261904D02*
X24030714Y-24261904D01*
X23697380Y-24261904D02*
X23745000Y-24309523D01*
X23792619Y-24261904D01*
X23745000Y-24214285D01*
X23697380Y-24261904D01*
X23792619Y-24261904D01*
X24030714Y-23785714D02*
X24697380Y-23785714D01*
X24125952Y-23785714D02*
X24078333Y-23738095D01*
X24030714Y-23642857D01*
X24030714Y-23500000D01*
X24078333Y-23404761D01*
X24173571Y-23357142D01*
X24697380Y-23357142D01*
X24649761Y-22928571D02*
X24697380Y-22833333D01*
X24697380Y-22642857D01*
X24649761Y-22547619D01*
X24554523Y-22500000D01*
X24506904Y-22500000D01*
X24411666Y-22547619D01*
X24364047Y-22642857D01*
X24364047Y-22785714D01*
X24316428Y-22880952D01*
X24221190Y-22928571D01*
X24173571Y-22928571D01*
X24078333Y-22880952D01*
X24030714Y-22785714D01*
X24030714Y-22642857D01*
X24078333Y-22547619D01*
X23697380Y-22071428D02*
X24506904Y-22071428D01*
X24602142Y-22023809D01*
X24649761Y-21976190D01*
X24697380Y-21880952D01*
X24697380Y-21690476D01*
X24649761Y-21595238D01*
X24602142Y-21547619D01*
X24506904Y-21500000D01*
X23697380Y-21500000D01*
X24030714Y-21023809D02*
X24697380Y-21023809D01*
X24125952Y-21023809D02*
X24078333Y-20976190D01*
X24030714Y-20880952D01*
X24030714Y-20738095D01*
X24078333Y-20642857D01*
X24173571Y-20595238D01*
X24697380Y-20595238D01*
X24030714Y-20261904D02*
X24030714Y-19880952D01*
X23697380Y-20119047D02*
X24554523Y-20119047D01*
X24649761Y-20071428D01*
X24697380Y-19976190D01*
X24697380Y-19880952D01*
X24649761Y-19166666D02*
X24697380Y-19261904D01*
X24697380Y-19452380D01*
X24649761Y-19547619D01*
X24554523Y-19595238D01*
X24173571Y-19595238D01*
X24078333Y-19547619D01*
X24030714Y-19452380D01*
X24030714Y-19261904D01*
X24078333Y-19166666D01*
X24173571Y-19119047D01*
X24268809Y-19119047D01*
X24364047Y-19595238D01*
X24030714Y-18690476D02*
X24697380Y-18690476D01*
X24125952Y-18690476D02*
X24078333Y-18642857D01*
X24030714Y-18547619D01*
X24030714Y-18404761D01*
X24078333Y-18309523D01*
X24173571Y-18261904D01*
X24697380Y-18261904D01*
X24697380Y-17261904D02*
X24697380Y-17833333D01*
X24697380Y-17547619D02*
X23697380Y-17547619D01*
X23840238Y-17642857D01*
X23935476Y-17738095D01*
X23983095Y-17833333D01*
%TO.C,R4*%
X213872380Y-142666666D02*
X213396190Y-143000000D01*
X213872380Y-143238095D02*
X212872380Y-143238095D01*
X212872380Y-142857142D01*
X212920000Y-142761904D01*
X212967619Y-142714285D01*
X213062857Y-142666666D01*
X213205714Y-142666666D01*
X213300952Y-142714285D01*
X213348571Y-142761904D01*
X213396190Y-142857142D01*
X213396190Y-143238095D01*
X213205714Y-141809523D02*
X213872380Y-141809523D01*
X212824761Y-142047619D02*
X213539047Y-142285714D01*
X213539047Y-141666666D01*
%TO.C,H3*%
X197738095Y-113452380D02*
X197738095Y-112452380D01*
X197738095Y-112928571D02*
X198309523Y-112928571D01*
X198309523Y-113452380D02*
X198309523Y-112452380D01*
X198690476Y-112452380D02*
X199309523Y-112452380D01*
X198976190Y-112833333D01*
X199119047Y-112833333D01*
X199214285Y-112880952D01*
X199261904Y-112928571D01*
X199309523Y-113023809D01*
X199309523Y-113261904D01*
X199261904Y-113357142D01*
X199214285Y-113404761D01*
X199119047Y-113452380D01*
X198833333Y-113452380D01*
X198738095Y-113404761D01*
X198690476Y-113357142D01*
D11*
%TO.C,U6*%
X169532380Y-60294523D02*
X169532380Y-61322619D01*
X169592857Y-61443571D01*
X169653333Y-61504047D01*
X169774285Y-61564523D01*
X170016190Y-61564523D01*
X170137142Y-61504047D01*
X170197619Y-61443571D01*
X170258095Y-61322619D01*
X170258095Y-60294523D01*
X171407142Y-60294523D02*
X171165238Y-60294523D01*
X171044285Y-60355000D01*
X170983809Y-60415476D01*
X170862857Y-60596904D01*
X170802380Y-60838809D01*
X170802380Y-61322619D01*
X170862857Y-61443571D01*
X170923333Y-61504047D01*
X171044285Y-61564523D01*
X171286190Y-61564523D01*
X171407142Y-61504047D01*
X171467619Y-61443571D01*
X171528095Y-61322619D01*
X171528095Y-61020238D01*
X171467619Y-60899285D01*
X171407142Y-60838809D01*
X171286190Y-60778333D01*
X171044285Y-60778333D01*
X170923333Y-60838809D01*
X170862857Y-60899285D01*
X170802380Y-61020238D01*
D10*
%TO.C,J9*%
X115122380Y-81833333D02*
X115836666Y-81833333D01*
X115979523Y-81880952D01*
X116074761Y-81976190D01*
X116122380Y-82119047D01*
X116122380Y-82214285D01*
X116122380Y-81309523D02*
X116122380Y-81119047D01*
X116074761Y-81023809D01*
X116027142Y-80976190D01*
X115884285Y-80880952D01*
X115693809Y-80833333D01*
X115312857Y-80833333D01*
X115217619Y-80880952D01*
X115170000Y-80928571D01*
X115122380Y-81023809D01*
X115122380Y-81214285D01*
X115170000Y-81309523D01*
X115217619Y-81357142D01*
X115312857Y-81404761D01*
X115550952Y-81404761D01*
X115646190Y-81357142D01*
X115693809Y-81309523D01*
X115741428Y-81214285D01*
X115741428Y-81023809D01*
X115693809Y-80928571D01*
X115646190Y-80880952D01*
X115550952Y-80833333D01*
%TO.C,H6*%
X42738095Y-149452380D02*
X42738095Y-148452380D01*
X42738095Y-148928571D02*
X43309523Y-148928571D01*
X43309523Y-149452380D02*
X43309523Y-148452380D01*
X44214285Y-148452380D02*
X44023809Y-148452380D01*
X43928571Y-148500000D01*
X43880952Y-148547619D01*
X43785714Y-148690476D01*
X43738095Y-148880952D01*
X43738095Y-149261904D01*
X43785714Y-149357142D01*
X43833333Y-149404761D01*
X43928571Y-149452380D01*
X44119047Y-149452380D01*
X44214285Y-149404761D01*
X44261904Y-149357142D01*
X44309523Y-149261904D01*
X44309523Y-149023809D01*
X44261904Y-148928571D01*
X44214285Y-148880952D01*
X44119047Y-148833333D01*
X43928571Y-148833333D01*
X43833333Y-148880952D01*
X43785714Y-148928571D01*
X43738095Y-149023809D01*
%TO.C,H2*%
X197738095Y-149452380D02*
X197738095Y-148452380D01*
X197738095Y-148928571D02*
X198309523Y-148928571D01*
X198309523Y-149452380D02*
X198309523Y-148452380D01*
X198738095Y-148547619D02*
X198785714Y-148500000D01*
X198880952Y-148452380D01*
X199119047Y-148452380D01*
X199214285Y-148500000D01*
X199261904Y-148547619D01*
X199309523Y-148642857D01*
X199309523Y-148738095D01*
X199261904Y-148880952D01*
X198690476Y-149452380D01*
X199309523Y-149452380D01*
%TO.C,J4*%
X120416666Y-89402380D02*
X120416666Y-90116666D01*
X120369047Y-90259523D01*
X120273809Y-90354761D01*
X120130952Y-90402380D01*
X120035714Y-90402380D01*
X121321428Y-89735714D02*
X121321428Y-90402380D01*
X121083333Y-89354761D02*
X120845238Y-90069047D01*
X121464285Y-90069047D01*
%TO.C,H12*%
X110761904Y-112242380D02*
X110761904Y-111242380D01*
X110761904Y-111718571D02*
X111333333Y-111718571D01*
X111333333Y-112242380D02*
X111333333Y-111242380D01*
X112333333Y-112242380D02*
X111761904Y-112242380D01*
X112047619Y-112242380D02*
X112047619Y-111242380D01*
X111952380Y-111385238D01*
X111857142Y-111480476D01*
X111761904Y-111528095D01*
X112714285Y-111337619D02*
X112761904Y-111290000D01*
X112857142Y-111242380D01*
X113095238Y-111242380D01*
X113190476Y-111290000D01*
X113238095Y-111337619D01*
X113285714Y-111432857D01*
X113285714Y-111528095D01*
X113238095Y-111670952D01*
X112666666Y-112242380D01*
X113285714Y-112242380D01*
%TO.C,H5V3*%
X129333333Y-112242380D02*
X129333333Y-111242380D01*
X129333333Y-111718571D02*
X129904761Y-111718571D01*
X129904761Y-112242380D02*
X129904761Y-111242380D01*
X130857142Y-111242380D02*
X130380952Y-111242380D01*
X130333333Y-111718571D01*
X130380952Y-111670952D01*
X130476190Y-111623333D01*
X130714285Y-111623333D01*
X130809523Y-111670952D01*
X130857142Y-111718571D01*
X130904761Y-111813809D01*
X130904761Y-112051904D01*
X130857142Y-112147142D01*
X130809523Y-112194761D01*
X130714285Y-112242380D01*
X130476190Y-112242380D01*
X130380952Y-112194761D01*
X130333333Y-112147142D01*
X131190476Y-111242380D02*
X131523809Y-112242380D01*
X131857142Y-111242380D01*
X132095238Y-111242380D02*
X132714285Y-111242380D01*
X132380952Y-111623333D01*
X132523809Y-111623333D01*
X132619047Y-111670952D01*
X132666666Y-111718571D01*
X132714285Y-111813809D01*
X132714285Y-112051904D01*
X132666666Y-112147142D01*
X132619047Y-112194761D01*
X132523809Y-112242380D01*
X132238095Y-112242380D01*
X132142857Y-112194761D01*
X132095238Y-112147142D01*
%TO.C,J5*%
X137407380Y-53333333D02*
X138121666Y-53333333D01*
X138264523Y-53380952D01*
X138359761Y-53476190D01*
X138407380Y-53619047D01*
X138407380Y-53714285D01*
X137407380Y-52380952D02*
X137407380Y-52857142D01*
X137883571Y-52904761D01*
X137835952Y-52857142D01*
X137788333Y-52761904D01*
X137788333Y-52523809D01*
X137835952Y-52428571D01*
X137883571Y-52380952D01*
X137978809Y-52333333D01*
X138216904Y-52333333D01*
X138312142Y-52380952D01*
X138359761Y-52428571D01*
X138407380Y-52523809D01*
X138407380Y-52761904D01*
X138359761Y-52857142D01*
X138312142Y-52904761D01*
%TO.C,H11*%
X72161904Y-112142380D02*
X72161904Y-111142380D01*
X72161904Y-111618571D02*
X72733333Y-111618571D01*
X72733333Y-112142380D02*
X72733333Y-111142380D01*
X73733333Y-112142380D02*
X73161904Y-112142380D01*
X73447619Y-112142380D02*
X73447619Y-111142380D01*
X73352380Y-111285238D01*
X73257142Y-111380476D01*
X73161904Y-111428095D01*
X74685714Y-112142380D02*
X74114285Y-112142380D01*
X74400000Y-112142380D02*
X74400000Y-111142380D01*
X74304761Y-111285238D01*
X74209523Y-111380476D01*
X74114285Y-111428095D01*
%TO.C,JST_TEENSY_5*%
X68083333Y-54002380D02*
X68083333Y-54716666D01*
X68035714Y-54859523D01*
X67940476Y-54954761D01*
X67797619Y-55002380D01*
X67702380Y-55002380D01*
X68511904Y-54954761D02*
X68654761Y-55002380D01*
X68892857Y-55002380D01*
X68988095Y-54954761D01*
X69035714Y-54907142D01*
X69083333Y-54811904D01*
X69083333Y-54716666D01*
X69035714Y-54621428D01*
X68988095Y-54573809D01*
X68892857Y-54526190D01*
X68702380Y-54478571D01*
X68607142Y-54430952D01*
X68559523Y-54383333D01*
X68511904Y-54288095D01*
X68511904Y-54192857D01*
X68559523Y-54097619D01*
X68607142Y-54050000D01*
X68702380Y-54002380D01*
X68940476Y-54002380D01*
X69083333Y-54050000D01*
X69369047Y-54002380D02*
X69940476Y-54002380D01*
X69654761Y-55002380D02*
X69654761Y-54002380D01*
X70035714Y-55097619D02*
X70797619Y-55097619D01*
X70892857Y-54002380D02*
X71464285Y-54002380D01*
X71178571Y-55002380D02*
X71178571Y-54002380D01*
X71797619Y-54478571D02*
X72130952Y-54478571D01*
X72273809Y-55002380D02*
X71797619Y-55002380D01*
X71797619Y-54002380D01*
X72273809Y-54002380D01*
X72702380Y-54478571D02*
X73035714Y-54478571D01*
X73178571Y-55002380D02*
X72702380Y-55002380D01*
X72702380Y-54002380D01*
X73178571Y-54002380D01*
X73607142Y-55002380D02*
X73607142Y-54002380D01*
X74178571Y-55002380D01*
X74178571Y-54002380D01*
X74607142Y-54954761D02*
X74750000Y-55002380D01*
X74988095Y-55002380D01*
X75083333Y-54954761D01*
X75130952Y-54907142D01*
X75178571Y-54811904D01*
X75178571Y-54716666D01*
X75130952Y-54621428D01*
X75083333Y-54573809D01*
X74988095Y-54526190D01*
X74797619Y-54478571D01*
X74702380Y-54430952D01*
X74654761Y-54383333D01*
X74607142Y-54288095D01*
X74607142Y-54192857D01*
X74654761Y-54097619D01*
X74702380Y-54050000D01*
X74797619Y-54002380D01*
X75035714Y-54002380D01*
X75178571Y-54050000D01*
X75797619Y-54526190D02*
X75797619Y-55002380D01*
X75464285Y-54002380D02*
X75797619Y-54526190D01*
X76130952Y-54002380D01*
X76226190Y-55097619D02*
X76988095Y-55097619D01*
X77702380Y-54002380D02*
X77226190Y-54002380D01*
X77178571Y-54478571D01*
X77226190Y-54430952D01*
X77321428Y-54383333D01*
X77559523Y-54383333D01*
X77654761Y-54430952D01*
X77702380Y-54478571D01*
X77750000Y-54573809D01*
X77750000Y-54811904D01*
X77702380Y-54907142D01*
X77654761Y-54954761D01*
X77559523Y-55002380D01*
X77321428Y-55002380D01*
X77226190Y-54954761D01*
X77178571Y-54907142D01*
%TO.C,J10*%
X191462380Y-87819523D02*
X192176666Y-87819523D01*
X192319523Y-87867142D01*
X192414761Y-87962380D01*
X192462380Y-88105238D01*
X192462380Y-88200476D01*
X192462380Y-86819523D02*
X192462380Y-87390952D01*
X192462380Y-87105238D02*
X191462380Y-87105238D01*
X191605238Y-87200476D01*
X191700476Y-87295714D01*
X191748095Y-87390952D01*
X191462380Y-86200476D02*
X191462380Y-86105238D01*
X191510000Y-86010000D01*
X191557619Y-85962380D01*
X191652857Y-85914761D01*
X191843333Y-85867142D01*
X192081428Y-85867142D01*
X192271904Y-85914761D01*
X192367142Y-85962380D01*
X192414761Y-86010000D01*
X192462380Y-86105238D01*
X192462380Y-86200476D01*
X192414761Y-86295714D01*
X192367142Y-86343333D01*
X192271904Y-86390952D01*
X192081428Y-86438571D01*
X191843333Y-86438571D01*
X191652857Y-86390952D01*
X191557619Y-86343333D01*
X191510000Y-86295714D01*
X191462380Y-86200476D01*
%TO.C,R1*%
X207372380Y-125166666D02*
X206896190Y-125500000D01*
X207372380Y-125738095D02*
X206372380Y-125738095D01*
X206372380Y-125357142D01*
X206420000Y-125261904D01*
X206467619Y-125214285D01*
X206562857Y-125166666D01*
X206705714Y-125166666D01*
X206800952Y-125214285D01*
X206848571Y-125261904D01*
X206896190Y-125357142D01*
X206896190Y-125738095D01*
X207372380Y-124214285D02*
X207372380Y-124785714D01*
X207372380Y-124500000D02*
X206372380Y-124500000D01*
X206515238Y-124595238D01*
X206610476Y-124690476D01*
X206658095Y-124785714D01*
%TO.C,H1*%
X42738095Y-113452380D02*
X42738095Y-112452380D01*
X42738095Y-112928571D02*
X43309523Y-112928571D01*
X43309523Y-113452380D02*
X43309523Y-112452380D01*
X44309523Y-113452380D02*
X43738095Y-113452380D01*
X44023809Y-113452380D02*
X44023809Y-112452380D01*
X43928571Y-112595238D01*
X43833333Y-112690476D01*
X43738095Y-112738095D01*
%TO.C,J1*%
X53792380Y-46953333D02*
X54506666Y-46953333D01*
X54649523Y-47000952D01*
X54744761Y-47096190D01*
X54792380Y-47239047D01*
X54792380Y-47334285D01*
X54792380Y-45953333D02*
X54792380Y-46524761D01*
X54792380Y-46239047D02*
X53792380Y-46239047D01*
X53935238Y-46334285D01*
X54030476Y-46429523D01*
X54078095Y-46524761D01*
%TO.C,J8*%
X184136666Y-35269880D02*
X184136666Y-35984166D01*
X184089047Y-36127023D01*
X183993809Y-36222261D01*
X183850952Y-36269880D01*
X183755714Y-36269880D01*
X184755714Y-35698452D02*
X184660476Y-35650833D01*
X184612857Y-35603214D01*
X184565238Y-35507976D01*
X184565238Y-35460357D01*
X184612857Y-35365119D01*
X184660476Y-35317500D01*
X184755714Y-35269880D01*
X184946190Y-35269880D01*
X185041428Y-35317500D01*
X185089047Y-35365119D01*
X185136666Y-35460357D01*
X185136666Y-35507976D01*
X185089047Y-35603214D01*
X185041428Y-35650833D01*
X184946190Y-35698452D01*
X184755714Y-35698452D01*
X184660476Y-35746071D01*
X184612857Y-35793690D01*
X184565238Y-35888928D01*
X184565238Y-36079404D01*
X184612857Y-36174642D01*
X184660476Y-36222261D01*
X184755714Y-36269880D01*
X184946190Y-36269880D01*
X185041428Y-36222261D01*
X185089047Y-36174642D01*
X185136666Y-36079404D01*
X185136666Y-35888928D01*
X185089047Y-35793690D01*
X185041428Y-35746071D01*
X184946190Y-35698452D01*
%TO.C,J?3=FSR4;6=FSR1*%
X150273809Y-151902380D02*
X150273809Y-152616666D01*
X150226190Y-152759523D01*
X150130952Y-152854761D01*
X149988095Y-152902380D01*
X149892857Y-152902380D01*
X150892857Y-152807142D02*
X150940476Y-152854761D01*
X150892857Y-152902380D01*
X150845238Y-152854761D01*
X150892857Y-152807142D01*
X150892857Y-152902380D01*
X150702380Y-151950000D02*
X150797619Y-151902380D01*
X151035714Y-151902380D01*
X151130952Y-151950000D01*
X151178571Y-152045238D01*
X151178571Y-152140476D01*
X151130952Y-152235714D01*
X151083333Y-152283333D01*
X150988095Y-152330952D01*
X150940476Y-152378571D01*
X150892857Y-152473809D01*
X150892857Y-152521428D01*
X151511904Y-151902380D02*
X152130952Y-151902380D01*
X151797619Y-152283333D01*
X151940476Y-152283333D01*
X152035714Y-152330952D01*
X152083333Y-152378571D01*
X152130952Y-152473809D01*
X152130952Y-152711904D01*
X152083333Y-152807142D01*
X152035714Y-152854761D01*
X151940476Y-152902380D01*
X151654761Y-152902380D01*
X151559523Y-152854761D01*
X151511904Y-152807142D01*
X152559523Y-152378571D02*
X153321428Y-152378571D01*
X153321428Y-152664285D02*
X152559523Y-152664285D01*
X154130952Y-152378571D02*
X153797619Y-152378571D01*
X153797619Y-152902380D02*
X153797619Y-151902380D01*
X154273809Y-151902380D01*
X154607142Y-152854761D02*
X154750000Y-152902380D01*
X154988095Y-152902380D01*
X155083333Y-152854761D01*
X155130952Y-152807142D01*
X155178571Y-152711904D01*
X155178571Y-152616666D01*
X155130952Y-152521428D01*
X155083333Y-152473809D01*
X154988095Y-152426190D01*
X154797619Y-152378571D01*
X154702380Y-152330952D01*
X154654761Y-152283333D01*
X154607142Y-152188095D01*
X154607142Y-152092857D01*
X154654761Y-151997619D01*
X154702380Y-151950000D01*
X154797619Y-151902380D01*
X155035714Y-151902380D01*
X155178571Y-151950000D01*
X156178571Y-152902380D02*
X155845238Y-152426190D01*
X155607142Y-152902380D02*
X155607142Y-151902380D01*
X155988095Y-151902380D01*
X156083333Y-151950000D01*
X156130952Y-151997619D01*
X156178571Y-152092857D01*
X156178571Y-152235714D01*
X156130952Y-152330952D01*
X156083333Y-152378571D01*
X155988095Y-152426190D01*
X155607142Y-152426190D01*
X157035714Y-152235714D02*
X157035714Y-152902380D01*
X156797619Y-151854761D02*
X156559523Y-152569047D01*
X157178571Y-152569047D01*
X157607142Y-152854761D02*
X157607142Y-152902380D01*
X157559523Y-152997619D01*
X157511904Y-153045238D01*
X157559523Y-152283333D02*
X157607142Y-152330952D01*
X157559523Y-152378571D01*
X157511904Y-152330952D01*
X157559523Y-152283333D01*
X157559523Y-152378571D01*
X158464285Y-151902380D02*
X158273809Y-151902380D01*
X158178571Y-151950000D01*
X158130952Y-151997619D01*
X158035714Y-152140476D01*
X157988095Y-152330952D01*
X157988095Y-152711904D01*
X158035714Y-152807142D01*
X158083333Y-152854761D01*
X158178571Y-152902380D01*
X158369047Y-152902380D01*
X158464285Y-152854761D01*
X158511904Y-152807142D01*
X158559523Y-152711904D01*
X158559523Y-152473809D01*
X158511904Y-152378571D01*
X158464285Y-152330952D01*
X158369047Y-152283333D01*
X158178571Y-152283333D01*
X158083333Y-152330952D01*
X158035714Y-152378571D01*
X157988095Y-152473809D01*
X158988095Y-152378571D02*
X159750000Y-152378571D01*
X159750000Y-152664285D02*
X158988095Y-152664285D01*
X160559523Y-152378571D02*
X160226190Y-152378571D01*
X160226190Y-152902380D02*
X160226190Y-151902380D01*
X160702380Y-151902380D01*
X161035714Y-152854761D02*
X161178571Y-152902380D01*
X161416666Y-152902380D01*
X161511904Y-152854761D01*
X161559523Y-152807142D01*
X161607142Y-152711904D01*
X161607142Y-152616666D01*
X161559523Y-152521428D01*
X161511904Y-152473809D01*
X161416666Y-152426190D01*
X161226190Y-152378571D01*
X161130952Y-152330952D01*
X161083333Y-152283333D01*
X161035714Y-152188095D01*
X161035714Y-152092857D01*
X161083333Y-151997619D01*
X161130952Y-151950000D01*
X161226190Y-151902380D01*
X161464285Y-151902380D01*
X161607142Y-151950000D01*
X162607142Y-152902380D02*
X162273809Y-152426190D01*
X162035714Y-152902380D02*
X162035714Y-151902380D01*
X162416666Y-151902380D01*
X162511904Y-151950000D01*
X162559523Y-151997619D01*
X162607142Y-152092857D01*
X162607142Y-152235714D01*
X162559523Y-152330952D01*
X162511904Y-152378571D01*
X162416666Y-152426190D01*
X162035714Y-152426190D01*
X163559523Y-152902380D02*
X162988095Y-152902380D01*
X163273809Y-152902380D02*
X163273809Y-151902380D01*
X163178571Y-152045238D01*
X163083333Y-152140476D01*
X162988095Y-152188095D01*
D11*
%TO.C,J17*%
X125303193Y-31214095D02*
X126210336Y-31214095D01*
X126391765Y-31274571D01*
X126512717Y-31395523D01*
X126573193Y-31576952D01*
X126573193Y-31697904D01*
X126573193Y-29944095D02*
X126573193Y-30669809D01*
X126573193Y-30306952D02*
X125303193Y-30306952D01*
X125484622Y-30427904D01*
X125605574Y-30548857D01*
X125666050Y-30669809D01*
X125303193Y-29520761D02*
X125303193Y-28674095D01*
X126573193Y-29218380D01*
D10*
%TO.C,R8*%
X200292380Y-74926666D02*
X199816190Y-75260000D01*
X200292380Y-75498095D02*
X199292380Y-75498095D01*
X199292380Y-75117142D01*
X199340000Y-75021904D01*
X199387619Y-74974285D01*
X199482857Y-74926666D01*
X199625714Y-74926666D01*
X199720952Y-74974285D01*
X199768571Y-75021904D01*
X199816190Y-75117142D01*
X199816190Y-75498095D01*
X199720952Y-74355238D02*
X199673333Y-74450476D01*
X199625714Y-74498095D01*
X199530476Y-74545714D01*
X199482857Y-74545714D01*
X199387619Y-74498095D01*
X199340000Y-74450476D01*
X199292380Y-74355238D01*
X199292380Y-74164761D01*
X199340000Y-74069523D01*
X199387619Y-74021904D01*
X199482857Y-73974285D01*
X199530476Y-73974285D01*
X199625714Y-74021904D01*
X199673333Y-74069523D01*
X199720952Y-74164761D01*
X199720952Y-74355238D01*
X199768571Y-74450476D01*
X199816190Y-74498095D01*
X199911428Y-74545714D01*
X200101904Y-74545714D01*
X200197142Y-74498095D01*
X200244761Y-74450476D01*
X200292380Y-74355238D01*
X200292380Y-74164761D01*
X200244761Y-74069523D01*
X200197142Y-74021904D01*
X200101904Y-73974285D01*
X199911428Y-73974285D01*
X199816190Y-74021904D01*
X199768571Y-74069523D01*
X199720952Y-74164761D01*
D11*
%TO.C,J16*%
X104273193Y-31214095D02*
X105180336Y-31214095D01*
X105361765Y-31274571D01*
X105482717Y-31395523D01*
X105543193Y-31576952D01*
X105543193Y-31697904D01*
X105543193Y-29944095D02*
X105543193Y-30669809D01*
X105543193Y-30306952D02*
X104273193Y-30306952D01*
X104454622Y-30427904D01*
X104575574Y-30548857D01*
X104636050Y-30669809D01*
X104273193Y-28855523D02*
X104273193Y-29097428D01*
X104333670Y-29218380D01*
X104394146Y-29278857D01*
X104575574Y-29399809D01*
X104817479Y-29460285D01*
X105301289Y-29460285D01*
X105422241Y-29399809D01*
X105482717Y-29339333D01*
X105543193Y-29218380D01*
X105543193Y-28976476D01*
X105482717Y-28855523D01*
X105422241Y-28795047D01*
X105301289Y-28734571D01*
X104998908Y-28734571D01*
X104877955Y-28795047D01*
X104817479Y-28855523D01*
X104757003Y-28976476D01*
X104757003Y-29218380D01*
X104817479Y-29339333D01*
X104877955Y-29399809D01*
X104998908Y-29460285D01*
D10*
%TO.C,R3*%
X207372380Y-142666666D02*
X206896190Y-143000000D01*
X207372380Y-143238095D02*
X206372380Y-143238095D01*
X206372380Y-142857142D01*
X206420000Y-142761904D01*
X206467619Y-142714285D01*
X206562857Y-142666666D01*
X206705714Y-142666666D01*
X206800952Y-142714285D01*
X206848571Y-142761904D01*
X206896190Y-142857142D01*
X206896190Y-143238095D01*
X206372380Y-142333333D02*
X206372380Y-141714285D01*
X206753333Y-142047619D01*
X206753333Y-141904761D01*
X206800952Y-141809523D01*
X206848571Y-141761904D01*
X206943809Y-141714285D01*
X207181904Y-141714285D01*
X207277142Y-141761904D01*
X207324761Y-141809523D01*
X207372380Y-141904761D01*
X207372380Y-142190476D01*
X207324761Y-142285714D01*
X207277142Y-142333333D01*
%TO.C,R6*%
X167183333Y-71532380D02*
X166850000Y-71056190D01*
X166611904Y-71532380D02*
X166611904Y-70532380D01*
X166992857Y-70532380D01*
X167088095Y-70580000D01*
X167135714Y-70627619D01*
X167183333Y-70722857D01*
X167183333Y-70865714D01*
X167135714Y-70960952D01*
X167088095Y-71008571D01*
X166992857Y-71056190D01*
X166611904Y-71056190D01*
X168040476Y-70532380D02*
X167850000Y-70532380D01*
X167754761Y-70580000D01*
X167707142Y-70627619D01*
X167611904Y-70770476D01*
X167564285Y-70960952D01*
X167564285Y-71341904D01*
X167611904Y-71437142D01*
X167659523Y-71484761D01*
X167754761Y-71532380D01*
X167945238Y-71532380D01*
X168040476Y-71484761D01*
X168088095Y-71437142D01*
X168135714Y-71341904D01*
X168135714Y-71103809D01*
X168088095Y-71008571D01*
X168040476Y-70960952D01*
X167945238Y-70913333D01*
X167754761Y-70913333D01*
X167659523Y-70960952D01*
X167611904Y-71008571D01*
X167564285Y-71103809D01*
%TO.C,H5V2*%
X90333333Y-112342380D02*
X90333333Y-111342380D01*
X90333333Y-111818571D02*
X90904761Y-111818571D01*
X90904761Y-112342380D02*
X90904761Y-111342380D01*
X91857142Y-111342380D02*
X91380952Y-111342380D01*
X91333333Y-111818571D01*
X91380952Y-111770952D01*
X91476190Y-111723333D01*
X91714285Y-111723333D01*
X91809523Y-111770952D01*
X91857142Y-111818571D01*
X91904761Y-111913809D01*
X91904761Y-112151904D01*
X91857142Y-112247142D01*
X91809523Y-112294761D01*
X91714285Y-112342380D01*
X91476190Y-112342380D01*
X91380952Y-112294761D01*
X91333333Y-112247142D01*
X92190476Y-111342380D02*
X92523809Y-112342380D01*
X92857142Y-111342380D01*
X93142857Y-111437619D02*
X93190476Y-111390000D01*
X93285714Y-111342380D01*
X93523809Y-111342380D01*
X93619047Y-111390000D01*
X93666666Y-111437619D01*
X93714285Y-111532857D01*
X93714285Y-111628095D01*
X93666666Y-111770952D01*
X93095238Y-112342380D01*
X93714285Y-112342380D01*
%TO.C,J6*%
X93822380Y-67333333D02*
X94536666Y-67333333D01*
X94679523Y-67380952D01*
X94774761Y-67476190D01*
X94822380Y-67619047D01*
X94822380Y-67714285D01*
X93822380Y-66428571D02*
X93822380Y-66619047D01*
X93870000Y-66714285D01*
X93917619Y-66761904D01*
X94060476Y-66857142D01*
X94250952Y-66904761D01*
X94631904Y-66904761D01*
X94727142Y-66857142D01*
X94774761Y-66809523D01*
X94822380Y-66714285D01*
X94822380Y-66523809D01*
X94774761Y-66428571D01*
X94727142Y-66380952D01*
X94631904Y-66333333D01*
X94393809Y-66333333D01*
X94298571Y-66380952D01*
X94250952Y-66428571D01*
X94203333Y-66523809D01*
X94203333Y-66714285D01*
X94250952Y-66809523D01*
X94298571Y-66857142D01*
X94393809Y-66904761D01*
%TO.C,J3*%
X161336666Y-35249880D02*
X161336666Y-35964166D01*
X161289047Y-36107023D01*
X161193809Y-36202261D01*
X161050952Y-36249880D01*
X160955714Y-36249880D01*
X161717619Y-35249880D02*
X162336666Y-35249880D01*
X162003333Y-35630833D01*
X162146190Y-35630833D01*
X162241428Y-35678452D01*
X162289047Y-35726071D01*
X162336666Y-35821309D01*
X162336666Y-36059404D01*
X162289047Y-36154642D01*
X162241428Y-36202261D01*
X162146190Y-36249880D01*
X161860476Y-36249880D01*
X161765238Y-36202261D01*
X161717619Y-36154642D01*
%TO.C,H9*%
X64738095Y-78452380D02*
X64738095Y-77452380D01*
X64738095Y-77928571D02*
X65309523Y-77928571D01*
X65309523Y-78452380D02*
X65309523Y-77452380D01*
X65833333Y-78452380D02*
X66023809Y-78452380D01*
X66119047Y-78404761D01*
X66166666Y-78357142D01*
X66261904Y-78214285D01*
X66309523Y-78023809D01*
X66309523Y-77642857D01*
X66261904Y-77547619D01*
X66214285Y-77500000D01*
X66119047Y-77452380D01*
X65928571Y-77452380D01*
X65833333Y-77500000D01*
X65785714Y-77547619D01*
X65738095Y-77642857D01*
X65738095Y-77880952D01*
X65785714Y-77976190D01*
X65833333Y-78023809D01*
X65928571Y-78071428D01*
X66119047Y-78071428D01*
X66214285Y-78023809D01*
X66261904Y-77976190D01*
X66309523Y-77880952D01*
%TO.C,R2*%
X213872380Y-125166666D02*
X213396190Y-125500000D01*
X213872380Y-125738095D02*
X212872380Y-125738095D01*
X212872380Y-125357142D01*
X212920000Y-125261904D01*
X212967619Y-125214285D01*
X213062857Y-125166666D01*
X213205714Y-125166666D01*
X213300952Y-125214285D01*
X213348571Y-125261904D01*
X213396190Y-125357142D01*
X213396190Y-125738095D01*
X212967619Y-124785714D02*
X212920000Y-124738095D01*
X212872380Y-124642857D01*
X212872380Y-124404761D01*
X212920000Y-124309523D01*
X212967619Y-124261904D01*
X213062857Y-124214285D01*
X213158095Y-124214285D01*
X213300952Y-124261904D01*
X213872380Y-124833333D01*
X213872380Y-124214285D01*
%TO.C,C1*%
X181900954Y-53147142D02*
X181853335Y-53194761D01*
X181710478Y-53242380D01*
X181615240Y-53242380D01*
X181472382Y-53194761D01*
X181377144Y-53099523D01*
X181329525Y-53004285D01*
X181281906Y-52813809D01*
X181281906Y-52670952D01*
X181329525Y-52480476D01*
X181377144Y-52385238D01*
X181472382Y-52290000D01*
X181615240Y-52242380D01*
X181710478Y-52242380D01*
X181853335Y-52290000D01*
X181900954Y-52337619D01*
X182853335Y-53242380D02*
X182281906Y-53242380D01*
X182567621Y-53242380D02*
X182567621Y-52242380D01*
X182472382Y-52385238D01*
X182377144Y-52480476D01*
X182281906Y-52528095D01*
%TO.C,J7*%
X85112380Y-53333333D02*
X85826666Y-53333333D01*
X85969523Y-53380952D01*
X86064761Y-53476190D01*
X86112380Y-53619047D01*
X86112380Y-53714285D01*
X85112380Y-52952380D02*
X85112380Y-52285714D01*
X86112380Y-52714285D01*
D11*
%TO.C,J18*%
X146303193Y-31214095D02*
X147210336Y-31214095D01*
X147391765Y-31274571D01*
X147512717Y-31395523D01*
X147573193Y-31576952D01*
X147573193Y-31697904D01*
X147573193Y-29944095D02*
X147573193Y-30669809D01*
X147573193Y-30306952D02*
X146303193Y-30306952D01*
X146484622Y-30427904D01*
X146605574Y-30548857D01*
X146666050Y-30669809D01*
X146847479Y-29218380D02*
X146787003Y-29339333D01*
X146726527Y-29399809D01*
X146605574Y-29460285D01*
X146545098Y-29460285D01*
X146424146Y-29399809D01*
X146363670Y-29339333D01*
X146303193Y-29218380D01*
X146303193Y-28976476D01*
X146363670Y-28855523D01*
X146424146Y-28795047D01*
X146545098Y-28734571D01*
X146605574Y-28734571D01*
X146726527Y-28795047D01*
X146787003Y-28855523D01*
X146847479Y-28976476D01*
X146847479Y-29218380D01*
X146907955Y-29339333D01*
X146968431Y-29399809D01*
X147089384Y-29460285D01*
X147331289Y-29460285D01*
X147452241Y-29399809D01*
X147512717Y-29339333D01*
X147573193Y-29218380D01*
X147573193Y-28976476D01*
X147512717Y-28855523D01*
X147452241Y-28795047D01*
X147331289Y-28734571D01*
X147089384Y-28734571D01*
X146968431Y-28795047D01*
X146907955Y-28855523D01*
X146847479Y-28976476D01*
D10*
%TO.C,H4*%
X183238095Y-36452380D02*
X183238095Y-35452380D01*
X183238095Y-35928571D02*
X183809523Y-35928571D01*
X183809523Y-36452380D02*
X183809523Y-35452380D01*
X184714285Y-35785714D02*
X184714285Y-36452380D01*
X184476190Y-35404761D02*
X184238095Y-36119047D01*
X184857142Y-36119047D01*
%TO.C,R7*%
X185532380Y-69666666D02*
X185056190Y-70000000D01*
X185532380Y-70238095D02*
X184532380Y-70238095D01*
X184532380Y-69857142D01*
X184580000Y-69761904D01*
X184627619Y-69714285D01*
X184722857Y-69666666D01*
X184865714Y-69666666D01*
X184960952Y-69714285D01*
X185008571Y-69761904D01*
X185056190Y-69857142D01*
X185056190Y-70238095D01*
X184532380Y-69333333D02*
X184532380Y-68666666D01*
X185532380Y-69095238D01*
%TO.C,H8*%
X183238095Y-78452380D02*
X183238095Y-77452380D01*
X183238095Y-77928571D02*
X183809523Y-77928571D01*
X183809523Y-78452380D02*
X183809523Y-77452380D01*
X184428571Y-77880952D02*
X184333333Y-77833333D01*
X184285714Y-77785714D01*
X184238095Y-77690476D01*
X184238095Y-77642857D01*
X184285714Y-77547619D01*
X184333333Y-77500000D01*
X184428571Y-77452380D01*
X184619047Y-77452380D01*
X184714285Y-77500000D01*
X184761904Y-77547619D01*
X184809523Y-77642857D01*
X184809523Y-77690476D01*
X184761904Y-77785714D01*
X184714285Y-77833333D01*
X184619047Y-77880952D01*
X184428571Y-77880952D01*
X184333333Y-77928571D01*
X184285714Y-77976190D01*
X184238095Y-78071428D01*
X184238095Y-78261904D01*
X184285714Y-78357142D01*
X184333333Y-78404761D01*
X184428571Y-78452380D01*
X184619047Y-78452380D01*
X184714285Y-78404761D01*
X184761904Y-78357142D01*
X184809523Y-78261904D01*
X184809523Y-78071428D01*
X184761904Y-77976190D01*
X184714285Y-77928571D01*
X184619047Y-77880952D01*
%TO.C,D1*%
X163261904Y-54562380D02*
X163261904Y-53562380D01*
X163500000Y-53562380D01*
X163642857Y-53610000D01*
X163738095Y-53705238D01*
X163785714Y-53800476D01*
X163833333Y-53990952D01*
X163833333Y-54133809D01*
X163785714Y-54324285D01*
X163738095Y-54419523D01*
X163642857Y-54514761D01*
X163500000Y-54562380D01*
X163261904Y-54562380D01*
X164785714Y-54562380D02*
X164214285Y-54562380D01*
X164500000Y-54562380D02*
X164500000Y-53562380D01*
X164404761Y-53705238D01*
X164309523Y-53800476D01*
X164214285Y-53848095D01*
X167548095Y-54242380D02*
X167548095Y-53242380D01*
X168119523Y-54242380D02*
X167690952Y-53670952D01*
X168119523Y-53242380D02*
X167548095Y-53813809D01*
%TO.C,H10*%
X120261904Y-149452380D02*
X120261904Y-148452380D01*
X120261904Y-148928571D02*
X120833333Y-148928571D01*
X120833333Y-149452380D02*
X120833333Y-148452380D01*
X121833333Y-149452380D02*
X121261904Y-149452380D01*
X121547619Y-149452380D02*
X121547619Y-148452380D01*
X121452380Y-148595238D01*
X121357142Y-148690476D01*
X121261904Y-148738095D01*
X122452380Y-148452380D02*
X122547619Y-148452380D01*
X122642857Y-148500000D01*
X122690476Y-148547619D01*
X122738095Y-148642857D01*
X122785714Y-148833333D01*
X122785714Y-149071428D01*
X122738095Y-149261904D01*
X122690476Y-149357142D01*
X122642857Y-149404761D01*
X122547619Y-149452380D01*
X122452380Y-149452380D01*
X122357142Y-149404761D01*
X122309523Y-149357142D01*
X122261904Y-149261904D01*
X122214285Y-149071428D01*
X122214285Y-148833333D01*
X122261904Y-148642857D01*
X122309523Y-148547619D01*
X122357142Y-148500000D01*
X122452380Y-148452380D01*
%TO.C,H7*%
X64738095Y-36452380D02*
X64738095Y-35452380D01*
X64738095Y-35928571D02*
X65309523Y-35928571D01*
X65309523Y-36452380D02*
X65309523Y-35452380D01*
X65690476Y-35452380D02*
X66357142Y-35452380D01*
X65928571Y-36452380D01*
%TO.C,H5V4*%
X168333333Y-111742380D02*
X168333333Y-110742380D01*
X168333333Y-111218571D02*
X168904761Y-111218571D01*
X168904761Y-111742380D02*
X168904761Y-110742380D01*
X169857142Y-110742380D02*
X169380952Y-110742380D01*
X169333333Y-111218571D01*
X169380952Y-111170952D01*
X169476190Y-111123333D01*
X169714285Y-111123333D01*
X169809523Y-111170952D01*
X169857142Y-111218571D01*
X169904761Y-111313809D01*
X169904761Y-111551904D01*
X169857142Y-111647142D01*
X169809523Y-111694761D01*
X169714285Y-111742380D01*
X169476190Y-111742380D01*
X169380952Y-111694761D01*
X169333333Y-111647142D01*
X170190476Y-110742380D02*
X170523809Y-111742380D01*
X170857142Y-110742380D01*
X171619047Y-111075714D02*
X171619047Y-111742380D01*
X171380952Y-110694761D02*
X171142857Y-111409047D01*
X171761904Y-111409047D01*
%TO.C,J2*%
X16155043Y-87691034D02*
X16869329Y-87691034D01*
X17012186Y-87738653D01*
X17107424Y-87833891D01*
X17155043Y-87976748D01*
X17155043Y-88071986D01*
X16250282Y-87262462D02*
X16202663Y-87214843D01*
X16155043Y-87119605D01*
X16155043Y-86881510D01*
X16202663Y-86786272D01*
X16250282Y-86738653D01*
X16345520Y-86691034D01*
X16440758Y-86691034D01*
X16583615Y-86738653D01*
X17155043Y-87310081D01*
X17155043Y-86691034D01*
%TO.C,H5*%
X120738095Y-113452380D02*
X120738095Y-112452380D01*
X120738095Y-112928571D02*
X121309523Y-112928571D01*
X121309523Y-113452380D02*
X121309523Y-112452380D01*
X122261904Y-112452380D02*
X121785714Y-112452380D01*
X121738095Y-112928571D01*
X121785714Y-112880952D01*
X121880952Y-112833333D01*
X122119047Y-112833333D01*
X122214285Y-112880952D01*
X122261904Y-112928571D01*
X122309523Y-113023809D01*
X122309523Y-113261904D01*
X122261904Y-113357142D01*
X122214285Y-113404761D01*
X122119047Y-113452380D01*
X121880952Y-113452380D01*
X121785714Y-113404761D01*
X121738095Y-113357142D01*
D11*
%TO.C,J11*%
X83272863Y-31214095D02*
X84180006Y-31214095D01*
X84361435Y-31274571D01*
X84482387Y-31395523D01*
X84542863Y-31576952D01*
X84542863Y-31697904D01*
X84542863Y-29944095D02*
X84542863Y-30669809D01*
X84542863Y-30306952D02*
X83272863Y-30306952D01*
X83454292Y-30427904D01*
X83575244Y-30548857D01*
X83635720Y-30669809D01*
X84542863Y-28734571D02*
X84542863Y-29460285D01*
X84542863Y-29097428D02*
X83272863Y-29097428D01*
X83454292Y-29218380D01*
X83575244Y-29339333D01*
X83635720Y-29460285D01*
%TO.C,U5*%
X126034523Y-72655579D02*
X127062619Y-72655579D01*
X127183571Y-72595102D01*
X127244047Y-72534626D01*
X127304523Y-72413674D01*
X127304523Y-72171769D01*
X127244047Y-72050817D01*
X127183571Y-71990340D01*
X127062619Y-71929864D01*
X126034523Y-71929864D01*
X126034523Y-70720340D02*
X126034523Y-71325102D01*
X126639285Y-71385579D01*
X126578809Y-71325102D01*
X126518333Y-71204150D01*
X126518333Y-70901769D01*
X126578809Y-70780817D01*
X126639285Y-70720340D01*
X126760238Y-70659864D01*
X127062619Y-70659864D01*
X127183571Y-70720340D01*
X127244047Y-70780817D01*
X127304523Y-70901769D01*
X127304523Y-71204150D01*
X127244047Y-71325102D01*
X127183571Y-71385579D01*
D10*
%TO.C,R5*%
X158872380Y-56666666D02*
X158396190Y-57000000D01*
X158872380Y-57238095D02*
X157872380Y-57238095D01*
X157872380Y-56857142D01*
X157920000Y-56761904D01*
X157967619Y-56714285D01*
X158062857Y-56666666D01*
X158205714Y-56666666D01*
X158300952Y-56714285D01*
X158348571Y-56761904D01*
X158396190Y-56857142D01*
X158396190Y-57238095D01*
X157872380Y-55761904D02*
X157872380Y-56238095D01*
X158348571Y-56285714D01*
X158300952Y-56238095D01*
X158253333Y-56142857D01*
X158253333Y-55904761D01*
X158300952Y-55809523D01*
X158348571Y-55761904D01*
X158443809Y-55714285D01*
X158681904Y-55714285D01*
X158777142Y-55761904D01*
X158824761Y-55809523D01*
X158872380Y-55904761D01*
X158872380Y-56142857D01*
X158824761Y-56238095D01*
X158777142Y-56285714D01*
%TO.C,U7*%
X20778000Y-69890000D02*
X20778000Y-67350000D01*
X48210000Y-64810000D02*
X48210000Y-72430000D01*
X54560000Y-72430000D02*
X53290000Y-72430000D01*
X30430000Y-70525000D02*
X30430000Y-73700000D01*
X30430000Y-73700000D02*
X27890000Y-73700000D01*
X17730000Y-59730000D02*
X53290000Y-59730000D01*
X41225000Y-73700000D02*
X41225000Y-63540000D01*
X48210000Y-72430000D02*
X53290000Y-72430000D01*
X53290000Y-59730000D02*
X53290000Y-77510000D01*
X27890000Y-70525000D02*
X30430000Y-70525000D01*
X31065000Y-73700000D02*
X41225000Y-73700000D01*
X53290000Y-77510000D02*
X17730000Y-77510000D01*
X17730000Y-77510000D02*
X17730000Y-59730000D01*
X53290000Y-64810000D02*
X54560000Y-64810000D01*
X31065000Y-63540000D02*
X31065000Y-73700000D01*
X20778000Y-67350000D02*
X25350000Y-67350000D01*
X25350000Y-67350000D02*
X25350000Y-69890000D01*
X48210000Y-64810000D02*
X53290000Y-64810000D01*
X31065000Y-63540000D02*
X41225000Y-63540000D01*
X25350000Y-69890000D02*
X20778000Y-69890000D01*
X54560000Y-64810000D02*
X54560000Y-72430000D01*
X27890000Y-73700000D02*
X27890000Y-70525000D01*
G36*
X39066000Y-68874000D02*
G01*
X38812000Y-69128000D01*
X38558000Y-68747000D01*
X38812000Y-68493000D01*
X39066000Y-68874000D01*
G37*
D12*
X39066000Y-68874000D02*
X38812000Y-69128000D01*
X38558000Y-68747000D01*
X38812000Y-68493000D01*
X39066000Y-68874000D01*
G36*
X37542000Y-68620000D02*
G01*
X37288000Y-68874000D01*
X37034000Y-68493000D01*
X37288000Y-68239000D01*
X37542000Y-68620000D01*
G37*
X37542000Y-68620000D02*
X37288000Y-68874000D01*
X37034000Y-68493000D01*
X37288000Y-68239000D01*
X37542000Y-68620000D01*
G36*
X38304000Y-68747000D02*
G01*
X38050000Y-69001000D01*
X37796000Y-68620000D01*
X38050000Y-68366000D01*
X38304000Y-68747000D01*
G37*
X38304000Y-68747000D02*
X38050000Y-69001000D01*
X37796000Y-68620000D01*
X38050000Y-68366000D01*
X38304000Y-68747000D01*
G36*
X37923000Y-69128000D02*
G01*
X37669000Y-69382000D01*
X37415000Y-69001000D01*
X37669000Y-68747000D01*
X37923000Y-69128000D01*
G37*
X37923000Y-69128000D02*
X37669000Y-69382000D01*
X37415000Y-69001000D01*
X37669000Y-68747000D01*
X37923000Y-69128000D01*
G36*
X37161000Y-68112000D02*
G01*
X36907000Y-68366000D01*
X36653000Y-67985000D01*
X36907000Y-67731000D01*
X37161000Y-68112000D01*
G37*
X37161000Y-68112000D02*
X36907000Y-68366000D01*
X36653000Y-67985000D01*
X36907000Y-67731000D01*
X37161000Y-68112000D01*
G36*
X39447000Y-68493000D02*
G01*
X39193000Y-68747000D01*
X38939000Y-68366000D01*
X39193000Y-68112000D01*
X39447000Y-68493000D01*
G37*
X39447000Y-68493000D02*
X39193000Y-68747000D01*
X38939000Y-68366000D01*
X39193000Y-68112000D01*
X39447000Y-68493000D01*
G36*
X37923000Y-68239000D02*
G01*
X37669000Y-68493000D01*
X37415000Y-68112000D01*
X37669000Y-67858000D01*
X37923000Y-68239000D01*
G37*
X37923000Y-68239000D02*
X37669000Y-68493000D01*
X37415000Y-68112000D01*
X37669000Y-67858000D01*
X37923000Y-68239000D01*
G36*
X38685000Y-69255000D02*
G01*
X38431000Y-69509000D01*
X38177000Y-69128000D01*
X38431000Y-68874000D01*
X38685000Y-69255000D01*
G37*
X38685000Y-69255000D02*
X38431000Y-69509000D01*
X38177000Y-69128000D01*
X38431000Y-68874000D01*
X38685000Y-69255000D01*
D13*
%TO.C,J6_TeensyPinsUnten1*%
X50765000Y-26330000D02*
X50765000Y-23670000D01*
X27845000Y-26330000D02*
X27845000Y-23670000D01*
X26575000Y-26330000D02*
X25245000Y-26330000D01*
X27845000Y-23670000D02*
X50765000Y-23670000D01*
X27845000Y-26330000D02*
X50765000Y-26330000D01*
X25245000Y-26330000D02*
X25245000Y-25000000D01*
%TO.C,R4*%
X211940000Y-137430000D02*
X212420000Y-137430000D01*
X208580000Y-137430000D02*
X208580000Y-147570000D01*
X212420000Y-147570000D02*
X211940000Y-147570000D01*
X208580000Y-147570000D02*
X209060000Y-147570000D01*
X212420000Y-137430000D02*
X212420000Y-147570000D01*
X209060000Y-137430000D02*
X208580000Y-137430000D01*
D14*
%TO.C,U6*%
X166110000Y-56035000D02*
X173930000Y-56035000D01*
X167070000Y-65945000D02*
X173930000Y-65945000D01*
D13*
%TO.C,J9*%
X119270000Y-82830000D02*
X129490000Y-82830000D01*
X119270000Y-82830000D02*
X119270000Y-80170000D01*
X119270000Y-80170000D02*
X129490000Y-80170000D01*
X129490000Y-82830000D02*
X129490000Y-80170000D01*
X116670000Y-82830000D02*
X116670000Y-81500000D01*
X118000000Y-82830000D02*
X116670000Y-82830000D01*
%TO.C,J4*%
X115250000Y-91050000D02*
X115250000Y-91800000D01*
X111950000Y-91050000D02*
X111950000Y-91800000D01*
X129550000Y-93300000D02*
X128800000Y-93300000D01*
X111950000Y-93300000D02*
X112700000Y-93300000D01*
X111940000Y-91040000D02*
X111940000Y-97010000D01*
X113750000Y-91050000D02*
X111950000Y-91050000D01*
X127750000Y-91800000D02*
X129550000Y-91800000D01*
X111940000Y-97010000D02*
X129560000Y-97010000D01*
X128800000Y-96250000D02*
X120750000Y-96250000D01*
X113750000Y-91800000D02*
X113750000Y-91050000D01*
X129560000Y-91040000D02*
X111940000Y-91040000D01*
X128800000Y-93300000D02*
X128800000Y-96250000D01*
X111950000Y-91800000D02*
X113750000Y-91800000D01*
X112700000Y-96250000D02*
X120750000Y-96250000D01*
X115250000Y-91800000D02*
X126250000Y-91800000D01*
X129560000Y-97010000D02*
X129560000Y-91040000D01*
X112700000Y-93300000D02*
X112700000Y-96250000D01*
X126250000Y-91800000D02*
X126250000Y-91050000D01*
X126250000Y-91050000D02*
X115250000Y-91050000D01*
X111650000Y-90750000D02*
X111650000Y-92000000D01*
X129550000Y-91800000D02*
X129550000Y-91050000D01*
X129550000Y-91050000D02*
X127750000Y-91050000D01*
X112900000Y-90750000D02*
X111650000Y-90750000D01*
X127750000Y-91050000D02*
X127750000Y-91800000D01*
%TO.C,J5*%
X135625000Y-51670000D02*
X136955000Y-51670000D01*
X134355000Y-51670000D02*
X119055000Y-51670000D01*
X134355000Y-54330000D02*
X119055000Y-54330000D01*
X134355000Y-51670000D02*
X134355000Y-54330000D01*
X136955000Y-51670000D02*
X136955000Y-53000000D01*
X119055000Y-51670000D02*
X119055000Y-54330000D01*
%TO.C,JST_TEENSY_5*%
X78860000Y-59245000D02*
X78860000Y-56745000D01*
X66640000Y-56745000D02*
X67690000Y-56745000D01*
X66640000Y-59245000D02*
X66640000Y-56745000D01*
X78860000Y-56745000D02*
X77810000Y-56745000D01*
X67690000Y-56745000D02*
X67690000Y-55755000D01*
X67810000Y-61215000D02*
X77690000Y-61215000D01*
%TO.C,J10*%
X195610000Y-88340000D02*
X195610000Y-85680000D01*
X194340000Y-88340000D02*
X193010000Y-88340000D01*
X193010000Y-88340000D02*
X193010000Y-87010000D01*
X198210000Y-88340000D02*
X198210000Y-85680000D01*
X195610000Y-85680000D02*
X198210000Y-85680000D01*
X195610000Y-88340000D02*
X198210000Y-88340000D01*
%TO.C,R1*%
X205920000Y-119930000D02*
X205920000Y-130070000D01*
X202080000Y-119930000D02*
X202080000Y-130070000D01*
X202560000Y-119930000D02*
X202080000Y-119930000D01*
X205920000Y-130070000D02*
X205440000Y-130070000D01*
X202080000Y-130070000D02*
X202560000Y-130070000D01*
X205440000Y-119930000D02*
X205920000Y-119930000D01*
%TO.C,J1*%
X17660000Y-45290000D02*
X17660000Y-47950000D01*
X50740000Y-45290000D02*
X17660000Y-45290000D01*
X52010000Y-45290000D02*
X53340000Y-45290000D01*
X50740000Y-45290000D02*
X50740000Y-47950000D01*
X53340000Y-45290000D02*
X53340000Y-46620000D01*
X50740000Y-47950000D02*
X17660000Y-47950000D01*
%TO.C,J8*%
X201970000Y-18527500D02*
X181970000Y-18527500D01*
X181970000Y-34457500D02*
X181970000Y-18527500D01*
X201970000Y-34457500D02*
X198010000Y-34457500D01*
X195910000Y-34457500D02*
X188040000Y-34457500D01*
X196970000Y-18067500D02*
X201970000Y-18067500D01*
X181970000Y-18067500D02*
X186970000Y-18067500D01*
X186970000Y-18067500D02*
X196970000Y-18067500D01*
X201970000Y-34457500D02*
X201970000Y-18527500D01*
X185930000Y-34457500D02*
X181970000Y-34457500D01*
%TO.C,J?3=FSR4;6=FSR1*%
X147650000Y-153250000D02*
X147650000Y-154500000D01*
X163750000Y-154300000D02*
X165550000Y-154300000D01*
X148700000Y-158750000D02*
X156750000Y-158750000D01*
X149750000Y-153550000D02*
X147950000Y-153550000D01*
X165560000Y-159510000D02*
X165560000Y-153540000D01*
X147940000Y-159510000D02*
X165560000Y-159510000D01*
X165550000Y-154300000D02*
X165550000Y-153550000D01*
X165550000Y-153550000D02*
X163750000Y-153550000D01*
X165560000Y-153540000D02*
X147940000Y-153540000D01*
X149750000Y-154300000D02*
X149750000Y-153550000D01*
X151250000Y-153550000D02*
X151250000Y-154300000D01*
X164800000Y-158750000D02*
X156750000Y-158750000D01*
X164800000Y-155800000D02*
X164800000Y-158750000D01*
X165550000Y-155800000D02*
X164800000Y-155800000D01*
X162250000Y-154300000D02*
X162250000Y-153550000D01*
X147940000Y-153540000D02*
X147940000Y-159510000D01*
X163750000Y-153550000D02*
X163750000Y-154300000D01*
X151250000Y-154300000D02*
X162250000Y-154300000D01*
X147950000Y-153550000D02*
X147950000Y-154300000D01*
X147950000Y-154300000D02*
X149750000Y-154300000D01*
X148700000Y-155800000D02*
X148700000Y-158750000D01*
X147950000Y-155800000D02*
X148700000Y-155800000D01*
X148900000Y-153250000D02*
X147650000Y-153250000D01*
X162250000Y-153550000D02*
X151250000Y-153550000D01*
D14*
%TO.C,J17*%
X135369670Y-41845000D02*
X135369670Y-38653000D01*
X135369670Y-26045000D02*
X135369670Y-37045000D01*
X117169670Y-18235000D02*
X117169670Y-24224000D01*
X135369670Y-18235000D02*
X135369670Y-24224000D01*
X120569670Y-41921000D02*
X120569670Y-44765000D01*
X120569670Y-44765000D02*
X131969670Y-44765000D01*
X131969670Y-44765000D02*
X131969670Y-41851000D01*
X117169670Y-26045000D02*
X117169670Y-37045000D01*
X135369670Y-41845000D02*
X117169670Y-41845000D01*
X117169670Y-18235000D02*
X135369670Y-18235000D01*
X117169670Y-41845000D02*
X117169670Y-38653000D01*
X116717010Y-25230000D02*
G75*
G03*
X116717010Y-25230000I-143340J0D01*
G01*
D13*
%TO.C,R8*%
X195480000Y-69690000D02*
X195000000Y-69690000D01*
X198840000Y-69690000D02*
X198840000Y-79830000D01*
X198360000Y-69690000D02*
X198840000Y-69690000D01*
X198840000Y-79830000D02*
X198360000Y-79830000D01*
X195000000Y-69690000D02*
X195000000Y-79830000D01*
X195000000Y-79830000D02*
X195480000Y-79830000D01*
D14*
%TO.C,J16*%
X99539670Y-41921000D02*
X99539670Y-44765000D01*
X96139670Y-26045000D02*
X96139670Y-37045000D01*
X114339670Y-41845000D02*
X114339670Y-38653000D01*
X96139670Y-18235000D02*
X96139670Y-24224000D01*
X114339670Y-26045000D02*
X114339670Y-37045000D01*
X96139670Y-18235000D02*
X114339670Y-18235000D01*
X114339670Y-18235000D02*
X114339670Y-24224000D01*
X96139670Y-41845000D02*
X96139670Y-38653000D01*
X110939670Y-44765000D02*
X110939670Y-41851000D01*
X99539670Y-44765000D02*
X110939670Y-44765000D01*
X114339670Y-41845000D02*
X96139670Y-41845000D01*
X95687010Y-25230000D02*
G75*
G03*
X95687010Y-25230000I-143340J0D01*
G01*
D13*
%TO.C,R3*%
X205920000Y-147570000D02*
X205440000Y-147570000D01*
X205920000Y-137430000D02*
X205920000Y-147570000D01*
X202560000Y-137430000D02*
X202080000Y-137430000D01*
X202080000Y-137430000D02*
X202080000Y-147570000D01*
X202080000Y-147570000D02*
X202560000Y-147570000D01*
X205440000Y-137430000D02*
X205920000Y-137430000D01*
%TO.C,R6*%
X162280000Y-72560000D02*
X162280000Y-72080000D01*
X172420000Y-75920000D02*
X172420000Y-75440000D01*
X162280000Y-72080000D02*
X172420000Y-72080000D01*
X172420000Y-72080000D02*
X172420000Y-72560000D01*
X162280000Y-75920000D02*
X172420000Y-75920000D01*
X162280000Y-75440000D02*
X162280000Y-75920000D01*
%TO.C,J6*%
X97970000Y-65670000D02*
X105650000Y-65670000D01*
X105650000Y-68330000D02*
X105650000Y-65670000D01*
X96700000Y-68330000D02*
X95370000Y-68330000D01*
X97970000Y-68330000D02*
X97970000Y-65670000D01*
X95370000Y-68330000D02*
X95370000Y-67000000D01*
X97970000Y-68330000D02*
X105650000Y-68330000D01*
%TO.C,J3*%
X179170000Y-18507500D02*
X159170000Y-18507500D01*
X164170000Y-18047500D02*
X174170000Y-18047500D01*
X179170000Y-34437500D02*
X175210000Y-34437500D01*
X163130000Y-34437500D02*
X159170000Y-34437500D01*
X174170000Y-18047500D02*
X179170000Y-18047500D01*
X159170000Y-18047500D02*
X164170000Y-18047500D01*
X173110000Y-34437500D02*
X165240000Y-34437500D01*
X179170000Y-34437500D02*
X179170000Y-18507500D01*
X159170000Y-34437500D02*
X159170000Y-18507500D01*
%TO.C,R2*%
X211940000Y-119930000D02*
X212420000Y-119930000D01*
X208580000Y-130070000D02*
X209060000Y-130070000D01*
X212420000Y-119930000D02*
X212420000Y-130070000D01*
X212420000Y-130070000D02*
X211940000Y-130070000D01*
X209060000Y-119930000D02*
X208580000Y-119930000D01*
X208580000Y-119930000D02*
X208580000Y-130070000D01*
%TO.C,C1*%
X182547621Y-53995000D02*
X182547621Y-56150000D01*
X183948621Y-54554000D02*
X183948621Y-56150000D01*
X183388621Y-58230000D02*
X183388621Y-60142000D01*
X182788621Y-58230000D02*
X182788621Y-60340000D01*
X184028621Y-54612000D02*
X184028621Y-56150000D01*
X183628621Y-58230000D02*
X183628621Y-60024000D01*
X182627621Y-58230000D02*
X182627621Y-60372000D01*
X183908621Y-58230000D02*
X183908621Y-59854000D01*
X182547621Y-58230000D02*
X182547621Y-60385000D01*
X182667621Y-54015000D02*
X182667621Y-56150000D01*
X182828621Y-58230000D02*
X182828621Y-60331000D01*
X182467621Y-53984000D02*
X182467621Y-56150000D01*
X183308621Y-58230000D02*
X183308621Y-60176000D01*
X183228621Y-54172000D02*
X183228621Y-56150000D01*
X183748621Y-58230000D02*
X183748621Y-59956000D01*
X184628621Y-55195000D02*
X184628621Y-59185000D01*
X182587621Y-58230000D02*
X182587621Y-60379000D01*
X184308621Y-54847000D02*
X184308621Y-56150000D01*
X184228621Y-58230000D02*
X184228621Y-59606000D01*
X183068621Y-58230000D02*
X183068621Y-60264000D01*
X182507621Y-53989000D02*
X182507621Y-56150000D01*
X184828621Y-55476000D02*
X184828621Y-58904000D01*
X184348621Y-58230000D02*
X184348621Y-59495000D01*
X182147621Y-53960000D02*
X182147621Y-60420000D01*
X182307621Y-53968000D02*
X182307621Y-56150000D01*
X183868621Y-58230000D02*
X183868621Y-59880000D01*
X178567380Y-55351000D02*
X179197380Y-55351000D01*
X183428621Y-54256000D02*
X183428621Y-56150000D01*
X183708621Y-54400000D02*
X183708621Y-56150000D01*
X184148621Y-58230000D02*
X184148621Y-59674000D01*
X184268621Y-58230000D02*
X184268621Y-59570000D01*
X183508621Y-54294000D02*
X183508621Y-56150000D01*
X184948621Y-55681000D02*
X184948621Y-58699000D01*
X184268621Y-54810000D02*
X184268621Y-56150000D01*
X185268621Y-56557000D02*
X185268621Y-57823000D01*
X185028621Y-55840000D02*
X185028621Y-58540000D01*
X183588621Y-58230000D02*
X183588621Y-60046000D01*
X183668621Y-54378000D02*
X183668621Y-56150000D01*
X185188621Y-56250000D02*
X185188621Y-58130000D01*
X183108621Y-54129000D02*
X183108621Y-56150000D01*
X184148621Y-54706000D02*
X184148621Y-56150000D01*
X183188621Y-58230000D02*
X183188621Y-60223000D01*
X184228621Y-54774000D02*
X184228621Y-56150000D01*
X182707621Y-54023000D02*
X182707621Y-56150000D01*
X183908621Y-54526000D02*
X183908621Y-56150000D01*
X184988621Y-55758000D02*
X184988621Y-58622000D01*
X183868621Y-54500000D02*
X183868621Y-56150000D01*
X185148621Y-56131000D02*
X185148621Y-58249000D01*
X183548621Y-58230000D02*
X183548621Y-60066000D01*
X184108621Y-54674000D02*
X184108621Y-56150000D01*
X183388621Y-54238000D02*
X183388621Y-56150000D01*
X183948621Y-58230000D02*
X183948621Y-59826000D01*
X182707621Y-58230000D02*
X182707621Y-60357000D01*
X182747621Y-58230000D02*
X182747621Y-60349000D01*
X184668621Y-55246000D02*
X184668621Y-59134000D01*
X182908621Y-54069000D02*
X182908621Y-56150000D01*
X183468621Y-58230000D02*
X183468621Y-60106000D01*
X184428621Y-54966000D02*
X184428621Y-59414000D01*
X182187621Y-53962000D02*
X182187621Y-60418000D01*
X185068621Y-55928000D02*
X185068621Y-58452000D01*
X182988621Y-58230000D02*
X182988621Y-60288000D01*
X184068621Y-58230000D02*
X184068621Y-59738000D01*
X184708621Y-55300000D02*
X184708621Y-59080000D01*
X183468621Y-54274000D02*
X183468621Y-56150000D01*
X183628621Y-54356000D02*
X183628621Y-56150000D01*
X183428621Y-58230000D02*
X183428621Y-60124000D01*
X182868621Y-54059000D02*
X182868621Y-56150000D01*
X185108621Y-56025000D02*
X185108621Y-58355000D01*
X183348621Y-58230000D02*
X183348621Y-60160000D01*
X184868621Y-55540000D02*
X184868621Y-58840000D01*
X184468621Y-55008000D02*
X184468621Y-59372000D01*
X183148621Y-54143000D02*
X183148621Y-56150000D01*
X183268621Y-54188000D02*
X183268621Y-56150000D01*
X183588621Y-54334000D02*
X183588621Y-56150000D01*
X182988621Y-54092000D02*
X182988621Y-56150000D01*
X184548621Y-55098000D02*
X184548621Y-59282000D01*
X183028621Y-58230000D02*
X183028621Y-60276000D01*
X184388621Y-54925000D02*
X184388621Y-59455000D01*
X182507621Y-58230000D02*
X182507621Y-60391000D01*
X183188621Y-54157000D02*
X183188621Y-56150000D01*
X182307621Y-58230000D02*
X182307621Y-60412000D01*
X182828621Y-54049000D02*
X182828621Y-56150000D01*
X182227621Y-53963000D02*
X182227621Y-60417000D01*
X182387621Y-53975000D02*
X182387621Y-56150000D01*
X182427621Y-58230000D02*
X182427621Y-60401000D01*
X184908621Y-55609000D02*
X184908621Y-58771000D01*
X183988621Y-54583000D02*
X183988621Y-56150000D01*
X182627621Y-54008000D02*
X182627621Y-56150000D01*
X183508621Y-58230000D02*
X183508621Y-60086000D01*
X183268621Y-58230000D02*
X183268621Y-60192000D01*
X184108621Y-58230000D02*
X184108621Y-59706000D01*
X184588621Y-55146000D02*
X184588621Y-59234000D01*
X183788621Y-58230000D02*
X183788621Y-59932000D01*
X183148621Y-58230000D02*
X183148621Y-60237000D01*
X183668621Y-58230000D02*
X183668621Y-60002000D01*
X182107621Y-53960000D02*
X182107621Y-60420000D01*
X183708621Y-58230000D02*
X183708621Y-59980000D01*
X182788621Y-54040000D02*
X182788621Y-56150000D01*
X185308621Y-56788000D02*
X185308621Y-57592000D01*
X182267621Y-53966000D02*
X182267621Y-60414000D01*
X183788621Y-54448000D02*
X183788621Y-56150000D01*
X183108621Y-58230000D02*
X183108621Y-60251000D01*
X184308621Y-58230000D02*
X184308621Y-59533000D01*
X183308621Y-54204000D02*
X183308621Y-56150000D01*
X184788621Y-55414000D02*
X184788621Y-58966000D01*
X182868621Y-58230000D02*
X182868621Y-60321000D01*
X182067621Y-53960000D02*
X182067621Y-60420000D01*
X178882380Y-55036000D02*
X178882380Y-55666000D01*
X182908621Y-58230000D02*
X182908621Y-60311000D01*
X183228621Y-58230000D02*
X183228621Y-60208000D01*
X182427621Y-53979000D02*
X182427621Y-56150000D01*
X183828621Y-54474000D02*
X183828621Y-56150000D01*
X185228621Y-56388000D02*
X185228621Y-57992000D01*
X182347621Y-53972000D02*
X182347621Y-56150000D01*
X183348621Y-54220000D02*
X183348621Y-56150000D01*
X182948621Y-58230000D02*
X182948621Y-60300000D01*
X184748621Y-55356000D02*
X184748621Y-59024000D01*
X183988621Y-58230000D02*
X183988621Y-59797000D01*
X184028621Y-58230000D02*
X184028621Y-59768000D01*
X183748621Y-54424000D02*
X183748621Y-56150000D01*
X183828621Y-58230000D02*
X183828621Y-59906000D01*
X184188621Y-58230000D02*
X184188621Y-59640000D01*
X183028621Y-54104000D02*
X183028621Y-56150000D01*
X184508621Y-55053000D02*
X184508621Y-59327000D01*
X182347621Y-58230000D02*
X182347621Y-60408000D01*
X183548621Y-54314000D02*
X183548621Y-56150000D01*
X184188621Y-54740000D02*
X184188621Y-56150000D01*
X182948621Y-54080000D02*
X182948621Y-56150000D01*
X183068621Y-54116000D02*
X183068621Y-56150000D01*
X182467621Y-58230000D02*
X182467621Y-60396000D01*
X184348621Y-54885000D02*
X184348621Y-56150000D01*
X184068621Y-54642000D02*
X184068621Y-56150000D01*
X182747621Y-54031000D02*
X182747621Y-56150000D01*
X182667621Y-58230000D02*
X182667621Y-60365000D01*
X182587621Y-54001000D02*
X182587621Y-56150000D01*
X182387621Y-58230000D02*
X182387621Y-60405000D01*
X185337621Y-57190000D02*
G75*
G03*
X185337621Y-57190000I-3270000J0D01*
G01*
%TO.C,J7*%
X86660000Y-54330000D02*
X86660000Y-53000000D01*
X89260000Y-54330000D02*
X89260000Y-51670000D01*
X87990000Y-54330000D02*
X86660000Y-54330000D01*
X89260000Y-51670000D02*
X107100000Y-51670000D01*
X107100000Y-54330000D02*
X107100000Y-51670000D01*
X89260000Y-54330000D02*
X107100000Y-54330000D01*
D14*
%TO.C,J18*%
X141569670Y-44765000D02*
X152969670Y-44765000D01*
X156369670Y-18235000D02*
X156369670Y-24224000D01*
X138169670Y-18235000D02*
X138169670Y-24224000D01*
X138169670Y-26045000D02*
X138169670Y-37045000D01*
X156369670Y-26045000D02*
X156369670Y-37045000D01*
X156369670Y-41845000D02*
X156369670Y-38653000D01*
X156369670Y-41845000D02*
X138169670Y-41845000D01*
X152969670Y-44765000D02*
X152969670Y-41851000D01*
X138169670Y-41845000D02*
X138169670Y-38653000D01*
X141569670Y-41921000D02*
X141569670Y-44765000D01*
X138169670Y-18235000D02*
X156369670Y-18235000D01*
X137717010Y-25230000D02*
G75*
G03*
X137717010Y-25230000I-143340J0D01*
G01*
D13*
%TO.C,R7*%
X189920000Y-64430000D02*
X189440000Y-64430000D01*
X186560000Y-74570000D02*
X186080000Y-74570000D01*
X189920000Y-74570000D02*
X189920000Y-64430000D01*
X189440000Y-74570000D02*
X189920000Y-74570000D01*
X186080000Y-74570000D02*
X186080000Y-64430000D01*
X186080000Y-64430000D02*
X186560000Y-64430000D01*
%TO.C,D1*%
X166120000Y-53110000D02*
X166120000Y-50870000D01*
X166120000Y-50870000D02*
X161880000Y-50870000D01*
X165280000Y-53110000D02*
X165280000Y-50870000D01*
X165400000Y-53110000D02*
X165400000Y-50870000D01*
X165520000Y-53110000D02*
X165520000Y-50870000D01*
X161880000Y-53110000D02*
X166120000Y-53110000D01*
X166770000Y-51990000D02*
X166120000Y-51990000D01*
X161880000Y-50870000D02*
X161880000Y-53110000D01*
X161230000Y-51990000D02*
X161880000Y-51990000D01*
%TO.C,J2*%
X19032663Y-88687701D02*
X17702663Y-88687701D01*
X20302663Y-86027701D02*
X53382663Y-86027701D01*
X53382663Y-88687701D02*
X53382663Y-86027701D01*
X20302663Y-88687701D02*
X20302663Y-86027701D01*
X20302663Y-88687701D02*
X53382663Y-88687701D01*
X17702663Y-88687701D02*
X17702663Y-87357701D01*
D14*
%TO.C,J11*%
X75139340Y-18235000D02*
X75139340Y-24224000D01*
X75139340Y-26045000D02*
X75139340Y-37045000D01*
X93339340Y-18235000D02*
X93339340Y-24224000D01*
X93339340Y-26045000D02*
X93339340Y-37045000D01*
X89939340Y-44765000D02*
X89939340Y-41851000D01*
X93339340Y-41845000D02*
X75139340Y-41845000D01*
X75139340Y-18235000D02*
X93339340Y-18235000D01*
X75139340Y-41845000D02*
X75139340Y-38653000D01*
X93339340Y-41845000D02*
X93339340Y-38653000D01*
X78539340Y-41921000D02*
X78539340Y-44765000D01*
X78539340Y-44765000D02*
X89939340Y-44765000D01*
X74686680Y-25230000D02*
G75*
G03*
X74686680Y-25230000I-143340J0D01*
G01*
%TO.C,U5*%
X116885000Y-76222960D02*
X116885000Y-68387960D01*
X136575000Y-74987960D02*
X136575000Y-68387960D01*
D13*
%TO.C,R5*%
X153580000Y-61570000D02*
X154060000Y-61570000D01*
X157420000Y-61570000D02*
X156940000Y-61570000D01*
X157420000Y-51430000D02*
X157420000Y-61570000D01*
X156940000Y-51430000D02*
X157420000Y-51430000D01*
X154060000Y-51430000D02*
X153580000Y-51430000D01*
X153580000Y-51430000D02*
X153580000Y-61570000D01*
%TD*%
M02*
