M48
; DRILL file {KiCad (6.0.4)} date Mon Jul 25 16:23:16 2022
; FORMAT={-:-/ absolute / inch / decimal}
; #@! TF.CreationDate,2022-07-25T16:23:16+02:00
; #@! TF.GenerationSoftware,Kicad,Pcbnew,(6.0.4)
; #@! TF.FileFunction,Plated,1,2,PTH
FMAT,2
INCH
; #@! TA.AperFunction,Plated,PTH,ViaDrill
T1C0.0157
; #@! TA.AperFunction,Plated,PTH,ComponentDrill
T2C0.0287
; #@! TA.AperFunction,Plated,PTH,ComponentDrill
T3C0.0299
; #@! TA.AperFunction,Plated,PTH,ComponentDrill
T4C0.0315
; #@! TA.AperFunction,Plated,PTH,ComponentDrill
T5C0.0374
; #@! TA.AperFunction,Plated,PTH,ComponentDrill
T6C0.0394
; #@! TA.AperFunction,Plated,PTH,ComponentDrill
T7C0.0433
; #@! TA.AperFunction,Plated,PTH,ComponentDrill
T8C0.0472
; #@! TA.AperFunction,Plated,PTH,ComponentDrill
T9C0.0512
; #@! TA.AperFunction,Plated,PTH,ComponentDrill
T10C0.0551
%
G90
G05
T1
X2.8937Y-5.4094
X2.9724Y-2.0276
X3.0315Y-2.0276
X3.1693Y-2.0276
X4.4094Y-5.4134
X5.7992Y-3.7835
X5.9252Y-5.8661
X5.9547Y-4.2559
X6.3189Y-5.7087
X6.7169Y-3.0705
X7.0472Y-5.6102
T2
X4.6394Y-2.6661
X4.6394Y-2.9787
X4.7394Y-2.6661
X4.7394Y-2.9787
X4.8394Y-2.6661
X4.8394Y-2.9787
X4.9394Y-2.6661
X4.9394Y-2.9787
X5.0394Y-2.6661
X5.0394Y-2.9787
X5.1394Y-2.6661
X5.1394Y-2.9787
X5.2394Y-2.6661
X5.2394Y-2.9787
X5.3394Y-2.6661
X5.3394Y-2.9787
T3
X6.5626Y-2.2512
X6.5626Y-2.3512
X6.5626Y-2.4512
X6.5626Y-2.5512
X6.8626Y-2.2512
X6.8626Y-2.3512
X6.8626Y-2.4512
X6.8626Y-2.5512
T4
X6.3067Y-2.0469
X6.6067Y-2.0469
X7.1188Y-2.2516
X7.2172Y-2.2516
T5
X4.5079Y-3.6811
X4.6063Y-3.6811
X4.7047Y-3.6811
X4.8031Y-3.6811
X4.9016Y-3.6811
X5.0Y-3.6811
X5.9252Y-6.1417
X6.0236Y-6.1417
X6.122Y-6.1417
X6.2205Y-6.1417
X6.3189Y-6.1417
X6.4173Y-6.1417
T6
X0.7476Y-1.8354
X0.7493Y-3.4393
X0.8476Y-1.8354
X0.8493Y-3.4393
X0.9476Y-1.8354
X0.9493Y-3.4393
X1.0463Y-0.9843
X1.0476Y-1.8354
X1.0493Y-3.4393
X1.1463Y-0.9843
X1.1476Y-1.8354
X1.1493Y-3.4393
X1.2463Y-0.9843
X1.2476Y-1.8354
X1.2493Y-3.4393
X1.3463Y-0.9843
X1.3476Y-1.8354
X1.3493Y-3.4393
X1.4463Y-0.9843
X1.4476Y-1.8354
X1.4493Y-3.4393
X1.5463Y-0.9843
X1.5476Y-1.8354
X1.5493Y-3.4393
X1.6463Y-0.9843
X1.6476Y-1.8354
X1.6493Y-3.4393
X1.7463Y-0.9843
X1.7476Y-1.8354
X1.7493Y-3.4393
X1.8463Y-0.9843
X1.8476Y-1.8354
X1.8493Y-3.4393
X1.9463Y-0.9843
X1.9476Y-1.8354
X1.9493Y-3.4393
X2.0476Y-1.8354
X2.0493Y-3.4393
X3.4642Y-2.0866
X3.5642Y-2.0866
X3.6642Y-2.0866
X3.7642Y-2.0866
X3.8071Y-2.6378
X3.8642Y-2.0866
X3.9071Y-2.6378
X3.9642Y-2.0866
X4.0071Y-2.6378
X4.0642Y-2.0866
X4.1071Y-2.6378
X4.1642Y-2.0866
X4.6457Y-3.2087
X4.7396Y-2.0866
X4.7457Y-3.2087
X4.8396Y-2.0866
X4.8457Y-3.2087
X4.9396Y-2.0866
X4.9457Y-3.2087
X5.0396Y-2.0866
X5.0457Y-3.2087
X5.1396Y-2.0866
X5.2396Y-2.0866
X5.3396Y-2.0866
X7.6512Y-3.4256
X7.7512Y-3.4256
T7
X0.748Y-2.4016
X0.748Y-2.5016
X0.748Y-2.6016
X0.748Y-2.7016
X0.748Y-2.8016
X0.748Y-2.9016
X0.748Y-3.0016
X0.848Y-2.4016
X0.848Y-3.0016
X0.948Y-2.4016
X0.948Y-2.5016
X0.948Y-2.6016
X0.948Y-2.7016
X0.948Y-2.8016
X0.948Y-2.9016
X0.948Y-3.0016
X1.048Y-2.4016
X1.048Y-2.5016
X1.048Y-2.6016
X1.048Y-2.7016
X1.048Y-2.8016
X1.048Y-2.9016
X1.048Y-3.0016
X1.148Y-2.4016
X1.148Y-3.0016
X1.248Y-2.4016
X1.248Y-3.0016
X1.348Y-2.4016
X1.348Y-3.0016
X1.448Y-2.4016
X1.448Y-3.0016
X1.548Y-2.4016
X1.548Y-3.0016
X1.648Y-2.4016
X1.648Y-3.0016
X1.748Y-2.4016
X1.748Y-3.0016
X1.848Y-2.4016
X1.848Y-3.0016
X1.948Y-2.4016
X1.948Y-2.9016
X1.948Y-3.0016
X2.048Y-2.4016
X2.048Y-3.0016
T8
X6.122Y-1.9744
X6.122Y-2.4744
X6.3386Y-2.9134
X6.8386Y-2.9134
X7.4016Y-2.4862
X7.4016Y-2.9862
X7.7528Y-2.6933
X7.7528Y-3.1933
X8.0315Y-4.6713
X8.0315Y-5.1713
X8.0315Y-5.3602
X8.0315Y-5.8602
X8.2874Y-4.6713
X8.2874Y-5.1713
X8.2874Y-5.3602
X8.2874Y-5.8602
T9
X6.365Y-1.2223
X6.4634Y-0.8282
X6.4634Y-1.3208
X6.6602Y-1.2223
X6.8571Y-1.3208
X6.8576Y-0.8286
X6.9555Y-1.2223
X7.2626Y-1.2231
X7.361Y-0.829
X7.361Y-1.3216
X7.5579Y-1.2231
X7.7547Y-1.3216
X7.7552Y-0.8294
X7.8531Y-1.2231
T10
X2.997Y-0.9917
X2.997Y-1.4917
X3.636Y-0.9917
X3.636Y-1.4917
X3.8238Y-0.9917
X3.8238Y-1.4917
X4.4628Y-0.9917
X4.4628Y-1.4917
X4.6518Y-0.9917
X4.6518Y-1.4917
X5.2907Y-0.9917
X5.2907Y-1.4917
X5.4785Y-0.9917
X5.4785Y-1.4917
X6.1175Y-0.9917
X6.1175Y-1.4917
T0
M30
