%TF.GenerationSoftware,KiCad,Pcbnew,(6.0.7)*%
%TF.CreationDate,2022-09-07T14:12:01+02:00*%
%TF.ProjectId,Lunchbox_Sampler_FSR_PCB,4c756e63-6862-46f7-985f-53616d706c65,rev?*%
%TF.SameCoordinates,Original*%
%TF.FileFunction,Copper,L1,Top*%
%TF.FilePolarity,Positive*%
%FSLAX46Y46*%
G04 Gerber Fmt 4.6, Leading zero omitted, Abs format (unit mm)*
G04 Created by KiCad (PCBNEW (6.0.7)) date 2022-09-07 14:12:01*
%MOMM*%
%LPD*%
G01*
G04 APERTURE LIST*
G04 Aperture macros list*
%AMRoundRect*
0 Rectangle with rounded corners*
0 $1 Rounding radius*
0 $2 $3 $4 $5 $6 $7 $8 $9 X,Y pos of 4 corners*
0 Add a 4 corners polygon primitive as box body*
4,1,4,$2,$3,$4,$5,$6,$7,$8,$9,$2,$3,0*
0 Add four circle primitives for the rounded corners*
1,1,$1+$1,$2,$3*
1,1,$1+$1,$4,$5*
1,1,$1+$1,$6,$7*
1,1,$1+$1,$8,$9*
0 Add four rect primitives between the rounded corners*
20,1,$1+$1,$2,$3,$4,$5,0*
20,1,$1+$1,$4,$5,$6,$7,0*
20,1,$1+$1,$6,$7,$8,$9,0*
20,1,$1+$1,$8,$9,$2,$3,0*%
G04 Aperture macros list end*
%TA.AperFunction,SMDPad,CuDef*%
%ADD10R,5.000000X10.000000*%
%TD*%
%TA.AperFunction,ComponentPad*%
%ADD11C,2.400000*%
%TD*%
%TA.AperFunction,ComponentPad*%
%ADD12O,2.400000X2.400000*%
%TD*%
%TA.AperFunction,ComponentPad*%
%ADD13RoundRect,0.250000X-0.600000X-1.000000X0.600000X-1.000000X0.600000X1.000000X-0.600000X1.000000X0*%
%TD*%
%TA.AperFunction,ComponentPad*%
%ADD14O,1.700000X2.500000*%
%TD*%
%TA.AperFunction,ViaPad*%
%ADD15C,2.000000*%
%TD*%
%TA.AperFunction,Conductor*%
%ADD16C,1.000000*%
%TD*%
G04 APERTURE END LIST*
D10*
%TO.P,H13,1,1*%
%TO.N,Net-(H13-Pad1)*%
X151000000Y-115600000D03*
%TD*%
%TO.P,H14,1,1*%
%TO.N,Net-(H14-Pad1)*%
X190000000Y-115100000D03*
%TD*%
%TO.P,H5V1,1,1*%
%TO.N,Net-(H5V1-Pad1)*%
X53500000Y-115500000D03*
%TD*%
D11*
%TO.P,R4,1*%
%TO.N,GND*%
X210500000Y-136150000D03*
D12*
%TO.P,R4,2*%
%TO.N,Net-(H14-Pad1)*%
X210500000Y-148850000D03*
%TD*%
D10*
%TO.P,H12,1,1*%
%TO.N,Net-(H12-Pad1)*%
X112000000Y-115600000D03*
%TD*%
%TO.P,H5V3,1,1*%
%TO.N,Net-(H5V1-Pad1)*%
X131000000Y-115600000D03*
%TD*%
%TO.P,H11,1,1*%
%TO.N,Net-(H11-Pad1)*%
X73400000Y-115500000D03*
%TD*%
D11*
%TO.P,R1,1*%
%TO.N,GND*%
X204000000Y-118650000D03*
D12*
%TO.P,R1,2*%
%TO.N,Net-(H13-Pad1)*%
X204000000Y-131350000D03*
%TD*%
D13*
%TO.P,J?3=FSR4;6=FSR1,1,1*%
%TO.N,GND*%
X150500000Y-156000000D03*
D14*
%TO.P,J?3=FSR4;6=FSR1,2,2*%
%TO.N,Net-(H5V1-Pad1)*%
X153000000Y-156000000D03*
%TO.P,J?3=FSR4;6=FSR1,3,3*%
%TO.N,Net-(H14-Pad1)*%
X155500000Y-156000000D03*
%TO.P,J?3=FSR4;6=FSR1,4,4*%
%TO.N,Net-(H13-Pad1)*%
X158000000Y-156000000D03*
%TO.P,J?3=FSR4;6=FSR1,5,5*%
%TO.N,Net-(H12-Pad1)*%
X160500000Y-156000000D03*
%TO.P,J?3=FSR4;6=FSR1,6,6*%
%TO.N,Net-(H11-Pad1)*%
X163000000Y-156000000D03*
%TD*%
D11*
%TO.P,R3,1*%
%TO.N,GND*%
X204000000Y-136150000D03*
D12*
%TO.P,R3,2*%
%TO.N,Net-(H12-Pad1)*%
X204000000Y-148850000D03*
%TD*%
D10*
%TO.P,H5V2,1,1*%
%TO.N,Net-(H5V1-Pad1)*%
X92000000Y-115700000D03*
%TD*%
D11*
%TO.P,R2,1*%
%TO.N,GND*%
X210500000Y-118650000D03*
D12*
%TO.P,R2,2*%
%TO.N,Net-(H11-Pad1)*%
X210500000Y-131350000D03*
%TD*%
D10*
%TO.P,H5V4,1,1*%
%TO.N,Net-(H5V1-Pad1)*%
X170000000Y-115100000D03*
%TD*%
D15*
%TO.N,Net-(H11-Pad1)*%
X171320000Y-151000000D03*
X81280000Y-137160000D03*
%TO.N,Net-(H12-Pad1)*%
X160500000Y-146160000D03*
X121920000Y-137160000D03*
%TO.N,Net-(H13-Pad1)*%
X157480000Y-109220000D03*
X179000000Y-142500000D03*
%TO.N,GND*%
X147320000Y-144780000D03*
%TD*%
D16*
%TO.N,Net-(H11-Pad1)*%
X81280000Y-137160000D02*
X73500000Y-129380000D01*
X73500000Y-129380000D02*
X73500000Y-115600000D01*
%TO.N,Net-(H12-Pad1)*%
X112000000Y-115600000D02*
X112000000Y-127240000D01*
X112000000Y-127240000D02*
X121920000Y-137160000D01*
%TO.N,Net-(H11-Pad1)*%
X171320000Y-151000000D02*
X166320000Y-156000000D01*
X166320000Y-156000000D02*
X163000000Y-156000000D01*
%TO.N,Net-(H12-Pad1)*%
X160500000Y-146160000D02*
X160500000Y-156000000D01*
%TO.N,Net-(H14-Pad1)*%
X210500000Y-147110000D02*
X210500000Y-148850000D01*
X179000000Y-139000000D02*
X174500000Y-143500000D01*
X156220000Y-143500000D02*
X155500000Y-144220000D01*
X179000000Y-139000000D02*
X182000000Y-142000000D01*
X205390000Y-142000000D02*
X210500000Y-147110000D01*
X179000000Y-117100000D02*
X181000000Y-115100000D01*
X188500000Y-115100000D02*
X190000000Y-115100000D01*
X182000000Y-142000000D02*
X205390000Y-142000000D01*
X155500000Y-144220000D02*
X155500000Y-156000000D01*
X174500000Y-143500000D02*
X156220000Y-143500000D01*
X179000000Y-139000000D02*
X179000000Y-117100000D01*
X181000000Y-115100000D02*
X190000000Y-115100000D01*
%TO.N,Net-(H5V1-Pad1)*%
X53500000Y-115500000D02*
X53500000Y-138900000D01*
X153300000Y-139700000D02*
X150800000Y-142200000D01*
X131000000Y-139400000D02*
X133800000Y-142200000D01*
X53500000Y-138900000D02*
X56800000Y-142200000D01*
X92000000Y-115700000D02*
X92000000Y-140400000D01*
X92000000Y-140400000D02*
X93800000Y-142200000D01*
X153000000Y-144400000D02*
X150800000Y-142200000D01*
X168300000Y-139700000D02*
X153300000Y-139700000D01*
X56800000Y-142200000D02*
X93800000Y-142200000D01*
X153000000Y-156000000D02*
X153000000Y-144400000D01*
X93800000Y-142200000D02*
X150800000Y-142200000D01*
X170000000Y-115100000D02*
X170000000Y-138000000D01*
X170000000Y-138000000D02*
X168300000Y-139700000D01*
X131000000Y-115600000D02*
X131000000Y-139400000D01*
%TO.N,Net-(H13-Pad1)*%
X157380000Y-109220000D02*
X151000000Y-115600000D01*
X179000000Y-142500000D02*
X179000000Y-158500000D01*
X158000000Y-158270000D02*
X158000000Y-156000000D01*
X179000000Y-158500000D02*
X177500000Y-160000000D01*
X177500000Y-160000000D02*
X159730000Y-160000000D01*
X159730000Y-160000000D02*
X158000000Y-158270000D01*
X157480000Y-109220000D02*
X157380000Y-109220000D01*
%TO.N,GND*%
X150500000Y-156000000D02*
X150500000Y-147960000D01*
X150500000Y-147960000D02*
X147320000Y-144780000D01*
%TD*%
%TA.AperFunction,Conductor*%
%TO.N,GND*%
G36*
X218003231Y-108020689D02*
G01*
X218166651Y-108080169D01*
X218311948Y-108175733D01*
X218431290Y-108302228D01*
X218518244Y-108452836D01*
X218568121Y-108619438D01*
X218579500Y-108749500D01*
X218579500Y-159250500D01*
X218559311Y-159423231D01*
X218499831Y-159586651D01*
X218404267Y-159731948D01*
X218277772Y-159851290D01*
X218127164Y-159938244D01*
X217960562Y-159988121D01*
X217830500Y-159999500D01*
X181646736Y-159999500D01*
X181474005Y-159979311D01*
X181310585Y-159919831D01*
X181165288Y-159824267D01*
X181045946Y-159697772D01*
X180958992Y-159547164D01*
X180909115Y-159380562D01*
X180899003Y-159206950D01*
X180919820Y-159069961D01*
X180920494Y-159067247D01*
X180925971Y-159045197D01*
X180935278Y-159011177D01*
X180957309Y-158937511D01*
X180961248Y-158911308D01*
X180965783Y-158891021D01*
X180969359Y-158870530D01*
X180975745Y-158844823D01*
X180983575Y-158768396D01*
X180988000Y-158733375D01*
X180995489Y-158683563D01*
X180995490Y-158683551D01*
X180999428Y-158657358D01*
X180999786Y-158611754D01*
X180999851Y-158609538D01*
X181000500Y-158603210D01*
X181000500Y-158523758D01*
X181000523Y-158517878D01*
X181001498Y-158393743D01*
X181001498Y-158393731D01*
X181001652Y-158374067D01*
X181000643Y-158366556D01*
X181000500Y-158362002D01*
X181000500Y-144741537D01*
X181020689Y-144568806D01*
X181080169Y-144405386D01*
X181175733Y-144260089D01*
X181302228Y-144140747D01*
X181452836Y-144053793D01*
X181619438Y-144003916D01*
X181808275Y-143994847D01*
X181816452Y-143995491D01*
X181842642Y-143999428D01*
X181876695Y-143999696D01*
X181888264Y-143999787D01*
X181890458Y-143999852D01*
X181896790Y-144000500D01*
X181976176Y-144000500D01*
X181982060Y-144000523D01*
X182125933Y-144001653D01*
X182133451Y-144000643D01*
X182138009Y-144000500D01*
X204251119Y-144000500D01*
X204423850Y-144020689D01*
X204587270Y-144080169D01*
X204732567Y-144175733D01*
X204780742Y-144219877D01*
X205602669Y-145041804D01*
X205710532Y-145178220D01*
X205784029Y-145335833D01*
X205819196Y-145506147D01*
X205814138Y-145679981D01*
X205769127Y-145847962D01*
X205686591Y-146001036D01*
X205570978Y-146130949D01*
X205428522Y-146230698D01*
X205266901Y-146294905D01*
X205094830Y-146320110D01*
X204921585Y-146304953D01*
X204847193Y-146285564D01*
X204844344Y-146284663D01*
X204659085Y-146226073D01*
X204533569Y-146202470D01*
X204361248Y-146170065D01*
X204361241Y-146170064D01*
X204339081Y-146165897D01*
X204014166Y-146144601D01*
X203991635Y-146145841D01*
X203991634Y-146145841D01*
X203711570Y-146161254D01*
X203711564Y-146161255D01*
X203689045Y-146162494D01*
X203547695Y-146187545D01*
X203390631Y-146215380D01*
X203390627Y-146215381D01*
X203368429Y-146219315D01*
X203056961Y-146314244D01*
X203036337Y-146323362D01*
X203036331Y-146323364D01*
X202960766Y-146356771D01*
X202759153Y-146445903D01*
X202575339Y-146555260D01*
X202539884Y-146576354D01*
X202479319Y-146612386D01*
X202461461Y-146626163D01*
X202461460Y-146626164D01*
X202260889Y-146780904D01*
X202221513Y-146811282D01*
X201989469Y-147039710D01*
X201786548Y-147294360D01*
X201615690Y-147571544D01*
X201479369Y-147867247D01*
X201472459Y-147888703D01*
X201472458Y-147888707D01*
X201463915Y-147915236D01*
X201379560Y-148177185D01*
X201317709Y-148496870D01*
X201294712Y-148821669D01*
X201295833Y-148844188D01*
X201295833Y-148844192D01*
X201298533Y-148898420D01*
X201310902Y-149146879D01*
X201314721Y-149169106D01*
X201314722Y-149169112D01*
X201325391Y-149231199D01*
X201366045Y-149467789D01*
X201372511Y-149489409D01*
X201372511Y-149489410D01*
X201458786Y-149777893D01*
X201488935Y-149949167D01*
X201478773Y-150122777D01*
X201428848Y-150289363D01*
X201341850Y-150439946D01*
X201222471Y-150566407D01*
X201077146Y-150661928D01*
X200913710Y-150721361D01*
X200740973Y-150741500D01*
X200568247Y-150721260D01*
X200404845Y-150661733D01*
X200279029Y-150581913D01*
X200232315Y-150545284D01*
X200232298Y-150545272D01*
X200215328Y-150531966D01*
X200036858Y-150422600D01*
X199938697Y-150362447D01*
X199938695Y-150362446D01*
X199920291Y-150351168D01*
X199606430Y-150205478D01*
X199277903Y-150096828D01*
X199256782Y-150092454D01*
X198960192Y-150031033D01*
X198960189Y-150031033D01*
X198939065Y-150026658D01*
X198917579Y-150024740D01*
X198917576Y-150024740D01*
X198841925Y-150017988D01*
X198634767Y-149999500D01*
X198411811Y-149999500D01*
X198401059Y-150000120D01*
X198401058Y-150000120D01*
X198176083Y-150013092D01*
X198176079Y-150013092D01*
X198154547Y-150014334D01*
X197813672Y-150073826D01*
X197792983Y-150079954D01*
X197792976Y-150079956D01*
X197664532Y-150118003D01*
X197481894Y-150172103D01*
X197462047Y-150180569D01*
X197462040Y-150180571D01*
X197206981Y-150289363D01*
X197163611Y-150307862D01*
X196863041Y-150479304D01*
X196845646Y-150492082D01*
X196601553Y-150671386D01*
X196601548Y-150671390D01*
X196584168Y-150684157D01*
X196568372Y-150698835D01*
X196568369Y-150698838D01*
X196518180Y-150745477D01*
X196330688Y-150919705D01*
X196105962Y-151182826D01*
X195912967Y-151470033D01*
X195903071Y-151489206D01*
X195771884Y-151743375D01*
X195754261Y-151777518D01*
X195631950Y-152101207D01*
X195547652Y-152436810D01*
X195544835Y-152458205D01*
X195544834Y-152458212D01*
X195511016Y-152715094D01*
X195502487Y-152779876D01*
X195502148Y-152801442D01*
X195502148Y-152801444D01*
X195498447Y-153036986D01*
X195497051Y-153125861D01*
X195531419Y-153470177D01*
X195605133Y-153808261D01*
X195612122Y-153828674D01*
X195612123Y-153828678D01*
X195628963Y-153877864D01*
X195717217Y-154135633D01*
X195726505Y-154155106D01*
X195726508Y-154155113D01*
X195856899Y-154428482D01*
X195866186Y-154447952D01*
X196050064Y-154741079D01*
X196063549Y-154757911D01*
X196063554Y-154757918D01*
X196252925Y-154994291D01*
X196266415Y-155011129D01*
X196512371Y-155254523D01*
X196784672Y-155468034D01*
X196803070Y-155479308D01*
X197058257Y-155635686D01*
X197079709Y-155648832D01*
X197393570Y-155794522D01*
X197722097Y-155903172D01*
X197743217Y-155907546D01*
X197743218Y-155907546D01*
X198039808Y-155968967D01*
X198039811Y-155968967D01*
X198060935Y-155973342D01*
X198082421Y-155975260D01*
X198082424Y-155975260D01*
X198157464Y-155981957D01*
X198365233Y-156000500D01*
X198588189Y-156000500D01*
X198613874Y-155999019D01*
X198823917Y-155986908D01*
X198823921Y-155986908D01*
X198845453Y-155985666D01*
X199186328Y-155926174D01*
X199207017Y-155920046D01*
X199207024Y-155920044D01*
X199335468Y-155881997D01*
X199518106Y-155827897D01*
X199537953Y-155819431D01*
X199537960Y-155819429D01*
X199816536Y-155700606D01*
X199836389Y-155692138D01*
X200136959Y-155520696D01*
X200197802Y-155476002D01*
X200398447Y-155328614D01*
X200398452Y-155328610D01*
X200415832Y-155315843D01*
X200669312Y-155080295D01*
X200894038Y-154817174D01*
X201087033Y-154529967D01*
X201125220Y-154455981D01*
X201235844Y-154241654D01*
X201235847Y-154241647D01*
X201245739Y-154222482D01*
X201368050Y-153898793D01*
X201397858Y-153780123D01*
X201447090Y-153584124D01*
X201447091Y-153584119D01*
X201452348Y-153563190D01*
X201455166Y-153541788D01*
X201494697Y-153241517D01*
X201494698Y-153241510D01*
X201497513Y-153220124D01*
X201502949Y-152874139D01*
X201481136Y-152655603D01*
X201470725Y-152551302D01*
X201470725Y-152551301D01*
X201468581Y-152529823D01*
X201394867Y-152191739D01*
X201299546Y-151913327D01*
X201262697Y-151743375D01*
X201266036Y-151569500D01*
X201309383Y-151401081D01*
X201390401Y-151247199D01*
X201504724Y-151116149D01*
X201646187Y-151014996D01*
X201807164Y-150949193D01*
X201978977Y-150922288D01*
X202152364Y-150935731D01*
X202317977Y-150988797D01*
X202430992Y-151053826D01*
X202432792Y-151055276D01*
X202709078Y-151227583D01*
X202729499Y-151237127D01*
X202729506Y-151237131D01*
X202983627Y-151355900D01*
X203004063Y-151365451D01*
X203025496Y-151372477D01*
X203292040Y-151459855D01*
X203292046Y-151459857D01*
X203313474Y-151466881D01*
X203335594Y-151471281D01*
X203335598Y-151471282D01*
X203415393Y-151487154D01*
X203632830Y-151530405D01*
X203655335Y-151532117D01*
X203655336Y-151532117D01*
X203677133Y-151533775D01*
X203957505Y-151555102D01*
X203980050Y-151554098D01*
X203980052Y-151554098D01*
X204182139Y-151545098D01*
X204282795Y-151540615D01*
X204305045Y-151536912D01*
X204305051Y-151536911D01*
X204442697Y-151514000D01*
X204603989Y-151487154D01*
X204916434Y-151395493D01*
X204937159Y-151386589D01*
X205194871Y-151275867D01*
X205194876Y-151275864D01*
X205215604Y-151266959D01*
X205497165Y-151103415D01*
X205718783Y-150936111D01*
X205739037Y-150920821D01*
X205739039Y-150920820D01*
X205757040Y-150907230D01*
X205991464Y-150681245D01*
X206197040Y-150428733D01*
X206342176Y-150198708D01*
X206358750Y-150172440D01*
X206358753Y-150172435D01*
X206370792Y-150153354D01*
X206510202Y-149859095D01*
X206537999Y-149775777D01*
X206611817Y-149618313D01*
X206719958Y-149482118D01*
X206856593Y-149374532D01*
X207014355Y-149301357D01*
X207184741Y-149266537D01*
X207358564Y-149271949D01*
X207526453Y-149317301D01*
X207679358Y-149400149D01*
X207809036Y-149516026D01*
X207908494Y-149658686D01*
X207951883Y-149755419D01*
X207952878Y-149758137D01*
X207959341Y-149779749D01*
X208089439Y-150078242D01*
X208133595Y-150153354D01*
X208230712Y-150318555D01*
X208254455Y-150358944D01*
X208268133Y-150376866D01*
X208268136Y-150376871D01*
X208321062Y-150446220D01*
X208451998Y-150617788D01*
X208679208Y-150851025D01*
X208932792Y-151055276D01*
X209209078Y-151227583D01*
X209229499Y-151237127D01*
X209229506Y-151237131D01*
X209483627Y-151355900D01*
X209504063Y-151365451D01*
X209525496Y-151372477D01*
X209792040Y-151459855D01*
X209792046Y-151459857D01*
X209813474Y-151466881D01*
X209835594Y-151471281D01*
X209835598Y-151471282D01*
X209915393Y-151487154D01*
X210132830Y-151530405D01*
X210155335Y-151532117D01*
X210155336Y-151532117D01*
X210177133Y-151533775D01*
X210457505Y-151555102D01*
X210480050Y-151554098D01*
X210480052Y-151554098D01*
X210682139Y-151545098D01*
X210782795Y-151540615D01*
X210805045Y-151536912D01*
X210805051Y-151536911D01*
X210942697Y-151514000D01*
X211103989Y-151487154D01*
X211416434Y-151395493D01*
X211437159Y-151386589D01*
X211694871Y-151275867D01*
X211694876Y-151275864D01*
X211715604Y-151266959D01*
X211997165Y-151103415D01*
X212218783Y-150936111D01*
X212239037Y-150920821D01*
X212239039Y-150920820D01*
X212257040Y-150907230D01*
X212491464Y-150681245D01*
X212697040Y-150428733D01*
X212842176Y-150198708D01*
X212858750Y-150172440D01*
X212858753Y-150172435D01*
X212870792Y-150153354D01*
X213010202Y-149859095D01*
X213044791Y-149755419D01*
X213106116Y-149571606D01*
X213106118Y-149571597D01*
X213113251Y-149550218D01*
X213121635Y-149509195D01*
X213160850Y-149317301D01*
X213178446Y-149231199D01*
X213204843Y-148906658D01*
X213205436Y-148850000D01*
X213185841Y-148524977D01*
X213127342Y-148204663D01*
X213030784Y-147893696D01*
X213018925Y-147867247D01*
X212906802Y-147617178D01*
X212906799Y-147617173D01*
X212897567Y-147596582D01*
X212729621Y-147317624D01*
X212636935Y-147198778D01*
X212546631Y-147050155D01*
X212493035Y-146884712D01*
X212487268Y-146850944D01*
X212485601Y-146827407D01*
X212480027Y-146801516D01*
X212477093Y-146780904D01*
X212473197Y-146760480D01*
X212470085Y-146734186D01*
X212450389Y-146659901D01*
X212442153Y-146625594D01*
X212431552Y-146576354D01*
X212431549Y-146576344D01*
X212425975Y-146550453D01*
X212416808Y-146525604D01*
X212411011Y-146505652D01*
X212404267Y-146485954D01*
X212397478Y-146460348D01*
X212387153Y-146435964D01*
X212387150Y-146435956D01*
X212367509Y-146389572D01*
X212354522Y-146356771D01*
X212327920Y-146284663D01*
X212315348Y-146261362D01*
X212306798Y-146242425D01*
X212297337Y-146223856D01*
X212287011Y-146199473D01*
X212269306Y-146170065D01*
X212247382Y-146133649D01*
X212229904Y-146103008D01*
X212193393Y-146035340D01*
X212177654Y-146014031D01*
X212166522Y-145996490D01*
X212154552Y-145979459D01*
X212140889Y-145956764D01*
X212092365Y-145897161D01*
X212070760Y-145869307D01*
X212040816Y-145828767D01*
X212040815Y-145828766D01*
X212025078Y-145807460D01*
X211993057Y-145774932D01*
X211991572Y-145773357D01*
X211987547Y-145768413D01*
X211931364Y-145712230D01*
X211927222Y-145708055D01*
X211840146Y-145619601D01*
X211826334Y-145605570D01*
X211820305Y-145600969D01*
X211816985Y-145597851D01*
X206830539Y-140611405D01*
X206818207Y-140598779D01*
X206758079Y-140535748D01*
X206758076Y-140535746D01*
X206739801Y-140516588D01*
X206719011Y-140500199D01*
X206719005Y-140500193D01*
X206679435Y-140468999D01*
X206652244Y-140446505D01*
X206614204Y-140413496D01*
X206594209Y-140396145D01*
X206571965Y-140381783D01*
X206555337Y-140369298D01*
X206538123Y-140357599D01*
X206517320Y-140341199D01*
X206450870Y-140302602D01*
X206420776Y-140284160D01*
X206378465Y-140256840D01*
X206378461Y-140256838D01*
X206356211Y-140242471D01*
X206332157Y-140231382D01*
X206313925Y-140221359D01*
X206295241Y-140212206D01*
X206272346Y-140198907D01*
X206247809Y-140188968D01*
X206247802Y-140188965D01*
X206201125Y-140170059D01*
X206168737Y-140156044D01*
X206098933Y-140123864D01*
X206073561Y-140116276D01*
X206054111Y-140108927D01*
X206034318Y-140102496D01*
X206009768Y-140092552D01*
X205935185Y-140074026D01*
X205901129Y-140064708D01*
X205891520Y-140061834D01*
X205731817Y-139992995D01*
X205592295Y-139889182D01*
X205480475Y-139755990D01*
X205402384Y-139600602D01*
X205362234Y-139431393D01*
X205362189Y-139257486D01*
X205402250Y-139088256D01*
X205433931Y-139018820D01*
X205436404Y-139010041D01*
X209060589Y-139010041D01*
X209061083Y-139010595D01*
X209070197Y-139017179D01*
X209074147Y-139019175D01*
X209363655Y-139145658D01*
X209402787Y-139160211D01*
X209704652Y-139253655D01*
X209745168Y-139263757D01*
X210055564Y-139322967D01*
X210096980Y-139328493D01*
X210412007Y-139352733D01*
X210453794Y-139353609D01*
X210769578Y-139342581D01*
X210811176Y-139338795D01*
X211123769Y-139292636D01*
X211164682Y-139284238D01*
X211470196Y-139203517D01*
X211509915Y-139190611D01*
X211804506Y-139076347D01*
X211842558Y-139059086D01*
X211903920Y-139027007D01*
X211934791Y-139005974D01*
X211910030Y-138974244D01*
X210530847Y-137595061D01*
X210499471Y-137570253D01*
X210493220Y-137573624D01*
X210476879Y-137587335D01*
X209084828Y-138979386D01*
X209060589Y-139010041D01*
X205436404Y-139010041D01*
X205436818Y-139008573D01*
X205410030Y-138974244D01*
X204030847Y-137595061D01*
X203999471Y-137570253D01*
X203993220Y-137573624D01*
X203976879Y-137587335D01*
X202584828Y-138979386D01*
X202559532Y-139011379D01*
X202571660Y-139056641D01*
X202596865Y-139228712D01*
X202581709Y-139401958D01*
X202527008Y-139567038D01*
X202435711Y-139715054D01*
X202312741Y-139838025D01*
X202164726Y-139929323D01*
X201999646Y-139984025D01*
X201848182Y-139999500D01*
X183138880Y-139999500D01*
X182966149Y-139979311D01*
X182802729Y-139919831D01*
X182657432Y-139824267D01*
X182609257Y-139780123D01*
X181219877Y-138390743D01*
X181112014Y-138254327D01*
X181038517Y-138096714D01*
X181003350Y-137926400D01*
X181000500Y-137861120D01*
X181000500Y-136126157D01*
X200796146Y-136126157D01*
X200809378Y-136441859D01*
X200813454Y-136483427D01*
X200861796Y-136795696D01*
X200870480Y-136836550D01*
X200953327Y-137141476D01*
X200966516Y-137181123D01*
X201082833Y-137474910D01*
X201100356Y-137512832D01*
X201122433Y-137554352D01*
X201143871Y-137585352D01*
X201174535Y-137561251D01*
X202554939Y-136180847D01*
X202578910Y-136150529D01*
X205420253Y-136150529D01*
X205423624Y-136156780D01*
X205437335Y-136173121D01*
X206828585Y-137564371D01*
X206859961Y-137589179D01*
X206898119Y-137568605D01*
X207059739Y-137504399D01*
X207231811Y-137479196D01*
X207405056Y-137494354D01*
X207570136Y-137549057D01*
X207612892Y-137570686D01*
X207642167Y-137586691D01*
X207674535Y-137561251D01*
X209054939Y-136180847D01*
X209078910Y-136150529D01*
X211920253Y-136150529D01*
X211923624Y-136156780D01*
X211937335Y-136173121D01*
X213328585Y-137564371D01*
X213358363Y-137587916D01*
X213370226Y-137570974D01*
X213487648Y-137307243D01*
X213502482Y-137268192D01*
X213598025Y-136967000D01*
X213608414Y-136926537D01*
X213669785Y-136616592D01*
X213675603Y-136575197D01*
X213702697Y-136252536D01*
X213703975Y-136226404D01*
X213704859Y-136163082D01*
X213704312Y-136136935D01*
X213686236Y-135813625D01*
X213681579Y-135772109D01*
X213628886Y-135460567D01*
X213619626Y-135419810D01*
X213532534Y-135116084D01*
X213518792Y-135076622D01*
X213398382Y-134784485D01*
X213380334Y-134746817D01*
X213379023Y-134744433D01*
X213356783Y-134713215D01*
X213328242Y-134735972D01*
X211945061Y-136119153D01*
X211920253Y-136150529D01*
X209078910Y-136150529D01*
X209079747Y-136149471D01*
X209076376Y-136143220D01*
X209062665Y-136126879D01*
X207671467Y-134735681D01*
X207640091Y-134710873D01*
X207603903Y-134730385D01*
X207442282Y-134794592D01*
X207270211Y-134819796D01*
X207096966Y-134804638D01*
X206931886Y-134749936D01*
X206898335Y-134733257D01*
X206858237Y-134712056D01*
X206828242Y-134735972D01*
X205445061Y-136119153D01*
X205420253Y-136150529D01*
X202578910Y-136150529D01*
X202579747Y-136149471D01*
X202576376Y-136143220D01*
X202562665Y-136126879D01*
X201171467Y-134735681D01*
X201140924Y-134711531D01*
X201128680Y-134728612D01*
X201120966Y-134744151D01*
X200996489Y-135034580D01*
X200982198Y-135073844D01*
X200890871Y-135376333D01*
X200881047Y-135416938D01*
X200824008Y-135727723D01*
X200818771Y-135769176D01*
X200796730Y-136084374D01*
X200796146Y-136126157D01*
X181000500Y-136126157D01*
X181000500Y-131321669D01*
X201294712Y-131321669D01*
X201295833Y-131344188D01*
X201295833Y-131344192D01*
X201298943Y-131406658D01*
X201310902Y-131646879D01*
X201314721Y-131669106D01*
X201314722Y-131669112D01*
X201325391Y-131731199D01*
X201366045Y-131967789D01*
X201372511Y-131989409D01*
X201372511Y-131989410D01*
X201452065Y-132255419D01*
X201459341Y-132279749D01*
X201589439Y-132578242D01*
X201754455Y-132858944D01*
X201768133Y-132876866D01*
X201768136Y-132876871D01*
X201807716Y-132928733D01*
X201951998Y-133117788D01*
X202179208Y-133351025D01*
X202432792Y-133555276D01*
X202709078Y-133727583D01*
X202729499Y-133737127D01*
X202729506Y-133737131D01*
X202983627Y-133855900D01*
X203004063Y-133865451D01*
X203025495Y-133872477D01*
X203046474Y-133880783D01*
X203045806Y-133882470D01*
X203178879Y-133944005D01*
X203317338Y-134053124D01*
X203969153Y-134704939D01*
X204000529Y-134729747D01*
X204006780Y-134726376D01*
X204023121Y-134712665D01*
X204681330Y-134054456D01*
X204817746Y-133946593D01*
X204917695Y-133898429D01*
X204916434Y-133895493D01*
X205194871Y-133775867D01*
X205194876Y-133775864D01*
X205215604Y-133766959D01*
X205497165Y-133603415D01*
X205757040Y-133407230D01*
X205991464Y-133181245D01*
X206197040Y-132928733D01*
X206370792Y-132653354D01*
X206510202Y-132359095D01*
X206537999Y-132275777D01*
X206611817Y-132118313D01*
X206719958Y-131982118D01*
X206856593Y-131874532D01*
X207014355Y-131801357D01*
X207184741Y-131766537D01*
X207358564Y-131771949D01*
X207526453Y-131817301D01*
X207679358Y-131900149D01*
X207809036Y-132016026D01*
X207908494Y-132158686D01*
X207951883Y-132255419D01*
X207952877Y-132258136D01*
X207959341Y-132279749D01*
X208089439Y-132578242D01*
X208254455Y-132858944D01*
X208268133Y-132876866D01*
X208268136Y-132876871D01*
X208307716Y-132928733D01*
X208451998Y-133117788D01*
X208679208Y-133351025D01*
X208932792Y-133555276D01*
X209209078Y-133727583D01*
X209229499Y-133737127D01*
X209229506Y-133737131D01*
X209483627Y-133855900D01*
X209504063Y-133865451D01*
X209525495Y-133872477D01*
X209546474Y-133880783D01*
X209545806Y-133882470D01*
X209678879Y-133944005D01*
X209817338Y-134053124D01*
X210469153Y-134704939D01*
X210500529Y-134729747D01*
X210506780Y-134726376D01*
X210523121Y-134712665D01*
X211181330Y-134054456D01*
X211317746Y-133946593D01*
X211417695Y-133898429D01*
X211416434Y-133895493D01*
X211694871Y-133775867D01*
X211694876Y-133775864D01*
X211715604Y-133766959D01*
X211997165Y-133603415D01*
X212257040Y-133407230D01*
X212491464Y-133181245D01*
X212697040Y-132928733D01*
X212870792Y-132653354D01*
X213010202Y-132359095D01*
X213044791Y-132255419D01*
X213106116Y-132071606D01*
X213106118Y-132071597D01*
X213113251Y-132050218D01*
X213178446Y-131731199D01*
X213204843Y-131406658D01*
X213205436Y-131350000D01*
X213185841Y-131024977D01*
X213127342Y-130704663D01*
X213030784Y-130393696D01*
X213018925Y-130367247D01*
X212906802Y-130117178D01*
X212906799Y-130117173D01*
X212897567Y-130096582D01*
X212729621Y-129817624D01*
X212529377Y-129560863D01*
X212415957Y-129446847D01*
X212315650Y-129346013D01*
X212315645Y-129346009D01*
X212299738Y-129330018D01*
X212044029Y-129128433D01*
X211765954Y-128959029D01*
X211745421Y-128949693D01*
X211745415Y-128949690D01*
X211490085Y-128833598D01*
X211490080Y-128833596D01*
X211469542Y-128824258D01*
X211159085Y-128726073D01*
X211073222Y-128709927D01*
X210861248Y-128670065D01*
X210861241Y-128670064D01*
X210839081Y-128665897D01*
X210514166Y-128644601D01*
X210491635Y-128645841D01*
X210491634Y-128645841D01*
X210211570Y-128661254D01*
X210211564Y-128661255D01*
X210189045Y-128662494D01*
X210047695Y-128687545D01*
X209890631Y-128715380D01*
X209890627Y-128715381D01*
X209868429Y-128719315D01*
X209556961Y-128814244D01*
X209536337Y-128823362D01*
X209536331Y-128823364D01*
X209353922Y-128904006D01*
X209259153Y-128945903D01*
X208979319Y-129112386D01*
X208961461Y-129126163D01*
X208961460Y-129126164D01*
X208940417Y-129142399D01*
X208721513Y-129311282D01*
X208489469Y-129539710D01*
X208286548Y-129794360D01*
X208115690Y-130071544D01*
X208106249Y-130092023D01*
X208106248Y-130092025D01*
X208004278Y-130313216D01*
X207979369Y-130367247D01*
X207972460Y-130388702D01*
X207972454Y-130388717D01*
X207963652Y-130416050D01*
X207891486Y-130574277D01*
X207784775Y-130711596D01*
X207649273Y-130820605D01*
X207492285Y-130895426D01*
X207322273Y-130932026D01*
X207148402Y-130928433D01*
X206980048Y-130884839D01*
X206826285Y-130803595D01*
X206695402Y-130689081D01*
X206594457Y-130547469D01*
X206546969Y-130435770D01*
X206545449Y-130436345D01*
X206537472Y-130415235D01*
X206530784Y-130393696D01*
X206518925Y-130367247D01*
X206406802Y-130117178D01*
X206406799Y-130117173D01*
X206397567Y-130096582D01*
X206229621Y-129817624D01*
X206029377Y-129560863D01*
X205915957Y-129446847D01*
X205815650Y-129346013D01*
X205815645Y-129346009D01*
X205799738Y-129330018D01*
X205544029Y-129128433D01*
X205265954Y-128959029D01*
X205245421Y-128949693D01*
X205245415Y-128949690D01*
X204990085Y-128833598D01*
X204990080Y-128833596D01*
X204969542Y-128824258D01*
X204659085Y-128726073D01*
X204573222Y-128709927D01*
X204361248Y-128670065D01*
X204361241Y-128670064D01*
X204339081Y-128665897D01*
X204014166Y-128644601D01*
X203991635Y-128645841D01*
X203991634Y-128645841D01*
X203711570Y-128661254D01*
X203711564Y-128661255D01*
X203689045Y-128662494D01*
X203547695Y-128687545D01*
X203390631Y-128715380D01*
X203390627Y-128715381D01*
X203368429Y-128719315D01*
X203056961Y-128814244D01*
X203036337Y-128823362D01*
X203036331Y-128823364D01*
X202853922Y-128904006D01*
X202759153Y-128945903D01*
X202479319Y-129112386D01*
X202461461Y-129126163D01*
X202461460Y-129126164D01*
X202440417Y-129142399D01*
X202221513Y-129311282D01*
X201989469Y-129539710D01*
X201786548Y-129794360D01*
X201615690Y-130071544D01*
X201606249Y-130092023D01*
X201606248Y-130092025D01*
X201504278Y-130313216D01*
X201479369Y-130367247D01*
X201472459Y-130388703D01*
X201472458Y-130388707D01*
X201457117Y-130436345D01*
X201379560Y-130677185D01*
X201317709Y-130996870D01*
X201294712Y-131321669D01*
X181000500Y-131321669D01*
X181000500Y-118238881D01*
X181020689Y-118066150D01*
X181080169Y-117902730D01*
X181175733Y-117757433D01*
X181219876Y-117709259D01*
X181609256Y-117319878D01*
X181745672Y-117212014D01*
X181903285Y-117138518D01*
X182073599Y-117103350D01*
X182138880Y-117100500D01*
X185250500Y-117100500D01*
X185423231Y-117120689D01*
X185586651Y-117180169D01*
X185731948Y-117275733D01*
X185851290Y-117402228D01*
X185938244Y-117552836D01*
X185988121Y-117719438D01*
X185999500Y-117849500D01*
X185999500Y-120179532D01*
X186006897Y-120293920D01*
X186058619Y-120535179D01*
X186069883Y-120563774D01*
X186069884Y-120563778D01*
X186131727Y-120720775D01*
X186149049Y-120764750D01*
X186275761Y-120976469D01*
X186295638Y-120999907D01*
X186295640Y-120999910D01*
X186415468Y-121141206D01*
X186435350Y-121164650D01*
X186458794Y-121184532D01*
X186519658Y-121236148D01*
X186623531Y-121324239D01*
X186649900Y-121340021D01*
X186649902Y-121340022D01*
X186700932Y-121370563D01*
X186835250Y-121450951D01*
X186863848Y-121462216D01*
X186863852Y-121462218D01*
X187036222Y-121530116D01*
X187036226Y-121530117D01*
X187064821Y-121541381D01*
X187094876Y-121547824D01*
X187094875Y-121547824D01*
X187279225Y-121587346D01*
X187279229Y-121587347D01*
X187306080Y-121593103D01*
X187420468Y-121600500D01*
X192579532Y-121600500D01*
X192693920Y-121593103D01*
X192720771Y-121587347D01*
X192720775Y-121587346D01*
X192905125Y-121547824D01*
X192905124Y-121547824D01*
X192935179Y-121541381D01*
X192963774Y-121530117D01*
X192963778Y-121530116D01*
X193014742Y-121510041D01*
X202560589Y-121510041D01*
X202561083Y-121510595D01*
X202570197Y-121517179D01*
X202574147Y-121519175D01*
X202863655Y-121645658D01*
X202902787Y-121660211D01*
X203204652Y-121753655D01*
X203245168Y-121763757D01*
X203555564Y-121822967D01*
X203596980Y-121828493D01*
X203912007Y-121852733D01*
X203953794Y-121853609D01*
X204269578Y-121842581D01*
X204311176Y-121838795D01*
X204623769Y-121792636D01*
X204664682Y-121784238D01*
X204970196Y-121703517D01*
X205009915Y-121690611D01*
X205304506Y-121576347D01*
X205342558Y-121559086D01*
X205403920Y-121527007D01*
X205428822Y-121510041D01*
X209060589Y-121510041D01*
X209061083Y-121510595D01*
X209070197Y-121517179D01*
X209074147Y-121519175D01*
X209363655Y-121645658D01*
X209402787Y-121660211D01*
X209704652Y-121753655D01*
X209745168Y-121763757D01*
X210055564Y-121822967D01*
X210096980Y-121828493D01*
X210412007Y-121852733D01*
X210453794Y-121853609D01*
X210769578Y-121842581D01*
X210811176Y-121838795D01*
X211123769Y-121792636D01*
X211164682Y-121784238D01*
X211470196Y-121703517D01*
X211509915Y-121690611D01*
X211804506Y-121576347D01*
X211842558Y-121559086D01*
X211903920Y-121527007D01*
X211934791Y-121505974D01*
X211910030Y-121474244D01*
X210530847Y-120095061D01*
X210499471Y-120070253D01*
X210493220Y-120073624D01*
X210476879Y-120087335D01*
X209084828Y-121479386D01*
X209060589Y-121510041D01*
X205428822Y-121510041D01*
X205434791Y-121505974D01*
X205410030Y-121474244D01*
X204030847Y-120095061D01*
X203999471Y-120070253D01*
X203993220Y-120073624D01*
X203976879Y-120087335D01*
X202584828Y-121479386D01*
X202560589Y-121510041D01*
X193014742Y-121510041D01*
X193136148Y-121462218D01*
X193136152Y-121462216D01*
X193164750Y-121450951D01*
X193299068Y-121370563D01*
X193350098Y-121340022D01*
X193350100Y-121340021D01*
X193376469Y-121324239D01*
X193480343Y-121236148D01*
X193541206Y-121184532D01*
X193564650Y-121164650D01*
X193584532Y-121141206D01*
X193704360Y-120999910D01*
X193704362Y-120999907D01*
X193724239Y-120976469D01*
X193850951Y-120764750D01*
X193868274Y-120720775D01*
X193930116Y-120563778D01*
X193930117Y-120563774D01*
X193941381Y-120535179D01*
X193993103Y-120293920D01*
X194000500Y-120179532D01*
X194000500Y-117146463D01*
X194005135Y-117106811D01*
X194004290Y-117102981D01*
X194002650Y-117070412D01*
X195494300Y-117070412D01*
X195497323Y-117108536D01*
X195497051Y-117125861D01*
X195531419Y-117470177D01*
X195536017Y-117491264D01*
X195536017Y-117491266D01*
X195551699Y-117563190D01*
X195605133Y-117808261D01*
X195612122Y-117828674D01*
X195612123Y-117828678D01*
X195646346Y-117928635D01*
X195717217Y-118135633D01*
X195726505Y-118155106D01*
X195726508Y-118155113D01*
X195782313Y-118272109D01*
X195866186Y-118447952D01*
X196050064Y-118741079D01*
X196063549Y-118757911D01*
X196063554Y-118757918D01*
X196124171Y-118833580D01*
X196266415Y-119011129D01*
X196512371Y-119254523D01*
X196784672Y-119468034D01*
X197079709Y-119648832D01*
X197393570Y-119794522D01*
X197722097Y-119903172D01*
X197743217Y-119907546D01*
X197743218Y-119907546D01*
X198039808Y-119968967D01*
X198039811Y-119968967D01*
X198060935Y-119973342D01*
X198082421Y-119975260D01*
X198082424Y-119975260D01*
X198126527Y-119979196D01*
X198365233Y-120000500D01*
X198588189Y-120000500D01*
X198613874Y-119999019D01*
X198823917Y-119986908D01*
X198823921Y-119986908D01*
X198845453Y-119985666D01*
X199186328Y-119926174D01*
X199207017Y-119920046D01*
X199207024Y-119920044D01*
X199335468Y-119881997D01*
X199518106Y-119827897D01*
X199537953Y-119819431D01*
X199537960Y-119819429D01*
X199816536Y-119700606D01*
X199836389Y-119692138D01*
X200012120Y-119591903D01*
X200172158Y-119523861D01*
X200343579Y-119494559D01*
X200517137Y-119505580D01*
X200683474Y-119556329D01*
X200833625Y-119644070D01*
X200959494Y-119764073D01*
X201054296Y-119909868D01*
X201079618Y-119966787D01*
X201082838Y-119974919D01*
X201100356Y-120012832D01*
X201122433Y-120054352D01*
X201143871Y-120085352D01*
X201174535Y-120061251D01*
X202585257Y-118650529D01*
X205420253Y-118650529D01*
X205423624Y-118656780D01*
X205437335Y-118673121D01*
X206828585Y-120064371D01*
X206859961Y-120089179D01*
X206898119Y-120068605D01*
X207059739Y-120004399D01*
X207231811Y-119979196D01*
X207405056Y-119994354D01*
X207570136Y-120049057D01*
X207612892Y-120070686D01*
X207642167Y-120086691D01*
X207674535Y-120061251D01*
X209054939Y-118680847D01*
X209078910Y-118650529D01*
X211920253Y-118650529D01*
X211923624Y-118656780D01*
X211937335Y-118673121D01*
X213328585Y-120064371D01*
X213358363Y-120087916D01*
X213370226Y-120070974D01*
X213487648Y-119807243D01*
X213502482Y-119768192D01*
X213598025Y-119467000D01*
X213608414Y-119426537D01*
X213669785Y-119116592D01*
X213675603Y-119075197D01*
X213702697Y-118752536D01*
X213703975Y-118726404D01*
X213704859Y-118663082D01*
X213704312Y-118636935D01*
X213686236Y-118313625D01*
X213681579Y-118272109D01*
X213628886Y-117960567D01*
X213619626Y-117919810D01*
X213532534Y-117616084D01*
X213518792Y-117576622D01*
X213398382Y-117284485D01*
X213380334Y-117246817D01*
X213379023Y-117244433D01*
X213356783Y-117213215D01*
X213328242Y-117235972D01*
X211945061Y-118619153D01*
X211920253Y-118650529D01*
X209078910Y-118650529D01*
X209079747Y-118649471D01*
X209076376Y-118643220D01*
X209062665Y-118626879D01*
X207671467Y-117235681D01*
X207640091Y-117210873D01*
X207603903Y-117230385D01*
X207442282Y-117294592D01*
X207270211Y-117319796D01*
X207096966Y-117304638D01*
X206931886Y-117249936D01*
X206898335Y-117233257D01*
X206858237Y-117212056D01*
X206828242Y-117235972D01*
X205445061Y-118619153D01*
X205420253Y-118650529D01*
X202585257Y-118650529D01*
X205413577Y-115822209D01*
X205436197Y-115793601D01*
X209063982Y-115793601D01*
X209087415Y-115823201D01*
X210469153Y-117204939D01*
X210500529Y-117229747D01*
X210506780Y-117226376D01*
X210523121Y-117212665D01*
X211913577Y-115822209D01*
X211937543Y-115791899D01*
X211913417Y-115774733D01*
X211885712Y-115761220D01*
X211594410Y-115638768D01*
X211555073Y-115624761D01*
X211251955Y-115535549D01*
X211211264Y-115526005D01*
X210900090Y-115471136D01*
X210858613Y-115466191D01*
X210543259Y-115446350D01*
X210501477Y-115446058D01*
X210185869Y-115461494D01*
X210144333Y-115465860D01*
X209832421Y-115516378D01*
X209791615Y-115525350D01*
X209487273Y-115610324D01*
X209447729Y-115623785D01*
X209154751Y-115742156D01*
X209116960Y-115759939D01*
X209095098Y-115771760D01*
X209063982Y-115793601D01*
X205436197Y-115793601D01*
X205437543Y-115791899D01*
X205413417Y-115774733D01*
X205385712Y-115761220D01*
X205094410Y-115638768D01*
X205055073Y-115624761D01*
X204751955Y-115535549D01*
X204711264Y-115526005D01*
X204400090Y-115471136D01*
X204358613Y-115466191D01*
X204043259Y-115446350D01*
X204001477Y-115446058D01*
X203685869Y-115461494D01*
X203644333Y-115465860D01*
X203332421Y-115516378D01*
X203291615Y-115525350D01*
X202987273Y-115610324D01*
X202947729Y-115623785D01*
X202654758Y-115742153D01*
X202616957Y-115759941D01*
X202338998Y-115910233D01*
X202303434Y-115932112D01*
X202285114Y-115944845D01*
X202131753Y-116026847D01*
X201963616Y-116071271D01*
X201789766Y-116075723D01*
X201619575Y-116039962D01*
X201462219Y-115965916D01*
X201326181Y-115857577D01*
X201218794Y-115720786D01*
X201181611Y-115652257D01*
X201143101Y-115571518D01*
X201133814Y-115552048D01*
X200949936Y-115258921D01*
X200936451Y-115242089D01*
X200936446Y-115242082D01*
X200747075Y-115005709D01*
X200747073Y-115005707D01*
X200733585Y-114988871D01*
X200487629Y-114745477D01*
X200215328Y-114531966D01*
X199920291Y-114351168D01*
X199606430Y-114205478D01*
X199277903Y-114096828D01*
X199256782Y-114092454D01*
X198960192Y-114031033D01*
X198960189Y-114031033D01*
X198939065Y-114026658D01*
X198917579Y-114024740D01*
X198917576Y-114024740D01*
X198841925Y-114017988D01*
X198634767Y-113999500D01*
X198411811Y-113999500D01*
X198401059Y-114000120D01*
X198401058Y-114000120D01*
X198176083Y-114013092D01*
X198176079Y-114013092D01*
X198154547Y-114014334D01*
X197813672Y-114073826D01*
X197792983Y-114079954D01*
X197792976Y-114079956D01*
X197664532Y-114118003D01*
X197481894Y-114172103D01*
X197462047Y-114180569D01*
X197462040Y-114180571D01*
X197281840Y-114257433D01*
X197163611Y-114307862D01*
X196863041Y-114479304D01*
X196845646Y-114492082D01*
X196601553Y-114671386D01*
X196601548Y-114671390D01*
X196584168Y-114684157D01*
X196330688Y-114919705D01*
X196105962Y-115182826D01*
X195912967Y-115470033D01*
X195903071Y-115489206D01*
X195772513Y-115742156D01*
X195754261Y-115777518D01*
X195631950Y-116101207D01*
X195626693Y-116122136D01*
X195565182Y-116367022D01*
X195547652Y-116436810D01*
X195544835Y-116458205D01*
X195544834Y-116458212D01*
X195505739Y-116755177D01*
X195502487Y-116779876D01*
X195502148Y-116801442D01*
X195502148Y-116801444D01*
X195498408Y-117039492D01*
X195494300Y-117070412D01*
X194002650Y-117070412D01*
X194000500Y-117027725D01*
X194000500Y-110020468D01*
X193993103Y-109906080D01*
X193981060Y-109849902D01*
X193947824Y-109694875D01*
X193941381Y-109664821D01*
X193930116Y-109636222D01*
X193862218Y-109463852D01*
X193862216Y-109463848D01*
X193850951Y-109435250D01*
X193724239Y-109223531D01*
X193704359Y-109200090D01*
X193693922Y-109185511D01*
X193609787Y-109033310D01*
X193563020Y-108865810D01*
X193556141Y-108692039D01*
X193589523Y-108521365D01*
X193661364Y-108362991D01*
X193767793Y-108225453D01*
X193903072Y-108116167D01*
X194059907Y-108041024D01*
X194229843Y-108004075D01*
X194302934Y-108000500D01*
X217830500Y-108000500D01*
X218003231Y-108020689D01*
G37*
%TD.AperFunction*%
%TA.AperFunction,Conductor*%
G36*
X49758781Y-108020689D02*
G01*
X49922201Y-108080169D01*
X50067498Y-108175733D01*
X50186840Y-108302228D01*
X50273794Y-108452836D01*
X50323671Y-108619438D01*
X50333783Y-108793050D01*
X50303584Y-108964316D01*
X50234703Y-109124000D01*
X50130853Y-109263495D01*
X50070497Y-109320737D01*
X49935350Y-109435350D01*
X49915468Y-109458794D01*
X49911179Y-109463852D01*
X49775761Y-109623531D01*
X49649049Y-109835250D01*
X49637784Y-109863848D01*
X49637782Y-109863852D01*
X49580846Y-110008394D01*
X49558619Y-110064821D01*
X49552176Y-110094875D01*
X49530738Y-110194875D01*
X49506897Y-110306080D01*
X49499500Y-110420468D01*
X49499500Y-120579532D01*
X49506897Y-120693920D01*
X49512653Y-120720771D01*
X49512654Y-120720775D01*
X49525251Y-120779532D01*
X49558619Y-120935179D01*
X49569883Y-120963774D01*
X49569884Y-120963778D01*
X49637401Y-121135179D01*
X49649049Y-121164750D01*
X49775761Y-121376469D01*
X49795638Y-121399907D01*
X49795640Y-121399910D01*
X49885589Y-121505974D01*
X49935350Y-121564650D01*
X49958794Y-121584532D01*
X50048032Y-121660211D01*
X50123531Y-121724239D01*
X50149900Y-121740021D01*
X50149902Y-121740022D01*
X50172681Y-121753655D01*
X50335250Y-121850951D01*
X50363848Y-121862216D01*
X50363852Y-121862218D01*
X50536222Y-121930116D01*
X50536226Y-121930117D01*
X50564821Y-121941381D01*
X50594876Y-121947824D01*
X50594875Y-121947824D01*
X50779219Y-121987345D01*
X50779226Y-121987346D01*
X50806080Y-121993103D01*
X50833485Y-121994875D01*
X50853453Y-121997646D01*
X51021770Y-122041387D01*
X51175462Y-122122765D01*
X51306245Y-122237393D01*
X51407067Y-122379092D01*
X51472494Y-122540222D01*
X51498997Y-122712098D01*
X51499500Y-122739537D01*
X51499500Y-138863286D01*
X51499292Y-138880934D01*
X51496616Y-138994477D01*
X51499728Y-139020770D01*
X51505651Y-139070811D01*
X51508969Y-139105904D01*
X51514399Y-139182593D01*
X51519972Y-139208477D01*
X51522905Y-139229085D01*
X51526803Y-139249519D01*
X51529915Y-139275814D01*
X51549533Y-139349801D01*
X51549609Y-139350089D01*
X51557847Y-139384406D01*
X51568448Y-139433646D01*
X51568451Y-139433656D01*
X51574025Y-139459547D01*
X51583191Y-139484392D01*
X51588988Y-139504346D01*
X51595732Y-139524044D01*
X51602522Y-139549652D01*
X51632503Y-139620453D01*
X51645463Y-139653188D01*
X51672080Y-139725337D01*
X51684652Y-139748637D01*
X51693214Y-139767600D01*
X51702668Y-139786154D01*
X51712988Y-139810527D01*
X51726641Y-139833205D01*
X51726647Y-139833216D01*
X51752625Y-139876364D01*
X51770114Y-139907026D01*
X51806607Y-139974660D01*
X51822340Y-139995961D01*
X51833470Y-140013499D01*
X51845448Y-140030543D01*
X51859111Y-140053236D01*
X51887402Y-140087986D01*
X51907629Y-140112832D01*
X51929250Y-140140707D01*
X51959183Y-140181233D01*
X51959192Y-140181244D01*
X51974922Y-140202540D01*
X51993498Y-140221410D01*
X51993505Y-140221418D01*
X52006911Y-140235036D01*
X52008436Y-140236653D01*
X52012452Y-140241587D01*
X52068698Y-140297833D01*
X52072840Y-140302007D01*
X52173666Y-140404430D01*
X52179692Y-140409029D01*
X52183007Y-140412142D01*
X55359462Y-143588596D01*
X55371794Y-143601222D01*
X55431917Y-143664248D01*
X55431921Y-143664252D01*
X55450199Y-143683412D01*
X55510571Y-143731005D01*
X55537749Y-143753488D01*
X55595792Y-143803856D01*
X55618044Y-143818224D01*
X55634685Y-143830718D01*
X55651882Y-143842405D01*
X55672680Y-143858801D01*
X55718512Y-143885423D01*
X55739124Y-143897395D01*
X55769208Y-143915831D01*
X55811535Y-143943161D01*
X55811544Y-143943166D01*
X55833790Y-143957530D01*
X55857840Y-143968617D01*
X55876065Y-143978636D01*
X55894757Y-143987793D01*
X55917654Y-144001093D01*
X55942200Y-144011035D01*
X55942202Y-144011036D01*
X55988867Y-144029937D01*
X56021270Y-144043959D01*
X56067012Y-144065047D01*
X56067020Y-144065050D01*
X56091067Y-144076136D01*
X56116441Y-144083724D01*
X56135892Y-144091074D01*
X56155683Y-144097504D01*
X56180232Y-144107448D01*
X56254815Y-144125974D01*
X56288856Y-144135287D01*
X56362490Y-144157309D01*
X56388667Y-144161245D01*
X56408951Y-144165779D01*
X56429481Y-144169362D01*
X56455177Y-144175745D01*
X56481513Y-144178443D01*
X56481522Y-144178445D01*
X56531625Y-144183578D01*
X56566616Y-144187998D01*
X56642642Y-144199428D01*
X56678339Y-144199709D01*
X56688264Y-144199787D01*
X56690458Y-144199852D01*
X56696790Y-144200500D01*
X56776176Y-144200500D01*
X56782060Y-144200523D01*
X56925933Y-144201653D01*
X56933451Y-144200643D01*
X56938009Y-144200500D01*
X93776242Y-144200500D01*
X93782122Y-144200523D01*
X93906257Y-144201498D01*
X93906269Y-144201498D01*
X93925933Y-144201652D01*
X93933444Y-144200643D01*
X93937998Y-144200500D01*
X133776242Y-144200500D01*
X133782122Y-144200523D01*
X133906257Y-144201498D01*
X133906269Y-144201498D01*
X133925933Y-144201652D01*
X133933444Y-144200643D01*
X133937998Y-144200500D01*
X149661119Y-144200500D01*
X149833850Y-144220689D01*
X149997270Y-144280169D01*
X150142567Y-144375733D01*
X150190742Y-144419877D01*
X150780123Y-145009257D01*
X150887986Y-145145672D01*
X150961483Y-145303285D01*
X150996650Y-145473600D01*
X150999500Y-145538880D01*
X150999500Y-152319452D01*
X150979311Y-152492183D01*
X150919831Y-152655603D01*
X150824267Y-152800900D01*
X150697772Y-152920242D01*
X150547164Y-153007196D01*
X150380562Y-153057073D01*
X150206950Y-153067185D01*
X150035684Y-153036986D01*
X149876000Y-152968105D01*
X149736505Y-152864255D01*
X149674386Y-152790225D01*
X149648011Y-152765342D01*
X149621112Y-152763814D01*
X149601741Y-152766244D01*
X149355981Y-152813125D01*
X149308002Y-152825623D01*
X149071526Y-152904287D01*
X149025629Y-152923017D01*
X148801635Y-153032268D01*
X148758614Y-153056906D01*
X148551038Y-153194819D01*
X148511653Y-153224931D01*
X148324146Y-153389081D01*
X148289081Y-153424146D01*
X148124931Y-153611653D01*
X148094819Y-153651038D01*
X147956906Y-153858614D01*
X147932268Y-153901635D01*
X147823017Y-154125629D01*
X147804287Y-154171526D01*
X147725623Y-154408002D01*
X147713125Y-154455981D01*
X147666245Y-154701738D01*
X147660316Y-154748998D01*
X147650699Y-154906238D01*
X147650000Y-154929113D01*
X147650000Y-155106374D01*
X147654644Y-155146103D01*
X147661448Y-155148140D01*
X147682704Y-155150000D01*
X149606374Y-155150000D01*
X149653578Y-155144483D01*
X149813543Y-155106570D01*
X149987450Y-155106569D01*
X150156670Y-155146674D01*
X150312079Y-155224723D01*
X150445301Y-155336508D01*
X150549151Y-155476002D01*
X150618033Y-155635686D01*
X150648233Y-155806951D01*
X150649500Y-155850505D01*
X150649500Y-156101000D01*
X150629311Y-156273731D01*
X150569831Y-156437151D01*
X150474267Y-156582448D01*
X150347772Y-156701790D01*
X150197164Y-156788744D01*
X150030562Y-156838621D01*
X149900500Y-156850000D01*
X147693626Y-156850000D01*
X147653897Y-156854644D01*
X147651860Y-156861448D01*
X147650000Y-156882704D01*
X147650000Y-157070887D01*
X147650699Y-157093762D01*
X147660316Y-157251002D01*
X147666245Y-157298262D01*
X147713125Y-157544019D01*
X147725623Y-157591998D01*
X147804287Y-157828474D01*
X147823017Y-157874371D01*
X147932268Y-158098365D01*
X147956906Y-158141386D01*
X148094819Y-158348962D01*
X148124931Y-158388347D01*
X148289081Y-158575854D01*
X148324146Y-158610919D01*
X148410986Y-158686942D01*
X148527653Y-158815909D01*
X148611433Y-158968306D01*
X148657810Y-159135915D01*
X148664284Y-159309702D01*
X148630505Y-159480297D01*
X148558294Y-159638503D01*
X148451545Y-159775793D01*
X148316012Y-159884763D01*
X148159003Y-159959541D01*
X147988980Y-159996094D01*
X147917627Y-159999500D01*
X37029500Y-159999500D01*
X36856769Y-159979311D01*
X36693349Y-159919831D01*
X36548052Y-159824267D01*
X36428710Y-159697772D01*
X36341756Y-159547164D01*
X36291879Y-159380562D01*
X36280500Y-159250500D01*
X36280500Y-153125861D01*
X40497051Y-153125861D01*
X40531419Y-153470177D01*
X40605133Y-153808261D01*
X40612122Y-153828674D01*
X40612123Y-153828678D01*
X40628963Y-153877864D01*
X40717217Y-154135633D01*
X40726505Y-154155106D01*
X40726508Y-154155113D01*
X40856899Y-154428482D01*
X40866186Y-154447952D01*
X41050064Y-154741079D01*
X41063549Y-154757911D01*
X41063554Y-154757918D01*
X41252925Y-154994291D01*
X41266415Y-155011129D01*
X41512371Y-155254523D01*
X41784672Y-155468034D01*
X41803070Y-155479308D01*
X42058257Y-155635686D01*
X42079709Y-155648832D01*
X42393570Y-155794522D01*
X42722097Y-155903172D01*
X42743217Y-155907546D01*
X42743218Y-155907546D01*
X43039808Y-155968967D01*
X43039811Y-155968967D01*
X43060935Y-155973342D01*
X43082421Y-155975260D01*
X43082424Y-155975260D01*
X43157464Y-155981957D01*
X43365233Y-156000500D01*
X43588189Y-156000500D01*
X43613874Y-155999019D01*
X43823917Y-155986908D01*
X43823921Y-155986908D01*
X43845453Y-155985666D01*
X44186328Y-155926174D01*
X44207017Y-155920046D01*
X44207024Y-155920044D01*
X44335468Y-155881997D01*
X44518106Y-155827897D01*
X44537953Y-155819431D01*
X44537960Y-155819429D01*
X44816536Y-155700606D01*
X44836389Y-155692138D01*
X45136959Y-155520696D01*
X45197802Y-155476002D01*
X45398447Y-155328614D01*
X45398452Y-155328610D01*
X45415832Y-155315843D01*
X45669312Y-155080295D01*
X45894038Y-154817174D01*
X46087033Y-154529967D01*
X46125220Y-154455981D01*
X46235844Y-154241654D01*
X46235847Y-154241647D01*
X46245739Y-154222482D01*
X46368050Y-153898793D01*
X46397858Y-153780123D01*
X46447090Y-153584124D01*
X46447091Y-153584119D01*
X46452348Y-153563190D01*
X46455166Y-153541788D01*
X46494697Y-153241517D01*
X46494698Y-153241510D01*
X46497513Y-153220124D01*
X46498994Y-153125861D01*
X118497051Y-153125861D01*
X118531419Y-153470177D01*
X118605133Y-153808261D01*
X118612122Y-153828674D01*
X118612123Y-153828678D01*
X118628963Y-153877864D01*
X118717217Y-154135633D01*
X118726505Y-154155106D01*
X118726508Y-154155113D01*
X118856899Y-154428482D01*
X118866186Y-154447952D01*
X119050064Y-154741079D01*
X119063549Y-154757911D01*
X119063554Y-154757918D01*
X119252925Y-154994291D01*
X119266415Y-155011129D01*
X119512371Y-155254523D01*
X119784672Y-155468034D01*
X119803070Y-155479308D01*
X120058257Y-155635686D01*
X120079709Y-155648832D01*
X120393570Y-155794522D01*
X120722097Y-155903172D01*
X120743217Y-155907546D01*
X120743218Y-155907546D01*
X121039808Y-155968967D01*
X121039811Y-155968967D01*
X121060935Y-155973342D01*
X121082421Y-155975260D01*
X121082424Y-155975260D01*
X121157464Y-155981957D01*
X121365233Y-156000500D01*
X121588189Y-156000500D01*
X121613874Y-155999019D01*
X121823917Y-155986908D01*
X121823921Y-155986908D01*
X121845453Y-155985666D01*
X122186328Y-155926174D01*
X122207017Y-155920046D01*
X122207024Y-155920044D01*
X122335468Y-155881997D01*
X122518106Y-155827897D01*
X122537953Y-155819431D01*
X122537960Y-155819429D01*
X122816536Y-155700606D01*
X122836389Y-155692138D01*
X123136959Y-155520696D01*
X123197802Y-155476002D01*
X123398447Y-155328614D01*
X123398452Y-155328610D01*
X123415832Y-155315843D01*
X123669312Y-155080295D01*
X123894038Y-154817174D01*
X124087033Y-154529967D01*
X124125220Y-154455981D01*
X124235844Y-154241654D01*
X124235847Y-154241647D01*
X124245739Y-154222482D01*
X124368050Y-153898793D01*
X124397858Y-153780123D01*
X124447090Y-153584124D01*
X124447091Y-153584119D01*
X124452348Y-153563190D01*
X124455166Y-153541788D01*
X124494697Y-153241517D01*
X124494698Y-153241510D01*
X124497513Y-153220124D01*
X124502949Y-152874139D01*
X124481136Y-152655603D01*
X124470725Y-152551302D01*
X124470725Y-152551301D01*
X124468581Y-152529823D01*
X124394867Y-152191739D01*
X124282783Y-151864367D01*
X124273495Y-151844894D01*
X124273492Y-151844887D01*
X124143101Y-151571518D01*
X124143099Y-151571514D01*
X124133814Y-151552048D01*
X123949936Y-151258921D01*
X123936451Y-151242089D01*
X123936446Y-151242082D01*
X123747075Y-151005709D01*
X123747073Y-151005707D01*
X123733585Y-150988871D01*
X123487629Y-150745477D01*
X123215328Y-150531966D01*
X123036858Y-150422600D01*
X122938697Y-150362447D01*
X122938695Y-150362446D01*
X122920291Y-150351168D01*
X122606430Y-150205478D01*
X122277903Y-150096828D01*
X122256782Y-150092454D01*
X121960192Y-150031033D01*
X121960189Y-150031033D01*
X121939065Y-150026658D01*
X121917579Y-150024740D01*
X121917576Y-150024740D01*
X121841925Y-150017988D01*
X121634767Y-149999500D01*
X121411811Y-149999500D01*
X121401059Y-150000120D01*
X121401058Y-150000120D01*
X121176083Y-150013092D01*
X121176079Y-150013092D01*
X121154547Y-150014334D01*
X120813672Y-150073826D01*
X120792983Y-150079954D01*
X120792976Y-150079956D01*
X120664532Y-150118003D01*
X120481894Y-150172103D01*
X120462047Y-150180569D01*
X120462040Y-150180571D01*
X120206981Y-150289363D01*
X120163611Y-150307862D01*
X119863041Y-150479304D01*
X119845646Y-150492082D01*
X119601553Y-150671386D01*
X119601548Y-150671390D01*
X119584168Y-150684157D01*
X119568372Y-150698835D01*
X119568369Y-150698838D01*
X119518180Y-150745477D01*
X119330688Y-150919705D01*
X119105962Y-151182826D01*
X118912967Y-151470033D01*
X118903071Y-151489206D01*
X118771884Y-151743375D01*
X118754261Y-151777518D01*
X118631950Y-152101207D01*
X118547652Y-152436810D01*
X118544835Y-152458205D01*
X118544834Y-152458212D01*
X118511016Y-152715094D01*
X118502487Y-152779876D01*
X118502148Y-152801442D01*
X118502148Y-152801444D01*
X118498447Y-153036986D01*
X118497051Y-153125861D01*
X46498994Y-153125861D01*
X46502949Y-152874139D01*
X46481136Y-152655603D01*
X46470725Y-152551302D01*
X46470725Y-152551301D01*
X46468581Y-152529823D01*
X46394867Y-152191739D01*
X46282783Y-151864367D01*
X46273495Y-151844894D01*
X46273492Y-151844887D01*
X46143101Y-151571518D01*
X46143099Y-151571514D01*
X46133814Y-151552048D01*
X45949936Y-151258921D01*
X45936451Y-151242089D01*
X45936446Y-151242082D01*
X45747075Y-151005709D01*
X45747073Y-151005707D01*
X45733585Y-150988871D01*
X45487629Y-150745477D01*
X45215328Y-150531966D01*
X45036858Y-150422600D01*
X44938697Y-150362447D01*
X44938695Y-150362446D01*
X44920291Y-150351168D01*
X44606430Y-150205478D01*
X44277903Y-150096828D01*
X44256782Y-150092454D01*
X43960192Y-150031033D01*
X43960189Y-150031033D01*
X43939065Y-150026658D01*
X43917579Y-150024740D01*
X43917576Y-150024740D01*
X43841925Y-150017988D01*
X43634767Y-149999500D01*
X43411811Y-149999500D01*
X43401059Y-150000120D01*
X43401058Y-150000120D01*
X43176083Y-150013092D01*
X43176079Y-150013092D01*
X43154547Y-150014334D01*
X42813672Y-150073826D01*
X42792983Y-150079954D01*
X42792976Y-150079956D01*
X42664532Y-150118003D01*
X42481894Y-150172103D01*
X42462047Y-150180569D01*
X42462040Y-150180571D01*
X42206981Y-150289363D01*
X42163611Y-150307862D01*
X41863041Y-150479304D01*
X41845646Y-150492082D01*
X41601553Y-150671386D01*
X41601548Y-150671390D01*
X41584168Y-150684157D01*
X41568372Y-150698835D01*
X41568369Y-150698838D01*
X41518180Y-150745477D01*
X41330688Y-150919705D01*
X41105962Y-151182826D01*
X40912967Y-151470033D01*
X40903071Y-151489206D01*
X40771884Y-151743375D01*
X40754261Y-151777518D01*
X40631950Y-152101207D01*
X40547652Y-152436810D01*
X40544835Y-152458205D01*
X40544834Y-152458212D01*
X40511016Y-152715094D01*
X40502487Y-152779876D01*
X40502148Y-152801442D01*
X40502148Y-152801444D01*
X40498447Y-153036986D01*
X40497051Y-153125861D01*
X36280500Y-153125861D01*
X36280500Y-117125861D01*
X40497051Y-117125861D01*
X40531419Y-117470177D01*
X40536017Y-117491264D01*
X40536017Y-117491266D01*
X40551699Y-117563190D01*
X40605133Y-117808261D01*
X40612122Y-117828674D01*
X40612123Y-117828678D01*
X40646346Y-117928635D01*
X40717217Y-118135633D01*
X40726505Y-118155106D01*
X40726508Y-118155113D01*
X40782313Y-118272109D01*
X40866186Y-118447952D01*
X41050064Y-118741079D01*
X41063549Y-118757911D01*
X41063554Y-118757918D01*
X41124171Y-118833580D01*
X41266415Y-119011129D01*
X41512371Y-119254523D01*
X41784672Y-119468034D01*
X42079709Y-119648832D01*
X42393570Y-119794522D01*
X42722097Y-119903172D01*
X42743217Y-119907546D01*
X42743218Y-119907546D01*
X43039808Y-119968967D01*
X43039811Y-119968967D01*
X43060935Y-119973342D01*
X43082421Y-119975260D01*
X43082424Y-119975260D01*
X43126527Y-119979196D01*
X43365233Y-120000500D01*
X43588189Y-120000500D01*
X43613874Y-119999019D01*
X43823917Y-119986908D01*
X43823921Y-119986908D01*
X43845453Y-119985666D01*
X44186328Y-119926174D01*
X44207017Y-119920046D01*
X44207024Y-119920044D01*
X44335468Y-119881997D01*
X44518106Y-119827897D01*
X44537953Y-119819431D01*
X44537960Y-119819429D01*
X44816536Y-119700606D01*
X44836389Y-119692138D01*
X45136959Y-119520696D01*
X45193302Y-119479308D01*
X45398447Y-119328614D01*
X45398452Y-119328610D01*
X45415832Y-119315843D01*
X45669312Y-119080295D01*
X45894038Y-118817174D01*
X46087033Y-118529967D01*
X46119933Y-118466225D01*
X46235844Y-118241654D01*
X46235847Y-118241647D01*
X46245739Y-118222482D01*
X46368050Y-117898793D01*
X46452348Y-117563190D01*
X46461817Y-117491266D01*
X46494697Y-117241517D01*
X46494698Y-117241510D01*
X46497513Y-117220124D01*
X46499393Y-117100500D01*
X46502610Y-116895715D01*
X46502949Y-116874139D01*
X46468581Y-116529823D01*
X46457769Y-116480232D01*
X46399464Y-116212824D01*
X46394867Y-116191739D01*
X46375027Y-116133789D01*
X46289775Y-115884789D01*
X46282783Y-115864367D01*
X46273495Y-115844894D01*
X46273492Y-115844887D01*
X46143101Y-115571518D01*
X46143099Y-115571514D01*
X46133814Y-115552048D01*
X45949936Y-115258921D01*
X45936451Y-115242089D01*
X45936446Y-115242082D01*
X45747075Y-115005709D01*
X45747073Y-115005707D01*
X45733585Y-114988871D01*
X45487629Y-114745477D01*
X45215328Y-114531966D01*
X44920291Y-114351168D01*
X44606430Y-114205478D01*
X44277903Y-114096828D01*
X44256782Y-114092454D01*
X43960192Y-114031033D01*
X43960189Y-114031033D01*
X43939065Y-114026658D01*
X43917579Y-114024740D01*
X43917576Y-114024740D01*
X43841925Y-114017988D01*
X43634767Y-113999500D01*
X43411811Y-113999500D01*
X43401059Y-114000120D01*
X43401058Y-114000120D01*
X43176083Y-114013092D01*
X43176079Y-114013092D01*
X43154547Y-114014334D01*
X42813672Y-114073826D01*
X42792983Y-114079954D01*
X42792976Y-114079956D01*
X42664532Y-114118003D01*
X42481894Y-114172103D01*
X42462047Y-114180569D01*
X42462040Y-114180571D01*
X42281840Y-114257433D01*
X42163611Y-114307862D01*
X41863041Y-114479304D01*
X41845646Y-114492082D01*
X41601553Y-114671386D01*
X41601548Y-114671390D01*
X41584168Y-114684157D01*
X41330688Y-114919705D01*
X41105962Y-115182826D01*
X40912967Y-115470033D01*
X40903071Y-115489206D01*
X40772513Y-115742156D01*
X40754261Y-115777518D01*
X40631950Y-116101207D01*
X40626693Y-116122136D01*
X40565182Y-116367022D01*
X40547652Y-116436810D01*
X40544835Y-116458205D01*
X40544834Y-116458212D01*
X40505739Y-116755177D01*
X40502487Y-116779876D01*
X40502148Y-116801442D01*
X40502148Y-116801444D01*
X40498593Y-117027725D01*
X40497051Y-117125861D01*
X36280500Y-117125861D01*
X36280500Y-108749500D01*
X36300689Y-108576769D01*
X36360169Y-108413349D01*
X36455733Y-108268052D01*
X36582228Y-108148710D01*
X36732836Y-108061756D01*
X36899438Y-108011879D01*
X37029500Y-108000500D01*
X49586050Y-108000500D01*
X49758781Y-108020689D01*
G37*
%TD.AperFunction*%
%TD*%
M02*
