%TF.GenerationSoftware,KiCad,Pcbnew,(6.0.7)*%
%TF.CreationDate,2022-08-16T16:18:47+02:00*%
%TF.ProjectId,MHS_Mobile_Hardware_Sampler_FSR_PCB,4d48535f-4d6f-4626-996c-655f48617264,rev?*%
%TF.SameCoordinates,Original*%
%TF.FileFunction,Copper,L1,Top*%
%TF.FilePolarity,Positive*%
%FSLAX46Y46*%
G04 Gerber Fmt 4.6, Leading zero omitted, Abs format (unit mm)*
G04 Created by KiCad (PCBNEW (6.0.7)) date 2022-08-16 16:18:47*
%MOMM*%
%LPD*%
G01*
G04 APERTURE LIST*
G04 Aperture macros list*
%AMRoundRect*
0 Rectangle with rounded corners*
0 $1 Rounding radius*
0 $2 $3 $4 $5 $6 $7 $8 $9 X,Y pos of 4 corners*
0 Add a 4 corners polygon primitive as box body*
4,1,4,$2,$3,$4,$5,$6,$7,$8,$9,$2,$3,0*
0 Add four circle primitives for the rounded corners*
1,1,$1+$1,$2,$3*
1,1,$1+$1,$4,$5*
1,1,$1+$1,$6,$7*
1,1,$1+$1,$8,$9*
0 Add four rect primitives between the rounded corners*
20,1,$1+$1,$2,$3,$4,$5,0*
20,1,$1+$1,$4,$5,$6,$7,0*
20,1,$1+$1,$6,$7,$8,$9,0*
20,1,$1+$1,$8,$9,$2,$3,0*%
G04 Aperture macros list end*
%TA.AperFunction,SMDPad,CuDef*%
%ADD10R,5.000000X10.000000*%
%TD*%
%TA.AperFunction,ComponentPad*%
%ADD11C,2.400000*%
%TD*%
%TA.AperFunction,ComponentPad*%
%ADD12O,2.400000X2.400000*%
%TD*%
%TA.AperFunction,ComponentPad*%
%ADD13RoundRect,0.250000X-0.600000X-1.000000X0.600000X-1.000000X0.600000X1.000000X-0.600000X1.000000X0*%
%TD*%
%TA.AperFunction,ComponentPad*%
%ADD14O,1.700000X2.500000*%
%TD*%
%TA.AperFunction,ViaPad*%
%ADD15C,2.000000*%
%TD*%
%TA.AperFunction,Conductor*%
%ADD16C,1.000000*%
%TD*%
G04 APERTURE END LIST*
D10*
%TO.P,H13,1,1*%
%TO.N,Net-(H13-Pad1)*%
X151000000Y-115600000D03*
%TD*%
%TO.P,H14,1,1*%
%TO.N,Net-(H14-Pad1)*%
X190000000Y-115100000D03*
%TD*%
%TO.P,H5V1,1,1*%
%TO.N,Net-(H5V1-Pad1)*%
X53500000Y-115500000D03*
%TD*%
D11*
%TO.P,R4,1*%
%TO.N,GND*%
X210500000Y-136150000D03*
D12*
%TO.P,R4,2*%
%TO.N,Net-(H14-Pad1)*%
X210500000Y-148850000D03*
%TD*%
D10*
%TO.P,H12,1,1*%
%TO.N,Net-(H12-Pad1)*%
X112000000Y-115600000D03*
%TD*%
%TO.P,H5V3,1,1*%
%TO.N,Net-(H5V1-Pad1)*%
X131000000Y-115600000D03*
%TD*%
%TO.P,H11,1,1*%
%TO.N,Net-(H11-Pad1)*%
X73400000Y-115500000D03*
%TD*%
D11*
%TO.P,R1,1*%
%TO.N,GND*%
X204000000Y-118650000D03*
D12*
%TO.P,R1,2*%
%TO.N,Net-(H13-Pad1)*%
X204000000Y-131350000D03*
%TD*%
D13*
%TO.P,J?3=FSR4;6=FSR1,1,1*%
%TO.N,GND*%
X150500000Y-156000000D03*
D14*
%TO.P,J?3=FSR4;6=FSR1,2,2*%
%TO.N,Net-(H5V1-Pad1)*%
X153000000Y-156000000D03*
%TO.P,J?3=FSR4;6=FSR1,3,3*%
%TO.N,Net-(H14-Pad1)*%
X155500000Y-156000000D03*
%TO.P,J?3=FSR4;6=FSR1,4,4*%
%TO.N,Net-(H13-Pad1)*%
X158000000Y-156000000D03*
%TO.P,J?3=FSR4;6=FSR1,5,5*%
%TO.N,Net-(H12-Pad1)*%
X160500000Y-156000000D03*
%TO.P,J?3=FSR4;6=FSR1,6,6*%
%TO.N,Net-(H11-Pad1)*%
X163000000Y-156000000D03*
%TD*%
D11*
%TO.P,R3,1*%
%TO.N,GND*%
X204000000Y-136150000D03*
D12*
%TO.P,R3,2*%
%TO.N,Net-(H12-Pad1)*%
X204000000Y-148850000D03*
%TD*%
D10*
%TO.P,H5V2,1,1*%
%TO.N,Net-(H5V1-Pad1)*%
X92000000Y-115700000D03*
%TD*%
D11*
%TO.P,R2,1*%
%TO.N,GND*%
X210500000Y-118650000D03*
D12*
%TO.P,R2,2*%
%TO.N,Net-(H11-Pad1)*%
X210500000Y-131350000D03*
%TD*%
D10*
%TO.P,H5V4,1,1*%
%TO.N,Net-(H5V1-Pad1)*%
X170000000Y-115100000D03*
%TD*%
D15*
%TO.N,Net-(H11-Pad1)*%
X171320000Y-151000000D03*
X73500000Y-137400000D03*
%TO.N,Net-(H12-Pad1)*%
X160500000Y-146160000D03*
X112000000Y-137500000D03*
%TO.N,Net-(H13-Pad1)*%
X157480000Y-109220000D03*
X179000000Y-142500000D03*
%TO.N,GND*%
X147320000Y-144780000D03*
%TD*%
D16*
%TO.N,Net-(H13-Pad1)*%
X158000000Y-158270000D02*
X158000000Y-156000000D01*
X159730000Y-160000000D02*
X158000000Y-158270000D01*
X179000000Y-158500000D02*
X177500000Y-160000000D01*
X179000000Y-142500000D02*
X179000000Y-158500000D01*
X177500000Y-160000000D02*
X159730000Y-160000000D01*
%TO.N,Net-(H14-Pad1)*%
X155500000Y-144220000D02*
X155500000Y-156000000D01*
X174500000Y-143500000D02*
X156220000Y-143500000D01*
X179000000Y-139000000D02*
X174500000Y-143500000D01*
X156220000Y-143500000D02*
X155500000Y-144220000D01*
%TO.N,GND*%
X150500000Y-147960000D02*
X147320000Y-144780000D01*
X150500000Y-156000000D02*
X150500000Y-147960000D01*
%TO.N,Net-(H11-Pad1)*%
X171320000Y-151000000D02*
X166320000Y-156000000D01*
X166320000Y-156000000D02*
X163000000Y-156000000D01*
%TO.N,Net-(H13-Pad1)*%
X157380000Y-109220000D02*
X151000000Y-115600000D01*
X157480000Y-109220000D02*
X157380000Y-109220000D01*
%TO.N,Net-(H5V1-Pad1)*%
X168300000Y-139700000D02*
X153300000Y-139700000D01*
X170000000Y-138000000D02*
X168300000Y-139700000D01*
X153300000Y-139700000D02*
X150800000Y-142200000D01*
X170000000Y-115100000D02*
X170000000Y-138000000D01*
%TO.N,Net-(H11-Pad1)*%
X73500000Y-115600000D02*
X73500000Y-137400000D01*
X73500000Y-137500000D02*
X73400000Y-137600000D01*
%TO.N,Net-(H12-Pad1)*%
X112000000Y-115600000D02*
X112000000Y-137500000D01*
X160500000Y-146160000D02*
X160500000Y-156000000D01*
%TO.N,Net-(H14-Pad1)*%
X210500000Y-147110000D02*
X210500000Y-148850000D01*
X179000000Y-139000000D02*
X182000000Y-142000000D01*
X205390000Y-142000000D02*
X210500000Y-147110000D01*
X179000000Y-117100000D02*
X181000000Y-115100000D01*
X188500000Y-115100000D02*
X190000000Y-115100000D01*
X182000000Y-142000000D02*
X205390000Y-142000000D01*
X179000000Y-139000000D02*
X179000000Y-117100000D01*
X181000000Y-115100000D02*
X190000000Y-115100000D01*
%TO.N,Net-(H5V1-Pad1)*%
X53500000Y-115500000D02*
X53500000Y-138900000D01*
X131000000Y-139400000D02*
X133800000Y-142200000D01*
X53500000Y-138900000D02*
X56800000Y-142200000D01*
X92000000Y-115700000D02*
X92000000Y-140400000D01*
X92000000Y-140400000D02*
X93800000Y-142200000D01*
X153000000Y-144400000D02*
X150800000Y-142200000D01*
X56800000Y-142200000D02*
X93800000Y-142200000D01*
X153000000Y-156000000D02*
X153000000Y-144400000D01*
X93800000Y-142200000D02*
X150800000Y-142200000D01*
X131000000Y-115600000D02*
X131000000Y-139400000D01*
%TD*%
%TA.AperFunction,Conductor*%
%TO.N,GND*%
G36*
X48369860Y-108520950D02*
G01*
X48562724Y-108581461D01*
X48739460Y-108679557D01*
X48892831Y-108811222D01*
X49016559Y-108971065D01*
X49105577Y-109152542D01*
X49156243Y-109348224D01*
X49166481Y-109550099D01*
X49135872Y-109749902D01*
X49122900Y-109790779D01*
X49123864Y-109791067D01*
X49073646Y-109958987D01*
X49042692Y-110062490D01*
X49000573Y-110342642D01*
X48999500Y-110369950D01*
X48999500Y-116843542D01*
X48991624Y-116920987D01*
X48996745Y-116949842D01*
X48999500Y-117023987D01*
X48999500Y-120630050D01*
X49000573Y-120657358D01*
X49042692Y-120937510D01*
X49052813Y-120971353D01*
X49052814Y-120971357D01*
X49072598Y-121037510D01*
X49123864Y-121208933D01*
X49138652Y-121241011D01*
X49138653Y-121241013D01*
X49227685Y-121434138D01*
X49227688Y-121434144D01*
X49242471Y-121466210D01*
X49261626Y-121495875D01*
X49261627Y-121495878D01*
X49376983Y-121674534D01*
X49396144Y-121704209D01*
X49581820Y-121918180D01*
X49795791Y-122103856D01*
X49825464Y-122123015D01*
X49825466Y-122123017D01*
X49950665Y-122203856D01*
X50033790Y-122257529D01*
X50065856Y-122272312D01*
X50065862Y-122272315D01*
X50258987Y-122361347D01*
X50291067Y-122376136D01*
X50324915Y-122386259D01*
X50353617Y-122397104D01*
X50534504Y-122487315D01*
X50693529Y-122612092D01*
X50824181Y-122766326D01*
X50921112Y-122943704D01*
X50980353Y-123136962D01*
X50999500Y-123331614D01*
X50999500Y-138845041D01*
X50999007Y-138876417D01*
X50995793Y-138978698D01*
X51005425Y-139080594D01*
X51007884Y-139111843D01*
X51014312Y-139214015D01*
X51020193Y-139244847D01*
X51021196Y-139252785D01*
X51022448Y-139260688D01*
X51025402Y-139291938D01*
X51039133Y-139353365D01*
X51047727Y-139391814D01*
X51054084Y-139422510D01*
X51073269Y-139523079D01*
X51082973Y-139552942D01*
X51084953Y-139560655D01*
X51087187Y-139568346D01*
X51094038Y-139598996D01*
X51104673Y-139628537D01*
X51104675Y-139628543D01*
X51128714Y-139695316D01*
X51138874Y-139724992D01*
X51160793Y-139792450D01*
X51170497Y-139822315D01*
X51183865Y-139850725D01*
X51186808Y-139858157D01*
X51189980Y-139865488D01*
X51200617Y-139895032D01*
X51214868Y-139923001D01*
X51214873Y-139923013D01*
X51247083Y-139986228D01*
X51260888Y-140014407D01*
X51263667Y-140020311D01*
X51304463Y-140107007D01*
X51321281Y-140133507D01*
X51325132Y-140140513D01*
X51329205Y-140147400D01*
X51343459Y-140175375D01*
X51361103Y-140201338D01*
X51361107Y-140201344D01*
X51400986Y-140260024D01*
X51418214Y-140286251D01*
X51473053Y-140372663D01*
X51493064Y-140396852D01*
X51497772Y-140403332D01*
X51502667Y-140409643D01*
X51520311Y-140435605D01*
X51588042Y-140512430D01*
X51608360Y-140536220D01*
X51673610Y-140615094D01*
X51696486Y-140636576D01*
X51696500Y-140636591D01*
X51748215Y-140685154D01*
X51770751Y-140706992D01*
X54993008Y-143929249D01*
X55014846Y-143951785D01*
X55063409Y-144003500D01*
X55063424Y-144003514D01*
X55084906Y-144026390D01*
X55163780Y-144091640D01*
X55187570Y-144111958D01*
X55264395Y-144179689D01*
X55290352Y-144197329D01*
X55296666Y-144202227D01*
X55303152Y-144206939D01*
X55327337Y-144226947D01*
X55353845Y-144243769D01*
X55353846Y-144243770D01*
X55413733Y-144281775D01*
X55439971Y-144299010D01*
X55524626Y-144356542D01*
X55552603Y-144370797D01*
X55559468Y-144374857D01*
X55566485Y-144378715D01*
X55592993Y-144395537D01*
X55685604Y-144439116D01*
X55713759Y-144452909D01*
X55804968Y-144499383D01*
X55834486Y-144510010D01*
X55841801Y-144513176D01*
X55849283Y-144516138D01*
X55877685Y-144529503D01*
X55907548Y-144539206D01*
X55907550Y-144539207D01*
X55975008Y-144561126D01*
X56004684Y-144571286D01*
X56071457Y-144595325D01*
X56071463Y-144595327D01*
X56101004Y-144605962D01*
X56131654Y-144612813D01*
X56139345Y-144615047D01*
X56147058Y-144617027D01*
X56176921Y-144626731D01*
X56277490Y-144645916D01*
X56308169Y-144652270D01*
X56345607Y-144660638D01*
X56377420Y-144667749D01*
X56377424Y-144667750D01*
X56408062Y-144674598D01*
X56439314Y-144677552D01*
X56447210Y-144678803D01*
X56455148Y-144679806D01*
X56485985Y-144685688D01*
X56588134Y-144692115D01*
X56619385Y-144694574D01*
X56721302Y-144704208D01*
X56752680Y-144703222D01*
X56752684Y-144703222D01*
X56823605Y-144700993D01*
X56854984Y-144700500D01*
X93650394Y-144700500D01*
X93681769Y-144700993D01*
X93690055Y-144701253D01*
X93721302Y-144704207D01*
X93823583Y-144700993D01*
X93854959Y-144700500D01*
X133650394Y-144700500D01*
X133681769Y-144700993D01*
X133690055Y-144701253D01*
X133721302Y-144704207D01*
X133823583Y-144700993D01*
X133854959Y-144700500D01*
X149350459Y-144700500D01*
X149551556Y-144720950D01*
X149744420Y-144781461D01*
X149921156Y-144879557D01*
X150056859Y-144993100D01*
X150206900Y-145143141D01*
X150334637Y-145299799D01*
X150428224Y-145478962D01*
X150483831Y-145673298D01*
X150499500Y-145849541D01*
X150499500Y-151772626D01*
X150479050Y-151973723D01*
X150418539Y-152166587D01*
X150320443Y-152343323D01*
X150188778Y-152496694D01*
X150028935Y-152620422D01*
X149847458Y-152709440D01*
X149651776Y-152760106D01*
X149624846Y-152763857D01*
X149593914Y-152767737D01*
X149364125Y-152811572D01*
X149300134Y-152828240D01*
X149079399Y-152901668D01*
X149018172Y-152926654D01*
X148809089Y-153028632D01*
X148751703Y-153061497D01*
X148557950Y-153190226D01*
X148505413Y-153230394D01*
X148330384Y-153383620D01*
X148283620Y-153430384D01*
X148130394Y-153605413D01*
X148090226Y-153657950D01*
X147961497Y-153851703D01*
X147928632Y-153909089D01*
X147826654Y-154118172D01*
X147801668Y-154179399D01*
X147728240Y-154400134D01*
X147711572Y-154464125D01*
X147667738Y-154693912D01*
X147659830Y-154756948D01*
X147650930Y-154902452D01*
X147650000Y-154932911D01*
X147650000Y-157067089D01*
X147650930Y-157097548D01*
X147659830Y-157243052D01*
X147667738Y-157306088D01*
X147711572Y-157535875D01*
X147728240Y-157599866D01*
X147801668Y-157820601D01*
X147826654Y-157881828D01*
X147914806Y-158062564D01*
X147984582Y-158252273D01*
X148014741Y-158452145D01*
X148004049Y-158653996D01*
X147952944Y-158849563D01*
X147863517Y-159030840D01*
X147739431Y-159190404D01*
X147585764Y-159321724D01*
X147408809Y-159419422D01*
X147215809Y-159479500D01*
X147016912Y-159499500D01*
X37779500Y-159499500D01*
X37578403Y-159479050D01*
X37385539Y-159418539D01*
X37208803Y-159320443D01*
X37055432Y-159188778D01*
X36931704Y-159028935D01*
X36842686Y-158847458D01*
X36792020Y-158651776D01*
X36780500Y-158500500D01*
X36780500Y-153091762D01*
X39995733Y-153091762D01*
X40025326Y-153463621D01*
X40094266Y-153830229D01*
X40201773Y-154187435D01*
X40265663Y-154339054D01*
X40318367Y-154464125D01*
X40346629Y-154531195D01*
X40527195Y-154857615D01*
X40741424Y-155163000D01*
X40758929Y-155183031D01*
X40758933Y-155183036D01*
X40969397Y-155423870D01*
X40969403Y-155423876D01*
X40986893Y-155443890D01*
X41260820Y-155697106D01*
X41560104Y-155919779D01*
X41881355Y-156109388D01*
X42220936Y-156263786D01*
X42575001Y-156381225D01*
X42939542Y-156460375D01*
X43232020Y-156491890D01*
X43290492Y-156498190D01*
X43290495Y-156498190D01*
X43310428Y-156500338D01*
X43316414Y-156500500D01*
X43593239Y-156500500D01*
X43654443Y-156497239D01*
X43845956Y-156487035D01*
X43845964Y-156487034D01*
X43872505Y-156485620D01*
X43955104Y-156472316D01*
X44214526Y-156430531D01*
X44214532Y-156430530D01*
X44240792Y-156426300D01*
X44600691Y-156328181D01*
X44744017Y-156272156D01*
X44923359Y-156202053D01*
X44923368Y-156202049D01*
X44948124Y-156192372D01*
X45279159Y-156020413D01*
X45301327Y-156005713D01*
X45301333Y-156005709D01*
X45477318Y-155889006D01*
X45590047Y-155814251D01*
X45877267Y-155576220D01*
X46137566Y-155309015D01*
X46367998Y-155015663D01*
X46565951Y-154699485D01*
X46647850Y-154531195D01*
X46717555Y-154387963D01*
X46717558Y-154387955D01*
X46729186Y-154364062D01*
X46855853Y-154013192D01*
X46885979Y-153890080D01*
X46938196Y-153676684D01*
X46938196Y-153676683D01*
X46944518Y-153650848D01*
X46966641Y-153486136D01*
X46990637Y-153307485D01*
X46990637Y-153307481D01*
X46994176Y-153281135D01*
X46999301Y-153091762D01*
X117995733Y-153091762D01*
X118025326Y-153463621D01*
X118094266Y-153830229D01*
X118201773Y-154187435D01*
X118265663Y-154339054D01*
X118318367Y-154464125D01*
X118346629Y-154531195D01*
X118527195Y-154857615D01*
X118741424Y-155163000D01*
X118758929Y-155183031D01*
X118758933Y-155183036D01*
X118969397Y-155423870D01*
X118969403Y-155423876D01*
X118986893Y-155443890D01*
X119260820Y-155697106D01*
X119560104Y-155919779D01*
X119881355Y-156109388D01*
X120220936Y-156263786D01*
X120575001Y-156381225D01*
X120939542Y-156460375D01*
X121232020Y-156491890D01*
X121290492Y-156498190D01*
X121290495Y-156498190D01*
X121310428Y-156500338D01*
X121316414Y-156500500D01*
X121593239Y-156500500D01*
X121654443Y-156497239D01*
X121845956Y-156487035D01*
X121845964Y-156487034D01*
X121872505Y-156485620D01*
X121955104Y-156472316D01*
X122214526Y-156430531D01*
X122214532Y-156430530D01*
X122240792Y-156426300D01*
X122600691Y-156328181D01*
X122744017Y-156272156D01*
X122923359Y-156202053D01*
X122923368Y-156202049D01*
X122948124Y-156192372D01*
X123279159Y-156020413D01*
X123301327Y-156005713D01*
X123301333Y-156005709D01*
X123477318Y-155889006D01*
X123590047Y-155814251D01*
X123877267Y-155576220D01*
X124137566Y-155309015D01*
X124367998Y-155015663D01*
X124565951Y-154699485D01*
X124647850Y-154531195D01*
X124717555Y-154387963D01*
X124717558Y-154387955D01*
X124729186Y-154364062D01*
X124855853Y-154013192D01*
X124885979Y-153890080D01*
X124938196Y-153676684D01*
X124938196Y-153676683D01*
X124944518Y-153650848D01*
X124966641Y-153486136D01*
X124990637Y-153307485D01*
X124990637Y-153307481D01*
X124994176Y-153281135D01*
X125004267Y-152908238D01*
X124974674Y-152536379D01*
X124905734Y-152169771D01*
X124870851Y-152053866D01*
X124846730Y-151973723D01*
X124798227Y-151812565D01*
X124713727Y-151612037D01*
X124663700Y-151493316D01*
X124663697Y-151493310D01*
X124653371Y-151468805D01*
X124547811Y-151277978D01*
X124485676Y-151165652D01*
X124485673Y-151165647D01*
X124472805Y-151142385D01*
X124258576Y-150837000D01*
X124241067Y-150816964D01*
X124030603Y-150576130D01*
X124030597Y-150576124D01*
X124013107Y-150556110D01*
X123739180Y-150302894D01*
X123439896Y-150080221D01*
X123118645Y-149890612D01*
X122779064Y-149736214D01*
X122424999Y-149618775D01*
X122060458Y-149539625D01*
X121767980Y-149508110D01*
X121709508Y-149501810D01*
X121709505Y-149501810D01*
X121689572Y-149499662D01*
X121683586Y-149499500D01*
X121406761Y-149499500D01*
X121345557Y-149502761D01*
X121154044Y-149512965D01*
X121154036Y-149512966D01*
X121127495Y-149514380D01*
X121101245Y-149518608D01*
X121101246Y-149518608D01*
X120785474Y-149569469D01*
X120785468Y-149569470D01*
X120759208Y-149573700D01*
X120399309Y-149671819D01*
X120374535Y-149681503D01*
X120076641Y-149797947D01*
X120076632Y-149797951D01*
X120051876Y-149807628D01*
X120028285Y-149819883D01*
X120028284Y-149819883D01*
X119947539Y-149861827D01*
X119720841Y-149979587D01*
X119698673Y-149994287D01*
X119698667Y-149994291D01*
X119675752Y-150009487D01*
X119409953Y-150185749D01*
X119122733Y-150423780D01*
X118862434Y-150690985D01*
X118846007Y-150711897D01*
X118846003Y-150711902D01*
X118791042Y-150781871D01*
X118632002Y-150984337D01*
X118434049Y-151300515D01*
X118422414Y-151324424D01*
X118282445Y-151612037D01*
X118282442Y-151612045D01*
X118270814Y-151635938D01*
X118144147Y-151986808D01*
X118137827Y-152012634D01*
X118137825Y-152012642D01*
X118099376Y-152169771D01*
X118055482Y-152349152D01*
X118051941Y-152375514D01*
X118051941Y-152375515D01*
X118026745Y-152563108D01*
X118005824Y-152718865D01*
X117995733Y-153091762D01*
X46999301Y-153091762D01*
X47004267Y-152908238D01*
X46974674Y-152536379D01*
X46905734Y-152169771D01*
X46870851Y-152053866D01*
X46846730Y-151973723D01*
X46798227Y-151812565D01*
X46713727Y-151612037D01*
X46663700Y-151493316D01*
X46663697Y-151493310D01*
X46653371Y-151468805D01*
X46547811Y-151277978D01*
X46485676Y-151165652D01*
X46485673Y-151165647D01*
X46472805Y-151142385D01*
X46258576Y-150837000D01*
X46241067Y-150816964D01*
X46030603Y-150576130D01*
X46030597Y-150576124D01*
X46013107Y-150556110D01*
X45739180Y-150302894D01*
X45439896Y-150080221D01*
X45118645Y-149890612D01*
X44779064Y-149736214D01*
X44424999Y-149618775D01*
X44060458Y-149539625D01*
X43767980Y-149508110D01*
X43709508Y-149501810D01*
X43709505Y-149501810D01*
X43689572Y-149499662D01*
X43683586Y-149499500D01*
X43406761Y-149499500D01*
X43345557Y-149502761D01*
X43154044Y-149512965D01*
X43154036Y-149512966D01*
X43127495Y-149514380D01*
X43101245Y-149518608D01*
X43101246Y-149518608D01*
X42785474Y-149569469D01*
X42785468Y-149569470D01*
X42759208Y-149573700D01*
X42399309Y-149671819D01*
X42374535Y-149681503D01*
X42076641Y-149797947D01*
X42076632Y-149797951D01*
X42051876Y-149807628D01*
X42028285Y-149819883D01*
X42028284Y-149819883D01*
X41947539Y-149861827D01*
X41720841Y-149979587D01*
X41698673Y-149994287D01*
X41698667Y-149994291D01*
X41675752Y-150009487D01*
X41409953Y-150185749D01*
X41122733Y-150423780D01*
X40862434Y-150690985D01*
X40846007Y-150711897D01*
X40846003Y-150711902D01*
X40791042Y-150781871D01*
X40632002Y-150984337D01*
X40434049Y-151300515D01*
X40422414Y-151324424D01*
X40282445Y-151612037D01*
X40282442Y-151612045D01*
X40270814Y-151635938D01*
X40144147Y-151986808D01*
X40137827Y-152012634D01*
X40137825Y-152012642D01*
X40099376Y-152169771D01*
X40055482Y-152349152D01*
X40051941Y-152375514D01*
X40051941Y-152375515D01*
X40026745Y-152563108D01*
X40005824Y-152718865D01*
X39995733Y-153091762D01*
X36780500Y-153091762D01*
X36780500Y-117091762D01*
X39995733Y-117091762D01*
X40025326Y-117463621D01*
X40094266Y-117830229D01*
X40101928Y-117855687D01*
X40101929Y-117855691D01*
X40118642Y-117911222D01*
X40201773Y-118187435D01*
X40346629Y-118531195D01*
X40359504Y-118554469D01*
X40359504Y-118554470D01*
X40421995Y-118667438D01*
X40527195Y-118857615D01*
X40741424Y-119163000D01*
X40758929Y-119183031D01*
X40758933Y-119183036D01*
X40969397Y-119423870D01*
X40969403Y-119423876D01*
X40986893Y-119443890D01*
X41260820Y-119697106D01*
X41560104Y-119919779D01*
X41881355Y-120109388D01*
X42220936Y-120263786D01*
X42575001Y-120381225D01*
X42939542Y-120460375D01*
X43232020Y-120491890D01*
X43290492Y-120498190D01*
X43290495Y-120498190D01*
X43310428Y-120500338D01*
X43316414Y-120500500D01*
X43593239Y-120500500D01*
X43654443Y-120497239D01*
X43845956Y-120487035D01*
X43845964Y-120487034D01*
X43872505Y-120485620D01*
X43955104Y-120472316D01*
X44214526Y-120430531D01*
X44214532Y-120430530D01*
X44240792Y-120426300D01*
X44600691Y-120328181D01*
X44639015Y-120313200D01*
X44923359Y-120202053D01*
X44923368Y-120202049D01*
X44948124Y-120192372D01*
X45146263Y-120089447D01*
X45255550Y-120032677D01*
X45255551Y-120032676D01*
X45279159Y-120020413D01*
X45301327Y-120005713D01*
X45301333Y-120005709D01*
X45454854Y-119903903D01*
X45590047Y-119814251D01*
X45877267Y-119576220D01*
X46137566Y-119309015D01*
X46367998Y-119015663D01*
X46565951Y-118699485D01*
X46647850Y-118531195D01*
X46717555Y-118387963D01*
X46717558Y-118387955D01*
X46729186Y-118364062D01*
X46855853Y-118013192D01*
X46894394Y-117855691D01*
X46938196Y-117676684D01*
X46938196Y-117676683D01*
X46944518Y-117650848D01*
X46949733Y-117612020D01*
X46990637Y-117307485D01*
X46990637Y-117307481D01*
X46994176Y-117281135D01*
X47001866Y-116996963D01*
X47007854Y-116950584D01*
X47006626Y-116944609D01*
X47004304Y-116908235D01*
X47004267Y-116908238D01*
X46976783Y-116562882D01*
X46974674Y-116536379D01*
X46905734Y-116169771D01*
X46886231Y-116104968D01*
X46866736Y-116040194D01*
X46798227Y-115812565D01*
X46697197Y-115572809D01*
X46663700Y-115493316D01*
X46663697Y-115493310D01*
X46653371Y-115468805D01*
X46604606Y-115380649D01*
X46485676Y-115165652D01*
X46485673Y-115165647D01*
X46472805Y-115142385D01*
X46258576Y-114837000D01*
X46241067Y-114816964D01*
X46030603Y-114576130D01*
X46030597Y-114576124D01*
X46013107Y-114556110D01*
X45739180Y-114302894D01*
X45439896Y-114080221D01*
X45118645Y-113890612D01*
X44779064Y-113736214D01*
X44424999Y-113618775D01*
X44060458Y-113539625D01*
X43767980Y-113508110D01*
X43709508Y-113501810D01*
X43709505Y-113501810D01*
X43689572Y-113499662D01*
X43683586Y-113499500D01*
X43406761Y-113499500D01*
X43345557Y-113502761D01*
X43154044Y-113512965D01*
X43154036Y-113512966D01*
X43127495Y-113514380D01*
X43101245Y-113518608D01*
X43101246Y-113518608D01*
X42785474Y-113569469D01*
X42785468Y-113569470D01*
X42759208Y-113573700D01*
X42399309Y-113671819D01*
X42374535Y-113681503D01*
X42076641Y-113797947D01*
X42076632Y-113797951D01*
X42051876Y-113807628D01*
X41720841Y-113979587D01*
X41698673Y-113994287D01*
X41698667Y-113994291D01*
X41589470Y-114066704D01*
X41409953Y-114185749D01*
X41122733Y-114423780D01*
X40862434Y-114690985D01*
X40632002Y-114984337D01*
X40434049Y-115300515D01*
X40392980Y-115384906D01*
X40282445Y-115612037D01*
X40282442Y-115612045D01*
X40270814Y-115635938D01*
X40144147Y-115986808D01*
X40137827Y-116012634D01*
X40137825Y-116012642D01*
X40092981Y-116195905D01*
X40055482Y-116349152D01*
X40051941Y-116375514D01*
X40051941Y-116375515D01*
X40030335Y-116536379D01*
X40005824Y-116718865D01*
X39995733Y-117091762D01*
X36780500Y-117091762D01*
X36780500Y-109499500D01*
X36800950Y-109298403D01*
X36861461Y-109105539D01*
X36959557Y-108928803D01*
X37091222Y-108775432D01*
X37251065Y-108651704D01*
X37432542Y-108562686D01*
X37628224Y-108512020D01*
X37779500Y-108500500D01*
X48168763Y-108500500D01*
X48369860Y-108520950D01*
G37*
%TD.AperFunction*%
%TA.AperFunction,Conductor*%
G36*
X217281597Y-108520950D02*
G01*
X217474461Y-108581461D01*
X217651197Y-108679557D01*
X217804568Y-108811222D01*
X217928296Y-108971065D01*
X218017314Y-109152542D01*
X218067980Y-109348224D01*
X218079500Y-109499500D01*
X218079500Y-158500500D01*
X218059050Y-158701597D01*
X217998539Y-158894461D01*
X217900443Y-159071197D01*
X217768778Y-159224568D01*
X217608935Y-159348296D01*
X217427458Y-159437314D01*
X217231776Y-159487980D01*
X217080500Y-159499500D01*
X182501243Y-159499500D01*
X182300146Y-159479050D01*
X182107282Y-159418539D01*
X181930546Y-159320443D01*
X181777175Y-159188778D01*
X181653447Y-159028935D01*
X181564429Y-158847458D01*
X181513763Y-158651776D01*
X181502736Y-158531882D01*
X181500993Y-158476423D01*
X181500500Y-158445041D01*
X181500500Y-145499500D01*
X181520950Y-145298403D01*
X181581461Y-145105539D01*
X181679557Y-144928803D01*
X181811222Y-144775432D01*
X181971065Y-144651704D01*
X182152542Y-144562686D01*
X182348224Y-144512020D01*
X182499500Y-144500500D01*
X201462328Y-144500500D01*
X201663425Y-144520950D01*
X201856289Y-144581461D01*
X202033025Y-144679557D01*
X202186396Y-144811222D01*
X202310124Y-144971065D01*
X202399142Y-145152542D01*
X202449808Y-145348224D01*
X202460046Y-145550099D01*
X202429437Y-145749902D01*
X202359235Y-145939454D01*
X202252313Y-146110994D01*
X202113049Y-146257499D01*
X202070810Y-146290172D01*
X202071373Y-146290893D01*
X202049379Y-146308077D01*
X202026471Y-146323998D01*
X202005482Y-146342373D01*
X202005480Y-146342374D01*
X201923226Y-146414382D01*
X201757199Y-146559727D01*
X201515882Y-146824003D01*
X201499487Y-146846569D01*
X201381205Y-147009371D01*
X201305528Y-147113531D01*
X201291749Y-147137786D01*
X201291744Y-147137794D01*
X201184468Y-147326635D01*
X201128757Y-147424703D01*
X200987775Y-147753640D01*
X200884337Y-148096242D01*
X200879300Y-148123687D01*
X200879299Y-148123691D01*
X200875916Y-148142123D01*
X200819734Y-148448239D01*
X200811356Y-148568053D01*
X200797880Y-148760761D01*
X200763453Y-148959942D01*
X200689635Y-149148116D01*
X200579449Y-149317578D01*
X200437406Y-149461390D01*
X200269322Y-149573666D01*
X200082077Y-149649809D01*
X199883338Y-149686701D01*
X199681241Y-149682832D01*
X199486807Y-149639275D01*
X199450256Y-149627151D01*
X199450231Y-149627144D01*
X199424999Y-149618775D01*
X199060458Y-149539625D01*
X198767980Y-149508110D01*
X198709508Y-149501810D01*
X198709505Y-149501810D01*
X198689572Y-149499662D01*
X198683586Y-149499500D01*
X198406761Y-149499500D01*
X198345557Y-149502761D01*
X198154044Y-149512965D01*
X198154036Y-149512966D01*
X198127495Y-149514380D01*
X198101245Y-149518608D01*
X198101246Y-149518608D01*
X197785474Y-149569469D01*
X197785468Y-149569470D01*
X197759208Y-149573700D01*
X197399309Y-149671819D01*
X197374535Y-149681503D01*
X197076641Y-149797947D01*
X197076632Y-149797951D01*
X197051876Y-149807628D01*
X197028285Y-149819883D01*
X197028284Y-149819883D01*
X196947539Y-149861827D01*
X196720841Y-149979587D01*
X196698673Y-149994287D01*
X196698667Y-149994291D01*
X196675752Y-150009487D01*
X196409953Y-150185749D01*
X196122733Y-150423780D01*
X195862434Y-150690985D01*
X195846007Y-150711897D01*
X195846003Y-150711902D01*
X195791042Y-150781871D01*
X195632002Y-150984337D01*
X195434049Y-151300515D01*
X195422414Y-151324424D01*
X195282445Y-151612037D01*
X195282442Y-151612045D01*
X195270814Y-151635938D01*
X195144147Y-151986808D01*
X195137827Y-152012634D01*
X195137825Y-152012642D01*
X195099376Y-152169771D01*
X195055482Y-152349152D01*
X195051941Y-152375514D01*
X195051941Y-152375515D01*
X195026745Y-152563108D01*
X195005824Y-152718865D01*
X194995733Y-153091762D01*
X195025326Y-153463621D01*
X195094266Y-153830229D01*
X195201773Y-154187435D01*
X195265663Y-154339054D01*
X195318367Y-154464125D01*
X195346629Y-154531195D01*
X195527195Y-154857615D01*
X195741424Y-155163000D01*
X195758929Y-155183031D01*
X195758933Y-155183036D01*
X195969397Y-155423870D01*
X195969403Y-155423876D01*
X195986893Y-155443890D01*
X196260820Y-155697106D01*
X196560104Y-155919779D01*
X196881355Y-156109388D01*
X197220936Y-156263786D01*
X197575001Y-156381225D01*
X197939542Y-156460375D01*
X198232020Y-156491890D01*
X198290492Y-156498190D01*
X198290495Y-156498190D01*
X198310428Y-156500338D01*
X198316414Y-156500500D01*
X198593239Y-156500500D01*
X198654443Y-156497239D01*
X198845956Y-156487035D01*
X198845964Y-156487034D01*
X198872505Y-156485620D01*
X198955104Y-156472316D01*
X199214526Y-156430531D01*
X199214532Y-156430530D01*
X199240792Y-156426300D01*
X199600691Y-156328181D01*
X199744017Y-156272156D01*
X199923359Y-156202053D01*
X199923368Y-156202049D01*
X199948124Y-156192372D01*
X200279159Y-156020413D01*
X200301327Y-156005713D01*
X200301333Y-156005709D01*
X200477318Y-155889006D01*
X200590047Y-155814251D01*
X200877267Y-155576220D01*
X201137566Y-155309015D01*
X201367998Y-155015663D01*
X201565951Y-154699485D01*
X201647850Y-154531195D01*
X201717555Y-154387963D01*
X201717558Y-154387955D01*
X201729186Y-154364062D01*
X201855853Y-154013192D01*
X201885979Y-153890080D01*
X201938196Y-153676684D01*
X201938196Y-153676683D01*
X201944518Y-153650848D01*
X201966641Y-153486136D01*
X201990637Y-153307485D01*
X201990637Y-153307481D01*
X201994176Y-153281135D01*
X202004267Y-152908238D01*
X202008007Y-152908339D01*
X202019389Y-152757483D01*
X202074858Y-152563108D01*
X202168320Y-152383879D01*
X202295947Y-152227132D01*
X202452515Y-152099285D01*
X202631613Y-152005571D01*
X202825909Y-151949828D01*
X203027449Y-151934338D01*
X203224383Y-151960984D01*
X203224509Y-151960325D01*
X203461698Y-152005571D01*
X203548634Y-152022155D01*
X203548636Y-152022155D01*
X203576046Y-152027384D01*
X203603860Y-152029524D01*
X203603866Y-152029525D01*
X203754457Y-152041112D01*
X203932868Y-152054840D01*
X204290527Y-152042350D01*
X204318141Y-152038272D01*
X204318145Y-152038272D01*
X204616957Y-151994148D01*
X204616964Y-151994147D01*
X204644564Y-151990071D01*
X204748345Y-151962651D01*
X204788373Y-151952075D01*
X204990567Y-151898653D01*
X205251728Y-151797355D01*
X205298203Y-151779329D01*
X205298205Y-151779328D01*
X205324224Y-151769236D01*
X205641375Y-151603433D01*
X205938068Y-151403311D01*
X206210605Y-151171364D01*
X206386235Y-150984337D01*
X206436485Y-150930826D01*
X206436488Y-150930823D01*
X206455588Y-150910483D01*
X206472305Y-150888137D01*
X206486265Y-150871500D01*
X206631193Y-150730595D01*
X206801518Y-150621749D01*
X206990267Y-150549416D01*
X207189713Y-150516559D01*
X207391690Y-150524523D01*
X207587930Y-150572982D01*
X207770398Y-150659951D01*
X207931624Y-150781871D01*
X208007780Y-150860875D01*
X208194125Y-151076757D01*
X208456710Y-151319913D01*
X208744763Y-151532284D01*
X208768920Y-151546231D01*
X208768923Y-151546233D01*
X208840965Y-151587826D01*
X209054693Y-151711222D01*
X209382637Y-151854498D01*
X209409297Y-151862751D01*
X209409298Y-151862751D01*
X209697856Y-151952075D01*
X209697864Y-151952077D01*
X209724509Y-151960325D01*
X209751914Y-151965553D01*
X209751915Y-151965553D01*
X210048634Y-152022155D01*
X210048636Y-152022155D01*
X210076046Y-152027384D01*
X210103860Y-152029524D01*
X210103866Y-152029525D01*
X210254457Y-152041112D01*
X210432868Y-152054840D01*
X210790527Y-152042350D01*
X210818141Y-152038272D01*
X210818145Y-152038272D01*
X211116957Y-151994148D01*
X211116964Y-151994147D01*
X211144564Y-151990071D01*
X211248345Y-151962651D01*
X211288373Y-151952075D01*
X211490567Y-151898653D01*
X211751728Y-151797355D01*
X211798203Y-151779329D01*
X211798205Y-151779328D01*
X211824224Y-151769236D01*
X212141375Y-151603433D01*
X212438068Y-151403311D01*
X212710605Y-151171364D01*
X212886235Y-150984337D01*
X212936485Y-150930826D01*
X212936488Y-150930823D01*
X212955588Y-150910483D01*
X213134049Y-150671930D01*
X213153249Y-150646265D01*
X213153251Y-150646262D01*
X213169965Y-150623920D01*
X213351062Y-150315247D01*
X213496624Y-149988311D01*
X213604835Y-149647186D01*
X213613026Y-149605822D01*
X213668927Y-149323500D01*
X213668928Y-149323493D01*
X213674347Y-149296125D01*
X213704293Y-148939504D01*
X213705543Y-148850000D01*
X213685566Y-148492682D01*
X213625883Y-148139817D01*
X213527239Y-147795804D01*
X213390863Y-147464931D01*
X213218455Y-147151321D01*
X213118320Y-147009370D01*
X213019111Y-146833258D01*
X212959707Y-146651444D01*
X212952259Y-146618123D01*
X212945916Y-146587490D01*
X212926731Y-146486921D01*
X212917030Y-146457066D01*
X212915053Y-146449366D01*
X212912814Y-146441658D01*
X212905962Y-146411004D01*
X212871301Y-146314731D01*
X212861138Y-146285045D01*
X212839204Y-146217541D01*
X212839203Y-146217538D01*
X212829503Y-146187685D01*
X212816143Y-146159294D01*
X212813204Y-146151870D01*
X212810013Y-146144496D01*
X212799382Y-146114968D01*
X212752903Y-146023748D01*
X212739128Y-145995629D01*
X212695537Y-145902993D01*
X212678714Y-145876485D01*
X212674860Y-145869474D01*
X212670794Y-145862599D01*
X212656541Y-145834625D01*
X212599014Y-145749976D01*
X212581786Y-145723749D01*
X212543768Y-145663843D01*
X212526947Y-145637337D01*
X212506936Y-145613148D01*
X212502228Y-145606668D01*
X212497333Y-145600357D01*
X212479689Y-145574395D01*
X212411958Y-145497570D01*
X212391640Y-145473780D01*
X212326390Y-145394906D01*
X212303514Y-145373424D01*
X212303500Y-145373409D01*
X212251785Y-145324846D01*
X212229249Y-145303008D01*
X207196992Y-140270751D01*
X207175154Y-140248215D01*
X207126591Y-140196500D01*
X207126576Y-140196486D01*
X207105094Y-140173610D01*
X207026220Y-140108360D01*
X207002430Y-140088042D01*
X206925605Y-140020311D01*
X206899643Y-140002667D01*
X206893332Y-139997772D01*
X206886852Y-139993064D01*
X206862663Y-139973053D01*
X206822220Y-139947387D01*
X206776251Y-139918214D01*
X206750024Y-139900986D01*
X206691344Y-139861107D01*
X206691338Y-139861103D01*
X206665375Y-139843459D01*
X206637400Y-139829205D01*
X206630513Y-139825132D01*
X206623507Y-139821281D01*
X206597007Y-139804463D01*
X206568609Y-139791100D01*
X206568604Y-139791097D01*
X206504407Y-139760888D01*
X206476228Y-139747083D01*
X206413013Y-139714873D01*
X206413001Y-139714868D01*
X206385032Y-139700617D01*
X206355488Y-139689980D01*
X206348157Y-139686808D01*
X206340725Y-139683865D01*
X206312315Y-139670497D01*
X206282450Y-139660793D01*
X206214992Y-139638874D01*
X206185316Y-139628714D01*
X206118539Y-139604673D01*
X206118525Y-139604669D01*
X206088996Y-139594038D01*
X206076650Y-139591279D01*
X205900031Y-139519901D01*
X205731705Y-139407988D01*
X205589352Y-139264483D01*
X205478800Y-139095259D01*
X205458508Y-139053697D01*
X205438140Y-139009408D01*
X205437806Y-139008953D01*
X209061639Y-139008953D01*
X209077180Y-139020268D01*
X209080572Y-139021983D01*
X209357245Y-139142858D01*
X209409460Y-139162277D01*
X209697970Y-139251586D01*
X209752052Y-139265070D01*
X210048706Y-139321659D01*
X210103925Y-139329027D01*
X210405060Y-139352198D01*
X210460770Y-139353365D01*
X210762582Y-139342825D01*
X210818096Y-139337773D01*
X211116861Y-139293656D01*
X211171440Y-139282452D01*
X211463429Y-139205305D01*
X211516433Y-139188083D01*
X211797995Y-139078872D01*
X211848746Y-139055851D01*
X211897685Y-139030266D01*
X211935258Y-139005485D01*
X211918593Y-138982807D01*
X210535826Y-137600040D01*
X210499525Y-137570441D01*
X210492045Y-137574845D01*
X210473143Y-137591071D01*
X209089807Y-138974407D01*
X209061639Y-139008953D01*
X205437806Y-139008953D01*
X205418593Y-138982807D01*
X203292186Y-136856400D01*
X203164449Y-136699742D01*
X203070862Y-136520579D01*
X203015255Y-136326243D01*
X202999907Y-136124693D01*
X203025444Y-135924178D01*
X203090822Y-135732909D01*
X203193364Y-135558715D01*
X203292186Y-135443600D01*
X203293600Y-135442186D01*
X203450258Y-135314449D01*
X203629421Y-135220862D01*
X203823757Y-135165255D01*
X204025307Y-135149907D01*
X204225822Y-135175444D01*
X204417091Y-135240822D01*
X204591285Y-135343364D01*
X204706400Y-135442186D01*
X206823606Y-137559392D01*
X206860466Y-137589447D01*
X206934607Y-137564105D01*
X207131509Y-137518413D01*
X207333579Y-137513292D01*
X207532543Y-137548952D01*
X207621506Y-137578998D01*
X207642131Y-137587062D01*
X207668052Y-137567734D01*
X209793600Y-135442186D01*
X209950258Y-135314449D01*
X210129421Y-135220862D01*
X210323757Y-135165255D01*
X210525307Y-135149907D01*
X210725822Y-135175444D01*
X210917091Y-135240822D01*
X211091285Y-135343364D01*
X211206400Y-135442186D01*
X213323606Y-137559392D01*
X213358492Y-137587838D01*
X213368334Y-137574434D01*
X213370932Y-137569390D01*
X213484804Y-137313629D01*
X213504594Y-137261533D01*
X213595913Y-136973658D01*
X213609771Y-136919686D01*
X213668431Y-136623429D01*
X213676185Y-136568255D01*
X213702335Y-136256844D01*
X213704035Y-136222077D01*
X213704798Y-136167438D01*
X213704068Y-136132576D01*
X213686626Y-135820612D01*
X213680413Y-135765213D01*
X213630049Y-135467443D01*
X213617703Y-135413102D01*
X213534458Y-135122792D01*
X213516131Y-135070166D01*
X213401048Y-134790955D01*
X213376964Y-134740688D01*
X213231476Y-134476045D01*
X213201946Y-134428787D01*
X213131057Y-134328296D01*
X213031848Y-134152183D01*
X212970121Y-133959704D01*
X212948403Y-133758740D01*
X212967583Y-133557518D01*
X213026877Y-133364275D01*
X213123856Y-133186925D01*
X213147433Y-133154039D01*
X213169965Y-133123920D01*
X213351062Y-132815247D01*
X213496624Y-132488311D01*
X213604835Y-132147186D01*
X213630718Y-132016470D01*
X213668927Y-131823500D01*
X213668928Y-131823493D01*
X213674347Y-131796125D01*
X213704293Y-131439504D01*
X213705543Y-131350000D01*
X213685566Y-130992682D01*
X213625883Y-130639817D01*
X213527239Y-130295804D01*
X213390863Y-129964931D01*
X213218455Y-129651321D01*
X213202372Y-129628521D01*
X213202367Y-129628514D01*
X213028246Y-129381683D01*
X213028246Y-129381682D01*
X213012163Y-129358884D01*
X212774560Y-129091265D01*
X212664105Y-128991811D01*
X212529352Y-128870479D01*
X212529346Y-128870474D01*
X212508605Y-128851799D01*
X212447534Y-128808076D01*
X212240312Y-128659720D01*
X212217616Y-128643471D01*
X211905218Y-128468877D01*
X211879497Y-128458065D01*
X211879491Y-128458062D01*
X211718117Y-128390227D01*
X211575304Y-128330194D01*
X211548541Y-128322317D01*
X211548532Y-128322314D01*
X211323958Y-128256219D01*
X211231989Y-128229151D01*
X210879549Y-128167006D01*
X210702437Y-128155863D01*
X210550232Y-128146287D01*
X210550226Y-128146287D01*
X210522379Y-128144535D01*
X210314582Y-128154698D01*
X210192813Y-128160653D01*
X210192808Y-128160654D01*
X210164930Y-128162017D01*
X209811657Y-128219235D01*
X209466963Y-128315475D01*
X209345339Y-128364614D01*
X209161022Y-128439083D01*
X209161016Y-128439086D01*
X209135146Y-128449538D01*
X208820341Y-128619753D01*
X208797433Y-128635674D01*
X208797424Y-128635680D01*
X208596578Y-128775272D01*
X208526471Y-128823998D01*
X208257199Y-129059727D01*
X208015882Y-129324003D01*
X208014231Y-129326276D01*
X207881069Y-129459404D01*
X207712278Y-129570616D01*
X207524556Y-129645573D01*
X207325587Y-129681208D01*
X207123519Y-129676062D01*
X206926622Y-129630345D01*
X206742959Y-129545929D01*
X206580048Y-129426269D01*
X206502806Y-129348345D01*
X206293086Y-129112131D01*
X206293083Y-129112128D01*
X206274560Y-129091265D01*
X206164105Y-128991811D01*
X206029352Y-128870479D01*
X206029346Y-128870474D01*
X206008605Y-128851799D01*
X205947534Y-128808076D01*
X205740312Y-128659720D01*
X205717616Y-128643471D01*
X205405218Y-128468877D01*
X205379497Y-128458065D01*
X205379491Y-128458062D01*
X205218117Y-128390227D01*
X205075304Y-128330194D01*
X205048541Y-128322317D01*
X205048532Y-128322314D01*
X204823958Y-128256219D01*
X204731989Y-128229151D01*
X204379549Y-128167006D01*
X204202437Y-128155863D01*
X204050232Y-128146287D01*
X204050226Y-128146287D01*
X204022379Y-128144535D01*
X203814582Y-128154698D01*
X203692813Y-128160653D01*
X203692808Y-128160654D01*
X203664930Y-128162017D01*
X203311657Y-128219235D01*
X202966963Y-128315475D01*
X202845339Y-128364614D01*
X202661022Y-128439083D01*
X202661016Y-128439086D01*
X202635146Y-128449538D01*
X202320341Y-128619753D01*
X202297433Y-128635674D01*
X202297424Y-128635680D01*
X202096578Y-128775272D01*
X202026471Y-128823998D01*
X201757199Y-129059727D01*
X201515882Y-129324003D01*
X201499487Y-129346569D01*
X201336708Y-129570616D01*
X201305528Y-129613531D01*
X201291749Y-129637786D01*
X201291744Y-129637794D01*
X201176241Y-129841117D01*
X201128757Y-129924703D01*
X200987775Y-130253640D01*
X200884337Y-130596242D01*
X200879300Y-130623687D01*
X200879299Y-130623691D01*
X200871289Y-130667333D01*
X200819734Y-130948239D01*
X200794769Y-131305244D01*
X200809756Y-131662806D01*
X200864506Y-132016470D01*
X200871819Y-132043387D01*
X200871820Y-132043391D01*
X200907247Y-132173782D01*
X200958337Y-132361827D01*
X200968609Y-132387771D01*
X201018511Y-132513808D01*
X201090080Y-132694572D01*
X201103180Y-132719210D01*
X201103184Y-132719218D01*
X201244995Y-132985925D01*
X201258093Y-133010558D01*
X201351005Y-133146253D01*
X201377821Y-133185417D01*
X201474561Y-133362899D01*
X201533593Y-133556221D01*
X201552502Y-133757469D01*
X201530512Y-133958404D01*
X201468525Y-134150799D01*
X201361738Y-134337016D01*
X201322346Y-134391234D01*
X201292166Y-134438065D01*
X201142991Y-134700661D01*
X201118211Y-134750578D01*
X200999245Y-135028148D01*
X200980178Y-135080533D01*
X200892889Y-135369647D01*
X200879786Y-135423809D01*
X200825270Y-135720848D01*
X200818284Y-135776148D01*
X200797217Y-136077402D01*
X200796439Y-136133138D01*
X200809086Y-136434879D01*
X200814523Y-136490333D01*
X200860726Y-136788785D01*
X200872314Y-136843301D01*
X200951496Y-137134738D01*
X200969084Y-137187610D01*
X201080264Y-137468421D01*
X201103633Y-137518996D01*
X201245426Y-137785669D01*
X201274282Y-137833315D01*
X201344660Y-137936100D01*
X201441399Y-138113581D01*
X201500432Y-138306904D01*
X201519341Y-138508152D01*
X201497351Y-138709086D01*
X201435365Y-138901481D01*
X201335918Y-139077460D01*
X201203082Y-139229818D01*
X201042296Y-139352318D01*
X200860143Y-139439944D01*
X200664079Y-139489110D01*
X200520370Y-139499500D01*
X183449541Y-139499500D01*
X183248444Y-139479050D01*
X183055580Y-139418539D01*
X182878844Y-139320443D01*
X182743141Y-139206900D01*
X181793100Y-138256859D01*
X181665363Y-138100201D01*
X181571776Y-137921038D01*
X181516169Y-137726702D01*
X181500500Y-137550459D01*
X181500500Y-118599500D01*
X181520950Y-118398403D01*
X181581461Y-118205539D01*
X181679557Y-118028803D01*
X181811222Y-117875432D01*
X181971065Y-117751704D01*
X182152542Y-117662686D01*
X182348224Y-117612020D01*
X182499500Y-117600500D01*
X184500500Y-117600500D01*
X184701597Y-117620950D01*
X184894461Y-117681461D01*
X185071197Y-117779557D01*
X185224568Y-117911222D01*
X185348296Y-118071065D01*
X185437314Y-118252542D01*
X185487980Y-118448224D01*
X185499500Y-118599500D01*
X185499500Y-120230050D01*
X185500573Y-120257358D01*
X185542692Y-120537510D01*
X185623864Y-120808933D01*
X185638652Y-120841011D01*
X185638653Y-120841013D01*
X185727685Y-121034138D01*
X185727688Y-121034144D01*
X185742471Y-121066210D01*
X185761626Y-121095875D01*
X185761627Y-121095878D01*
X185834625Y-121208933D01*
X185896144Y-121304209D01*
X186081820Y-121518180D01*
X186295791Y-121703856D01*
X186325464Y-121723015D01*
X186325466Y-121723017D01*
X186478237Y-121821659D01*
X186533790Y-121857529D01*
X186565856Y-121872312D01*
X186565862Y-121872315D01*
X186758987Y-121961347D01*
X186791067Y-121976136D01*
X186824913Y-121986258D01*
X187028643Y-122047186D01*
X187028647Y-122047187D01*
X187062490Y-122057308D01*
X187342642Y-122099427D01*
X187369950Y-122100500D01*
X192630050Y-122100500D01*
X192657358Y-122099427D01*
X192937510Y-122057308D01*
X192971353Y-122047187D01*
X192971357Y-122047186D01*
X193175087Y-121986258D01*
X193208933Y-121976136D01*
X193241013Y-121961347D01*
X193434138Y-121872315D01*
X193434144Y-121872312D01*
X193466210Y-121857529D01*
X193521764Y-121821659D01*
X193674534Y-121723017D01*
X193674536Y-121723015D01*
X193704209Y-121703856D01*
X193918180Y-121518180D01*
X193926187Y-121508953D01*
X202561639Y-121508953D01*
X202577180Y-121520268D01*
X202580572Y-121521983D01*
X202857245Y-121642858D01*
X202909460Y-121662277D01*
X203197970Y-121751586D01*
X203252052Y-121765070D01*
X203548706Y-121821659D01*
X203603925Y-121829027D01*
X203905060Y-121852198D01*
X203960770Y-121853365D01*
X204262582Y-121842825D01*
X204318096Y-121837773D01*
X204616861Y-121793656D01*
X204671440Y-121782452D01*
X204963429Y-121705305D01*
X205016433Y-121688083D01*
X205297995Y-121578872D01*
X205348746Y-121555851D01*
X205397685Y-121530266D01*
X205430000Y-121508953D01*
X209061639Y-121508953D01*
X209077180Y-121520268D01*
X209080572Y-121521983D01*
X209357245Y-121642858D01*
X209409460Y-121662277D01*
X209697970Y-121751586D01*
X209752052Y-121765070D01*
X210048706Y-121821659D01*
X210103925Y-121829027D01*
X210405060Y-121852198D01*
X210460770Y-121853365D01*
X210762582Y-121842825D01*
X210818096Y-121837773D01*
X211116861Y-121793656D01*
X211171440Y-121782452D01*
X211463429Y-121705305D01*
X211516433Y-121688083D01*
X211797995Y-121578872D01*
X211848746Y-121555851D01*
X211897685Y-121530266D01*
X211935258Y-121505485D01*
X211918593Y-121482807D01*
X210535826Y-120100040D01*
X210499525Y-120070441D01*
X210492045Y-120074845D01*
X210473143Y-120091071D01*
X209089807Y-121474407D01*
X209061639Y-121508953D01*
X205430000Y-121508953D01*
X205435258Y-121505485D01*
X205418593Y-121482807D01*
X204035826Y-120100040D01*
X203999525Y-120070441D01*
X203992045Y-120074845D01*
X203973143Y-120091071D01*
X202589807Y-121474407D01*
X202561639Y-121508953D01*
X193926187Y-121508953D01*
X194103856Y-121304209D01*
X194165375Y-121208933D01*
X194238373Y-121095878D01*
X194238374Y-121095875D01*
X194257529Y-121066210D01*
X194272312Y-121034144D01*
X194272315Y-121034138D01*
X194361347Y-120841013D01*
X194361348Y-120841011D01*
X194376136Y-120808933D01*
X194457308Y-120537510D01*
X194499427Y-120257358D01*
X194499898Y-120245373D01*
X194537549Y-120055330D01*
X194615942Y-119869016D01*
X194730236Y-119702296D01*
X194875749Y-119561997D01*
X195046527Y-119453861D01*
X195235576Y-119382316D01*
X195435157Y-119350290D01*
X195637099Y-119359096D01*
X195833136Y-119408372D01*
X196015240Y-119496101D01*
X196170952Y-119614034D01*
X196241284Y-119679048D01*
X196241294Y-119679056D01*
X196260820Y-119697106D01*
X196560104Y-119919779D01*
X196881355Y-120109388D01*
X197220936Y-120263786D01*
X197575001Y-120381225D01*
X197939542Y-120460375D01*
X198232020Y-120491890D01*
X198290492Y-120498190D01*
X198290495Y-120498190D01*
X198310428Y-120500338D01*
X198316414Y-120500500D01*
X198593239Y-120500500D01*
X198654443Y-120497239D01*
X198845956Y-120487035D01*
X198845964Y-120487034D01*
X198872505Y-120485620D01*
X198955104Y-120472316D01*
X199214526Y-120430531D01*
X199214532Y-120430530D01*
X199240792Y-120426300D01*
X199600691Y-120328181D01*
X199639015Y-120313200D01*
X199923359Y-120202053D01*
X199923368Y-120202049D01*
X199948124Y-120192372D01*
X199971716Y-120180117D01*
X199971723Y-120180114D01*
X200185829Y-120068894D01*
X200373712Y-119994340D01*
X200572756Y-119959133D01*
X200774814Y-119964714D01*
X200971611Y-120010854D01*
X201105468Y-120072728D01*
X201142130Y-120087062D01*
X201168052Y-120067734D01*
X202585311Y-118650475D01*
X205420441Y-118650475D01*
X205424845Y-118657955D01*
X205441071Y-118676857D01*
X206823606Y-120059392D01*
X206860466Y-120089447D01*
X206934607Y-120064105D01*
X207131509Y-120018413D01*
X207333579Y-120013292D01*
X207532543Y-120048952D01*
X207621506Y-120078998D01*
X207642131Y-120087062D01*
X207668052Y-120067734D01*
X209049960Y-118685826D01*
X209078784Y-118650475D01*
X211920441Y-118650475D01*
X211924845Y-118657955D01*
X211941071Y-118676857D01*
X213323606Y-120059392D01*
X213358492Y-120087838D01*
X213368334Y-120074434D01*
X213370932Y-120069390D01*
X213484804Y-119813629D01*
X213504594Y-119761533D01*
X213595913Y-119473658D01*
X213609771Y-119419686D01*
X213668431Y-119123429D01*
X213676185Y-119068255D01*
X213702335Y-118756844D01*
X213704035Y-118722077D01*
X213704798Y-118667438D01*
X213704068Y-118632576D01*
X213686626Y-118320612D01*
X213680413Y-118265213D01*
X213630049Y-117967443D01*
X213617703Y-117913102D01*
X213534458Y-117622792D01*
X213516131Y-117570166D01*
X213401051Y-117290961D01*
X213380122Y-117247278D01*
X213356852Y-117213555D01*
X213330202Y-117234012D01*
X211950040Y-118614174D01*
X211920441Y-118650475D01*
X209078784Y-118650475D01*
X209079559Y-118649525D01*
X209075155Y-118642045D01*
X209058929Y-118623143D01*
X207676446Y-117240660D01*
X207639586Y-117210605D01*
X207567923Y-117235100D01*
X207371021Y-117280792D01*
X207168951Y-117285913D01*
X206969987Y-117250253D01*
X206894049Y-117225195D01*
X206858873Y-117212005D01*
X206830202Y-117234012D01*
X205450040Y-118614174D01*
X205420441Y-118650475D01*
X202585311Y-118650475D01*
X205408598Y-115827188D01*
X205435890Y-115793717D01*
X209064064Y-115793717D01*
X209083122Y-115818908D01*
X210464174Y-117199960D01*
X210500475Y-117229559D01*
X210507955Y-117225155D01*
X210526857Y-117208929D01*
X211908598Y-115827188D01*
X211937044Y-115792302D01*
X211914287Y-115775591D01*
X211879268Y-115758511D01*
X211600859Y-115641479D01*
X211548363Y-115622786D01*
X211258639Y-115537516D01*
X211204399Y-115524794D01*
X210906963Y-115472348D01*
X210851650Y-115465752D01*
X210550227Y-115446788D01*
X210494496Y-115446400D01*
X210192854Y-115461153D01*
X210137434Y-115466978D01*
X209839315Y-115515262D01*
X209784883Y-115527229D01*
X209494014Y-115608442D01*
X209441246Y-115626405D01*
X209161234Y-115739537D01*
X209110805Y-115763267D01*
X209101291Y-115768411D01*
X209064064Y-115793717D01*
X205435890Y-115793717D01*
X205437044Y-115792302D01*
X205414287Y-115775591D01*
X205379268Y-115758511D01*
X205100859Y-115641479D01*
X205048363Y-115622786D01*
X204758639Y-115537516D01*
X204704399Y-115524794D01*
X204406963Y-115472348D01*
X204351650Y-115465752D01*
X204050227Y-115446788D01*
X203994496Y-115446400D01*
X203692854Y-115461153D01*
X203637434Y-115466978D01*
X203339315Y-115515262D01*
X203284883Y-115527229D01*
X202994014Y-115608442D01*
X202941237Y-115626408D01*
X202780084Y-115691518D01*
X202585969Y-115747890D01*
X202384480Y-115764033D01*
X202183867Y-115739287D01*
X201992341Y-115674663D01*
X201817744Y-115572809D01*
X201667225Y-115437893D01*
X201546945Y-115275440D01*
X201531683Y-115248822D01*
X201485681Y-115165660D01*
X201485673Y-115165647D01*
X201472805Y-115142385D01*
X201258576Y-114837000D01*
X201241067Y-114816964D01*
X201030603Y-114576130D01*
X201030597Y-114576124D01*
X201013107Y-114556110D01*
X200739180Y-114302894D01*
X200439896Y-114080221D01*
X200118645Y-113890612D01*
X199779064Y-113736214D01*
X199424999Y-113618775D01*
X199060458Y-113539625D01*
X198767980Y-113508110D01*
X198709508Y-113501810D01*
X198709505Y-113501810D01*
X198689572Y-113499662D01*
X198683586Y-113499500D01*
X198406761Y-113499500D01*
X198345557Y-113502761D01*
X198154044Y-113512965D01*
X198154036Y-113512966D01*
X198127495Y-113514380D01*
X198101245Y-113518608D01*
X198101246Y-113518608D01*
X197785474Y-113569469D01*
X197785468Y-113569470D01*
X197759208Y-113573700D01*
X197399309Y-113671819D01*
X197374535Y-113681503D01*
X197076641Y-113797947D01*
X197076632Y-113797951D01*
X197051876Y-113807628D01*
X196720841Y-113979587D01*
X196698673Y-113994287D01*
X196698667Y-113994291D01*
X196589470Y-114066704D01*
X196409953Y-114185749D01*
X196389469Y-114202725D01*
X196136957Y-114411992D01*
X195969072Y-114524566D01*
X195781963Y-114601041D01*
X195583289Y-114638285D01*
X195381185Y-114634774D01*
X195183925Y-114590652D01*
X194999585Y-114507725D01*
X194835711Y-114389388D01*
X194699013Y-114240485D01*
X194595087Y-114067114D01*
X194528188Y-113876371D01*
X194501054Y-113676066D01*
X194500500Y-113642805D01*
X194500500Y-109969950D01*
X194499427Y-109942642D01*
X194457308Y-109662490D01*
X194460432Y-109662020D01*
X194443121Y-109516741D01*
X194460097Y-109315320D01*
X194517271Y-109121441D01*
X194612302Y-108943039D01*
X194741301Y-108787418D01*
X194898984Y-108660950D01*
X195078898Y-108568813D01*
X195273676Y-108514778D01*
X195441972Y-108500500D01*
X217080500Y-108500500D01*
X217281597Y-108520950D01*
G37*
%TD.AperFunction*%
%TD*%
M02*
