%TF.GenerationSoftware,KiCad,Pcbnew,(6.0.4)*%
%TF.CreationDate,2022-08-01T12:40:21+02:00*%
%TF.ProjectId,MHS_Mobile_Hardware_Sampler_V3,4d48535f-4d6f-4626-996c-655f48617264,rev?*%
%TF.SameCoordinates,Original*%
%TF.FileFunction,Copper,L1,Top*%
%TF.FilePolarity,Positive*%
%FSLAX46Y46*%
G04 Gerber Fmt 4.6, Leading zero omitted, Abs format (unit mm)*
G04 Created by KiCad (PCBNEW (6.0.4)) date 2022-08-01 12:40:21*
%MOMM*%
%LPD*%
G01*
G04 APERTURE LIST*
G04 Aperture macros list*
%AMRoundRect*
0 Rectangle with rounded corners*
0 $1 Rounding radius*
0 $2 $3 $4 $5 $6 $7 $8 $9 X,Y pos of 4 corners*
0 Add a 4 corners polygon primitive as box body*
4,1,4,$2,$3,$4,$5,$6,$7,$8,$9,$2,$3,0*
0 Add four circle primitives for the rounded corners*
1,1,$1+$1,$2,$3*
1,1,$1+$1,$4,$5*
1,1,$1+$1,$6,$7*
1,1,$1+$1,$8,$9*
0 Add four rect primitives between the rounded corners*
20,1,$1+$1,$2,$3,$4,$5,0*
20,1,$1+$1,$4,$5,$6,$7,0*
20,1,$1+$1,$6,$7,$8,$9,0*
20,1,$1+$1,$8,$9,$2,$3,0*%
G04 Aperture macros list end*
%TA.AperFunction,SMDPad,CuDef*%
%ADD10R,5.000000X10.000000*%
%TD*%
%TA.AperFunction,ComponentPad*%
%ADD11C,2.400000*%
%TD*%
%TA.AperFunction,ComponentPad*%
%ADD12O,2.400000X2.400000*%
%TD*%
%TA.AperFunction,ComponentPad*%
%ADD13RoundRect,0.250000X-0.600000X-0.725000X0.600000X-0.725000X0.600000X0.725000X-0.600000X0.725000X0*%
%TD*%
%TA.AperFunction,ComponentPad*%
%ADD14O,1.700000X1.950000*%
%TD*%
%TA.AperFunction,ViaPad*%
%ADD15C,0.800000*%
%TD*%
%TA.AperFunction,Conductor*%
%ADD16C,0.500000*%
%TD*%
G04 APERTURE END LIST*
D10*
%TO.P,H13,1,1*%
%TO.N,Net-(H13-Pad1)*%
X151000000Y-115600000D03*
%TD*%
%TO.P,H14,1,1*%
%TO.N,Net-(H14-Pad1)*%
X190000000Y-115100000D03*
%TD*%
%TO.P,H5V1,1,1*%
%TO.N,Net-(H5V1-Pad1)*%
X53500000Y-115500000D03*
%TD*%
D11*
%TO.P,R4,1*%
%TO.N,Net-(J?3=FSR4;6=FSR1-Pad1)*%
X210500000Y-136150000D03*
D12*
%TO.P,R4,2*%
%TO.N,Net-(H14-Pad1)*%
X210500000Y-148850000D03*
%TD*%
D10*
%TO.P,H12,1,1*%
%TO.N,Net-(H12-Pad1)*%
X112000000Y-115600000D03*
%TD*%
%TO.P,H5V3,1,1*%
%TO.N,Net-(H5V1-Pad1)*%
X131000000Y-115600000D03*
%TD*%
%TO.P,H11,1,1*%
%TO.N,Net-(H11-Pad1)*%
X73400000Y-115500000D03*
%TD*%
D11*
%TO.P,R1,1*%
%TO.N,Net-(J?3=FSR4;6=FSR1-Pad1)*%
X204000000Y-118650000D03*
D12*
%TO.P,R1,2*%
%TO.N,Net-(H13-Pad1)*%
X204000000Y-131350000D03*
%TD*%
D13*
%TO.P,J?3=FSR4;6=FSR1,1,1*%
%TO.N,Net-(J?3=FSR4;6=FSR1-Pad1)*%
X150500000Y-156000000D03*
D14*
%TO.P,J?3=FSR4;6=FSR1,2,2*%
%TO.N,Net-(H5V1-Pad1)*%
X153000000Y-156000000D03*
%TO.P,J?3=FSR4;6=FSR1,3,3*%
%TO.N,Net-(H14-Pad1)*%
X155500000Y-156000000D03*
%TO.P,J?3=FSR4;6=FSR1,4,4*%
%TO.N,Net-(H13-Pad1)*%
X158000000Y-156000000D03*
%TO.P,J?3=FSR4;6=FSR1,5,5*%
%TO.N,Net-(H12-Pad1)*%
X160500000Y-156000000D03*
%TO.P,J?3=FSR4;6=FSR1,6,6*%
%TO.N,Net-(H11-Pad1)*%
X163000000Y-156000000D03*
%TD*%
D11*
%TO.P,R3,1*%
%TO.N,Net-(J?3=FSR4;6=FSR1-Pad1)*%
X204000000Y-136150000D03*
D12*
%TO.P,R3,2*%
%TO.N,Net-(H12-Pad1)*%
X204000000Y-148850000D03*
%TD*%
D10*
%TO.P,H5V2,1,1*%
%TO.N,Net-(H5V1-Pad1)*%
X92000000Y-115700000D03*
%TD*%
D11*
%TO.P,R2,1*%
%TO.N,Net-(J?3=FSR4;6=FSR1-Pad1)*%
X210500000Y-118650000D03*
D12*
%TO.P,R2,2*%
%TO.N,Net-(H11-Pad1)*%
X210500000Y-131350000D03*
%TD*%
D10*
%TO.P,H5V4,1,1*%
%TO.N,Net-(H5V1-Pad1)*%
X170000000Y-115100000D03*
%TD*%
D15*
%TO.N,Net-(J?3=FSR4;6=FSR1-Pad1)*%
X150500000Y-149000000D03*
%TO.N,Net-(H11-Pad1)*%
X73500000Y-137400000D03*
%TO.N,Net-(H12-Pad1)*%
X160500000Y-145000000D03*
X112000000Y-137500000D03*
%TO.N,Net-(H13-Pad1)*%
X151250000Y-108100000D03*
X179000000Y-142500000D03*
%TD*%
D16*
%TO.N,Net-(J?3=FSR4;6=FSR1-Pad1)*%
X150500000Y-156000000D02*
X150500000Y-149000000D01*
%TO.N,Net-(H11-Pad1)*%
X73500000Y-115600000D02*
X73500000Y-137400000D01*
X73500000Y-137500000D02*
X73400000Y-137600000D01*
%TO.N,Net-(H12-Pad1)*%
X112000000Y-115600000D02*
X112000000Y-137500000D01*
X160500000Y-145000000D02*
X160500000Y-156000000D01*
%TO.N,Net-(H14-Pad1)*%
X210500000Y-147110000D02*
X210500000Y-148850000D01*
X179000000Y-139000000D02*
X174500000Y-143500000D01*
X159500000Y-143500000D02*
X155500000Y-147500000D01*
X179000000Y-139000000D02*
X182000000Y-142000000D01*
X205390000Y-142000000D02*
X210500000Y-147110000D01*
X179000000Y-117100000D02*
X181000000Y-115100000D01*
X188500000Y-115100000D02*
X190000000Y-115100000D01*
X182000000Y-142000000D02*
X205390000Y-142000000D01*
X155500000Y-147500000D02*
X155500000Y-156000000D01*
X174500000Y-143500000D02*
X159500000Y-143500000D01*
X179000000Y-139000000D02*
X179000000Y-117100000D01*
X181000000Y-115100000D02*
X190000000Y-115100000D01*
%TO.N,Net-(H5V1-Pad1)*%
X53500000Y-115500000D02*
X53500000Y-138900000D01*
X131000000Y-139400000D02*
X133800000Y-142200000D01*
X53500000Y-138900000D02*
X56800000Y-142200000D01*
X92000000Y-115700000D02*
X92000000Y-140400000D01*
X165800000Y-142200000D02*
X150800000Y-142200000D01*
X92000000Y-140400000D02*
X93800000Y-142200000D01*
X153000000Y-144400000D02*
X150800000Y-142200000D01*
X170000000Y-115100000D02*
X170000000Y-138000000D01*
X56800000Y-142200000D02*
X93800000Y-142200000D01*
X170000000Y-115100000D02*
X168000000Y-115100000D01*
X153000000Y-156000000D02*
X153000000Y-144400000D01*
X93800000Y-142200000D02*
X150800000Y-142200000D01*
X170000000Y-138000000D02*
X165800000Y-142200000D01*
X131000000Y-115600000D02*
X131000000Y-139400000D01*
%TO.N,Net-(H13-Pad1)*%
X151250000Y-108100000D02*
X151000000Y-108350000D01*
X179000000Y-142500000D02*
X179000000Y-158500000D01*
X177500000Y-160000000D02*
X162000000Y-160000000D01*
X179000000Y-158500000D02*
X177500000Y-160000000D01*
X162000000Y-160000000D02*
X158000000Y-156000000D01*
X151000000Y-108350000D02*
X151000000Y-115600000D01*
%TD*%
M02*
