%TF.GenerationSoftware,KiCad,Pcbnew,(6.0.4)*%
%TF.CreationDate,2022-08-01T12:40:21+02:00*%
%TF.ProjectId,MHS_Mobile_Hardware_Sampler_V3,4d48535f-4d6f-4626-996c-655f48617264,rev?*%
%TF.SameCoordinates,Original*%
%TF.FileFunction,Copper,L2,Bot*%
%TF.FilePolarity,Positive*%
%FSLAX46Y46*%
G04 Gerber Fmt 4.6, Leading zero omitted, Abs format (unit mm)*
G04 Created by KiCad (PCBNEW (6.0.4)) date 2022-08-01 12:40:21*
%MOMM*%
%LPD*%
G01*
G04 APERTURE LIST*
G04 Aperture macros list*
%AMRoundRect*
0 Rectangle with rounded corners*
0 $1 Rounding radius*
0 $2 $3 $4 $5 $6 $7 $8 $9 X,Y pos of 4 corners*
0 Add a 4 corners polygon primitive as box body*
4,1,4,$2,$3,$4,$5,$6,$7,$8,$9,$2,$3,0*
0 Add four circle primitives for the rounded corners*
1,1,$1+$1,$2,$3*
1,1,$1+$1,$4,$5*
1,1,$1+$1,$6,$7*
1,1,$1+$1,$8,$9*
0 Add four rect primitives between the rounded corners*
20,1,$1+$1,$2,$3,$4,$5,0*
20,1,$1+$1,$4,$5,$6,$7,0*
20,1,$1+$1,$6,$7,$8,$9,0*
20,1,$1+$1,$8,$9,$2,$3,0*%
G04 Aperture macros list end*
%TA.AperFunction,ComponentPad*%
%ADD10C,2.400000*%
%TD*%
%TA.AperFunction,ComponentPad*%
%ADD11O,2.400000X2.400000*%
%TD*%
%TA.AperFunction,ComponentPad*%
%ADD12RoundRect,0.250000X-0.600000X-0.725000X0.600000X-0.725000X0.600000X0.725000X-0.600000X0.725000X0*%
%TD*%
%TA.AperFunction,ComponentPad*%
%ADD13O,1.700000X1.950000*%
%TD*%
%TA.AperFunction,ViaPad*%
%ADD14C,0.800000*%
%TD*%
%TA.AperFunction,Conductor*%
%ADD15C,0.500000*%
%TD*%
G04 APERTURE END LIST*
D10*
%TO.P,R4,1*%
%TO.N,Net-(J?3=FSR4;6=FSR1-Pad1)*%
X210500000Y-136150000D03*
D11*
%TO.P,R4,2*%
%TO.N,Net-(H14-Pad1)*%
X210500000Y-148850000D03*
%TD*%
D10*
%TO.P,R1,1*%
%TO.N,Net-(J?3=FSR4;6=FSR1-Pad1)*%
X204000000Y-118650000D03*
D11*
%TO.P,R1,2*%
%TO.N,Net-(H13-Pad1)*%
X204000000Y-131350000D03*
%TD*%
D12*
%TO.P,J?3=FSR4;6=FSR1,1,1*%
%TO.N,Net-(J?3=FSR4;6=FSR1-Pad1)*%
X150500000Y-156000000D03*
D13*
%TO.P,J?3=FSR4;6=FSR1,2,2*%
%TO.N,Net-(H5V1-Pad1)*%
X153000000Y-156000000D03*
%TO.P,J?3=FSR4;6=FSR1,3,3*%
%TO.N,Net-(H14-Pad1)*%
X155500000Y-156000000D03*
%TO.P,J?3=FSR4;6=FSR1,4,4*%
%TO.N,Net-(H13-Pad1)*%
X158000000Y-156000000D03*
%TO.P,J?3=FSR4;6=FSR1,5,5*%
%TO.N,Net-(H12-Pad1)*%
X160500000Y-156000000D03*
%TO.P,J?3=FSR4;6=FSR1,6,6*%
%TO.N,Net-(H11-Pad1)*%
X163000000Y-156000000D03*
%TD*%
D10*
%TO.P,R3,1*%
%TO.N,Net-(J?3=FSR4;6=FSR1-Pad1)*%
X204000000Y-136150000D03*
D11*
%TO.P,R3,2*%
%TO.N,Net-(H12-Pad1)*%
X204000000Y-148850000D03*
%TD*%
D10*
%TO.P,R2,1*%
%TO.N,Net-(J?3=FSR4;6=FSR1-Pad1)*%
X210500000Y-118650000D03*
D11*
%TO.P,R2,2*%
%TO.N,Net-(H11-Pad1)*%
X210500000Y-131350000D03*
%TD*%
D14*
%TO.N,Net-(J?3=FSR4;6=FSR1-Pad1)*%
X150500000Y-149000000D03*
%TO.N,Net-(H11-Pad1)*%
X73500000Y-137400000D03*
%TO.N,Net-(H12-Pad1)*%
X160500000Y-145000000D03*
X112000000Y-137500000D03*
%TO.N,Net-(H13-Pad1)*%
X151250000Y-108100000D03*
X179000000Y-142500000D03*
%TD*%
D15*
%TO.N,Net-(J?3=FSR4;6=FSR1-Pad1)*%
X207000000Y-136000000D02*
X206850000Y-136150000D01*
X206850000Y-136150000D02*
X204000000Y-136150000D01*
X207000000Y-118500000D02*
X210490000Y-118500000D01*
X206850000Y-136150000D02*
X210500000Y-136150000D01*
X207000000Y-157500000D02*
X194000000Y-157500000D01*
X203990000Y-118500000D02*
X207000000Y-118500000D01*
X207000000Y-136000000D02*
X207000000Y-157500000D01*
X185500000Y-149000000D02*
X150500000Y-149000000D01*
X194000000Y-157500000D02*
X185500000Y-149000000D01*
X207000000Y-118500000D02*
X207000000Y-136000000D01*
%TO.N,Net-(H11-Pad1)*%
X213500000Y-154000000D02*
X213500000Y-133000000D01*
X75500000Y-148500000D02*
X73500000Y-146500000D01*
X73500000Y-146500000D02*
X73500000Y-137400000D01*
X182500000Y-159500000D02*
X208000000Y-159500000D01*
X163000000Y-152000000D02*
X163000000Y-156000000D01*
X174000000Y-151000000D02*
X182500000Y-159500000D01*
X211850000Y-131350000D02*
X210500000Y-131350000D01*
X208000000Y-159500000D02*
X213500000Y-154000000D01*
X163000000Y-151000000D02*
X164000000Y-151000000D01*
X163000000Y-151000000D02*
X174000000Y-151000000D01*
X163000000Y-151000000D02*
X128500000Y-151000000D01*
X213500000Y-133000000D02*
X211850000Y-131350000D01*
X128500000Y-151000000D02*
X126000000Y-148500000D01*
X126000000Y-148500000D02*
X75500000Y-148500000D01*
X164000000Y-151000000D02*
X163000000Y-152000000D01*
%TO.N,Net-(H12-Pad1)*%
X201890000Y-145000000D02*
X204000000Y-147110000D01*
X119500000Y-145000000D02*
X160500000Y-145000000D01*
X204000000Y-147110000D02*
X204000000Y-148850000D01*
X112000000Y-137500000D02*
X119500000Y-145000000D01*
X160500000Y-145000000D02*
X201890000Y-145000000D01*
%TO.N,Net-(H13-Pad1)*%
X176100000Y-107600000D02*
X151750000Y-107600000D01*
X182500000Y-133000000D02*
X184000000Y-131500000D01*
X203850000Y-131500000D02*
X204000000Y-131350000D01*
X182500000Y-133000000D02*
X182500000Y-114000000D01*
X182500000Y-114000000D02*
X176100000Y-107600000D01*
X182500000Y-133000000D02*
X182500000Y-139000000D01*
X182500000Y-139000000D02*
X179000000Y-142500000D01*
X151750000Y-107600000D02*
X151250000Y-108100000D01*
X184000000Y-131500000D02*
X203850000Y-131500000D01*
%TD*%
M02*
