%TF.GenerationSoftware,KiCad,Pcbnew,(6.0.4)*%
%TF.CreationDate,2022-07-25T16:23:06+02:00*%
%TF.ProjectId,MHS_Mobile_Hardware_Sampler_V3,4d48535f-4d6f-4626-996c-655f48617264,rev?*%
%TF.SameCoordinates,Original*%
%TF.FileFunction,Soldermask,Bot*%
%TF.FilePolarity,Negative*%
%FSLAX46Y46*%
G04 Gerber Fmt 4.6, Leading zero omitted, Abs format (unit mm)*
G04 Created by KiCad (PCBNEW (6.0.4)) date 2022-07-25 16:23:06*
%MOMM*%
%LPD*%
G01*
G04 APERTURE LIST*
G04 Aperture macros list*
%AMRoundRect*
0 Rectangle with rounded corners*
0 $1 Rounding radius*
0 $2 $3 $4 $5 $6 $7 $8 $9 X,Y pos of 4 corners*
0 Add a 4 corners polygon primitive as box body*
4,1,4,$2,$3,$4,$5,$6,$7,$8,$9,$2,$3,0*
0 Add four circle primitives for the rounded corners*
1,1,$1+$1,$2,$3*
1,1,$1+$1,$4,$5*
1,1,$1+$1,$6,$7*
1,1,$1+$1,$8,$9*
0 Add four rect primitives between the rounded corners*
20,1,$1+$1,$2,$3,$4,$5,0*
20,1,$1+$1,$4,$5,$6,$7,0*
20,1,$1+$1,$6,$7,$8,$9,0*
20,1,$1+$1,$8,$9,$2,$3,0*%
G04 Aperture macros list end*
%ADD10C,1.600000*%
%ADD11R,1.700000X1.700000*%
%ADD12O,1.700000X1.700000*%
%ADD13C,2.400000*%
%ADD14O,2.400000X2.400000*%
%ADD15C,3.000000*%
%ADD16R,1.160000X1.160000*%
%ADD17C,1.160000*%
%ADD18RoundRect,0.250000X-0.600000X-0.725000X0.600000X-0.725000X0.600000X0.725000X-0.600000X0.725000X0*%
%ADD19O,1.700000X1.950000*%
%ADD20C,2.000000*%
%ADD21C,2.300000*%
%ADD22C,2.100000*%
%ADD23R,1.600000X1.600000*%
%ADD24O,1.600000X1.600000*%
%ADD25R,1.130000X1.130000*%
%ADD26C,1.130000*%
G04 APERTURE END LIST*
D10*
%TO.C,U7*%
X52020000Y-61000000D03*
X49480000Y-61000000D03*
X46940000Y-61000000D03*
X44400000Y-61000000D03*
X41860000Y-61000000D03*
X39320000Y-61000000D03*
X36780000Y-61000000D03*
X34240000Y-61000000D03*
X31700000Y-61000000D03*
X29160000Y-61000000D03*
X26620000Y-61000000D03*
X24080000Y-61000000D03*
X21540000Y-61000000D03*
X19000000Y-61000000D03*
X19000000Y-63540000D03*
X19000000Y-66080000D03*
X19000000Y-68620000D03*
X19000000Y-71160000D03*
X19000000Y-73700000D03*
X19000000Y-76240000D03*
X21540000Y-76240000D03*
X24080000Y-76240000D03*
X26620000Y-76240000D03*
X29160000Y-76240000D03*
X31700000Y-76240000D03*
X34240000Y-76240000D03*
X36780000Y-76240000D03*
X39320000Y-76240000D03*
X41860000Y-76240000D03*
X44400000Y-76240000D03*
X46940000Y-76240000D03*
X49480000Y-76240000D03*
X52020000Y-76240000D03*
X49480000Y-73700000D03*
X24080000Y-73700000D03*
X26620000Y-73700000D03*
X24080000Y-71160000D03*
X26620000Y-71160000D03*
X24080000Y-68620000D03*
X26620000Y-68620000D03*
X24080000Y-66080000D03*
X26620000Y-66080000D03*
X24080000Y-63540000D03*
X26620000Y-63540000D03*
%TD*%
D11*
%TO.C,J6_TeensyPinsUnten1*%
X26575000Y-25000000D03*
D12*
X29115000Y-25000000D03*
X31655000Y-25000000D03*
X34195000Y-25000000D03*
X36735000Y-25000000D03*
X39275000Y-25000000D03*
X41815000Y-25000000D03*
X44355000Y-25000000D03*
X46895000Y-25000000D03*
X49435000Y-25000000D03*
%TD*%
D13*
%TO.C,R4*%
X210500000Y-136150000D03*
D14*
X210500000Y-148850000D03*
%TD*%
D15*
%TO.C,H3*%
X198500000Y-117000000D03*
%TD*%
D16*
%TO.C,U6*%
X166690000Y-57180000D03*
D17*
X166690000Y-59720000D03*
X166690000Y-62260000D03*
X166690000Y-64800000D03*
X174310000Y-64800000D03*
X174310000Y-62260000D03*
X174310000Y-59720000D03*
X174310000Y-57180000D03*
%TD*%
D11*
%TO.C,J9*%
X118000000Y-81500000D03*
D12*
X120540000Y-81500000D03*
X123080000Y-81500000D03*
X125620000Y-81500000D03*
X128160000Y-81500000D03*
%TD*%
D15*
%TO.C,H6*%
X43500000Y-153000000D03*
%TD*%
%TO.C,H2*%
X198500000Y-153000000D03*
%TD*%
D18*
%TO.C,J4*%
X114500000Y-93500000D03*
D19*
X117000000Y-93500000D03*
X119500000Y-93500000D03*
X122000000Y-93500000D03*
X124500000Y-93500000D03*
X127000000Y-93500000D03*
%TD*%
D11*
%TO.C,J5*%
X135625000Y-53000000D03*
D12*
X133085000Y-53000000D03*
X130545000Y-53000000D03*
X128005000Y-53000000D03*
X125465000Y-53000000D03*
X122925000Y-53000000D03*
X120385000Y-53000000D03*
%TD*%
D11*
%TO.C,J10*%
X194340000Y-87010000D03*
D12*
X196880000Y-87010000D03*
%TD*%
D13*
%TO.C,R1*%
X204000000Y-118650000D03*
D14*
X204000000Y-131350000D03*
%TD*%
D15*
%TO.C,H1*%
X43500000Y-117000000D03*
%TD*%
D11*
%TO.C,J1*%
X52010000Y-46620000D03*
D12*
X49470000Y-46620000D03*
X46930000Y-46620000D03*
X44390000Y-46620000D03*
X41850000Y-46620000D03*
X39310000Y-46620000D03*
X36770000Y-46620000D03*
X34230000Y-46620000D03*
X31690000Y-46620000D03*
X29150000Y-46620000D03*
X26610000Y-46620000D03*
X24070000Y-46620000D03*
X21530000Y-46620000D03*
X18990000Y-46620000D03*
%TD*%
D20*
%TO.C,J8*%
X196982056Y-21066973D03*
X186969129Y-21056684D03*
D21*
X184470000Y-31067500D03*
X191970000Y-31067500D03*
X199470000Y-31067500D03*
X186970000Y-33567500D03*
X196970000Y-33567500D03*
%TD*%
D18*
%TO.C,J?3=FSR4;6=FSR1*%
X150500000Y-156000000D03*
D19*
X153000000Y-156000000D03*
X155500000Y-156000000D03*
X158000000Y-156000000D03*
X160500000Y-156000000D03*
X163000000Y-156000000D03*
%TD*%
D22*
%TO.C,J17*%
X118154670Y-25190000D03*
X118154670Y-37890000D03*
X134384670Y-37890000D03*
X134384670Y-25190000D03*
%TD*%
D13*
%TO.C,R8*%
X196920000Y-68410000D03*
D14*
X196920000Y-81110000D03*
%TD*%
D22*
%TO.C,J16*%
X97124670Y-25190000D03*
X97124670Y-37890000D03*
X113354670Y-37890000D03*
X113354670Y-25190000D03*
%TD*%
D13*
%TO.C,R3*%
X204000000Y-136150000D03*
D14*
X204000000Y-148850000D03*
%TD*%
D13*
%TO.C,R6*%
X161000000Y-74000000D03*
D14*
X173700000Y-74000000D03*
%TD*%
D11*
%TO.C,J6*%
X96700000Y-67000000D03*
D12*
X99240000Y-67000000D03*
X101780000Y-67000000D03*
X104320000Y-67000000D03*
%TD*%
D20*
%TO.C,J3*%
X174182056Y-21046973D03*
X164169129Y-21036684D03*
D21*
X161670000Y-31047500D03*
X169170000Y-31047500D03*
X176670000Y-31047500D03*
X164170000Y-33547500D03*
X174170000Y-33547500D03*
%TD*%
D15*
%TO.C,H9*%
X65500000Y-82000000D03*
%TD*%
D13*
%TO.C,R2*%
X210500000Y-118650000D03*
D14*
X210500000Y-131350000D03*
%TD*%
D23*
%TO.C,C1*%
X180817621Y-57190000D03*
D10*
X183317621Y-57190000D03*
%TD*%
D11*
%TO.C,J7*%
X87990000Y-53000000D03*
D12*
X90530000Y-53000000D03*
X93070000Y-53000000D03*
X95610000Y-53000000D03*
X98150000Y-53000000D03*
X100690000Y-53000000D03*
X103230000Y-53000000D03*
X105770000Y-53000000D03*
%TD*%
D22*
%TO.C,J18*%
X139154670Y-25190000D03*
X139154670Y-37890000D03*
X155384670Y-37890000D03*
X155384670Y-25190000D03*
%TD*%
D15*
%TO.C,H4*%
X184000000Y-40000000D03*
%TD*%
D13*
%TO.C,R7*%
X188000000Y-75850000D03*
D14*
X188000000Y-63150000D03*
%TD*%
D15*
%TO.C,H8*%
X184000000Y-82000000D03*
%TD*%
D23*
%TO.C,D1*%
X167810000Y-51990000D03*
D24*
X160190000Y-51990000D03*
%TD*%
D15*
%TO.C,H10*%
X121500000Y-153000000D03*
%TD*%
%TO.C,H7*%
X65500000Y-40000000D03*
%TD*%
D11*
%TO.C,J2*%
X19032663Y-87357701D03*
D12*
X21572663Y-87357701D03*
X24112663Y-87357701D03*
X26652663Y-87357701D03*
X29192663Y-87357701D03*
X31732663Y-87357701D03*
X34272663Y-87357701D03*
X36812663Y-87357701D03*
X39352663Y-87357701D03*
X41892663Y-87357701D03*
X44432663Y-87357701D03*
X46972663Y-87357701D03*
X49512663Y-87357701D03*
X52052663Y-87357701D03*
%TD*%
D15*
%TO.C,H5*%
X121500000Y-117000000D03*
%TD*%
D22*
%TO.C,J11*%
X76124340Y-25190000D03*
X76124340Y-37890000D03*
X92354340Y-37890000D03*
X92354340Y-25190000D03*
%TD*%
D25*
%TO.C,U5*%
X117840000Y-75657960D03*
D26*
X120380000Y-75657960D03*
X122920000Y-75657960D03*
X125460000Y-75657960D03*
X128000000Y-75657960D03*
X130540000Y-75657960D03*
X133080000Y-75657960D03*
X135620000Y-75657960D03*
X135620000Y-67717960D03*
X133080000Y-67717960D03*
X130540000Y-67717960D03*
X128000000Y-67717960D03*
X125460000Y-67717960D03*
X122920000Y-67717960D03*
X120380000Y-67717960D03*
X117840000Y-67717960D03*
%TD*%
D13*
%TO.C,R5*%
X155500000Y-50150000D03*
D14*
X155500000Y-62850000D03*
%TD*%
M02*
