M48
; DRILL file {KiCad (6.0.7)} date Tue Aug 16 16:21:12 2022
; FORMAT={-:-/ absolute / inch / decimal}
; #@! TF.CreationDate,2022-08-16T16:21:12+02:00
; #@! TF.GenerationSoftware,Kicad,Pcbnew,(6.0.7)
; #@! TF.FileFunction,Plated,1,2,PTH
FMAT,2
INCH
; #@! TA.AperFunction,Plated,PTH,ComponentDrill
T1C0.0299
; #@! TA.AperFunction,Plated,PTH,ComponentDrill
T2C0.0315
; #@! TA.AperFunction,Plated,PTH,ComponentDrill
T3C0.0374
; #@! TA.AperFunction,Plated,PTH,ComponentDrill
T4C0.0394
; #@! TA.AperFunction,Plated,PTH,ComponentDrill
T5C0.0472
; #@! TA.AperFunction,Plated,PTH,ComponentDrill
T6C0.0512
; #@! TA.AperFunction,Plated,PTH,ComponentDrill
T7C0.0551
%
G90
G05
T1
X6.5626Y-2.2512
X6.5626Y-2.3512
X6.5626Y-2.4512
X6.5626Y-2.5512
X6.8626Y-2.2512
X6.8626Y-2.3512
X6.8626Y-2.4512
X6.8626Y-2.5512
T2
X6.3067Y-2.0469
X6.6067Y-2.0469
X7.1188Y-2.0547
X7.1188Y-2.2516
T3
X4.5079Y-3.6811
X4.6063Y-3.6811
X4.7047Y-3.6811
X4.8031Y-3.6811
X4.9016Y-3.6811
X5.0Y-3.6811
T4
X0.7476Y-1.8354
X0.748Y-2.4016
X0.748Y-3.0016
X0.7493Y-3.4393
X0.8476Y-1.8354
X0.848Y-2.4016
X0.848Y-3.0016
X0.8493Y-3.4393
X0.9476Y-1.8354
X0.948Y-2.4016
X0.948Y-3.0016
X0.9493Y-3.4393
X1.0476Y-1.8354
X1.0479Y-0.982
X1.048Y-2.4016
X1.048Y-3.0016
X1.0493Y-3.4393
X1.1142Y-3.8543
X1.1476Y-1.8354
X1.1479Y-0.982
X1.148Y-2.4016
X1.148Y-3.0016
X1.1493Y-3.4393
X1.2142Y-3.8543
X1.2476Y-1.8354
X1.2479Y-0.982
X1.248Y-2.4016
X1.248Y-3.0016
X1.2493Y-3.4393
X1.3142Y-3.8543
X1.3476Y-1.8354
X1.3479Y-0.982
X1.348Y-2.4016
X1.348Y-3.0016
X1.3493Y-3.4393
X1.4142Y-3.8543
X1.4476Y-1.8354
X1.4479Y-0.982
X1.448Y-2.4016
X1.448Y-3.0016
X1.4493Y-3.4393
X1.5476Y-1.8354
X1.5479Y-0.982
X1.548Y-2.4016
X1.548Y-3.0016
X1.5493Y-3.4393
X1.6476Y-1.8354
X1.6479Y-0.982
X1.648Y-2.4016
X1.648Y-3.0016
X1.6493Y-3.4393
X1.7476Y-1.8354
X1.7479Y-0.982
X1.748Y-2.4016
X1.748Y-3.0016
X1.7493Y-3.4393
X1.8476Y-1.8354
X1.8479Y-0.982
X1.848Y-2.4016
X1.848Y-3.0016
X1.8493Y-3.4393
X1.9476Y-1.8354
X1.9479Y-0.982
X1.948Y-2.4016
X1.948Y-3.0016
X1.9493Y-3.4393
X2.0476Y-1.8354
X2.048Y-2.4016
X2.048Y-3.0016
X2.0493Y-3.4393
X3.0142Y-3.3543
X3.1142Y-3.3543
X3.2142Y-3.3543
X3.3142Y-2.5543
X3.3142Y-3.3543
X3.4142Y-2.5543
X3.4142Y-3.3543
X3.5142Y-2.5543
X3.5142Y-3.3543
X3.6142Y-2.5543
X3.6142Y-3.3543
X3.7142Y-2.5543
X3.7142Y-3.3543
X3.8071Y-2.9543
X3.8142Y-2.5543
X3.9071Y-2.9543
X3.9142Y-2.5543
X4.0071Y-2.9543
X4.0142Y-2.5543
X4.1071Y-2.9543
X4.6394Y-2.6661
X4.6394Y-2.9787
X4.6457Y-3.2087
X4.7394Y-2.6661
X4.7394Y-2.9787
X4.7396Y-2.0866
X4.7457Y-3.2087
X4.8394Y-2.6661
X4.8394Y-2.9787
X4.8396Y-2.0866
X4.8457Y-3.2087
X4.9394Y-2.6661
X4.9394Y-2.9787
X4.9396Y-2.0866
X4.9457Y-3.2087
X5.0394Y-2.6661
X5.0394Y-2.9787
X5.0396Y-2.0866
X5.0457Y-3.2087
X5.1394Y-2.6661
X5.1394Y-2.9787
X5.1396Y-2.0866
X5.2394Y-2.6661
X5.2394Y-2.9787
X5.2396Y-2.0866
X5.3394Y-2.6661
X5.3394Y-2.9787
X5.3396Y-2.0866
X7.6512Y-3.4256
X7.7512Y-3.4256
T5
X6.122Y-1.85
X6.122Y-2.35
X6.3386Y-2.9134
X6.8386Y-2.9134
X7.4016Y-2.4862
X7.4016Y-2.9862
X7.7528Y-2.6933
X7.7528Y-3.1933
T6
X6.365Y-1.2223
X6.4634Y-0.8282
X6.4634Y-1.3208
X6.6602Y-1.2223
X6.8571Y-1.3208
X6.8576Y-0.8286
X6.9555Y-1.2223
X7.2626Y-1.2231
X7.361Y-0.829
X7.361Y-1.3216
X7.5579Y-1.2231
X7.7547Y-1.3216
X7.7552Y-0.8294
X7.8531Y-1.2231
T7
X2.997Y-0.9917
X2.997Y-1.4917
X3.636Y-0.9917
X3.636Y-1.4917
X3.8238Y-0.9917
X3.8238Y-1.4917
X4.4628Y-0.9917
X4.4628Y-1.4917
X4.6518Y-0.9917
X4.6518Y-1.4917
X5.2907Y-0.9917
X5.2907Y-1.4917
X5.4785Y-0.9917
X5.4785Y-1.4917
X6.1175Y-0.9917
X6.1175Y-1.4917
T0
M30
