M48
; DRILL file {KiCad (6.0.7)} date Wed 07 Sep 2022 02:12:11 PM CEST
; FORMAT={-:-/ absolute / inch / decimal}
; #@! TF.CreationDate,2022-09-07T14:12:11+02:00
; #@! TF.GenerationSoftware,Kicad,Pcbnew,(6.0.7)
; #@! TF.FileFunction,Plated,1,2,PTH
FMAT,2
INCH
; #@! TA.AperFunction,Plated,PTH,ViaDrill
T1C0.0157
; #@! TA.AperFunction,Plated,PTH,ComponentDrill
T2C0.0374
; #@! TA.AperFunction,Plated,PTH,ComponentDrill
T3C0.0472
%
G90
G05
T1
X3.2Y-5.4
X4.8Y-5.4
X5.8Y-5.7
X6.2Y-4.3
X6.3189Y-5.7543
X6.7449Y-5.9449
X7.0472Y-5.6102
T2
X5.9252Y-6.1417
X6.0236Y-6.1417
X6.122Y-6.1417
X6.2205Y-6.1417
X6.3189Y-6.1417
X6.4173Y-6.1417
T3
X8.0315Y-4.6713
X8.0315Y-5.1713
X8.0315Y-5.3602
X8.0315Y-5.8602
X8.2874Y-4.6713
X8.2874Y-5.1713
X8.2874Y-5.3602
X8.2874Y-5.8602
T0
M30
